VelekaWorld-SemiBoldItalic.ufo
<glyph name="quotedbl" format="2">
  <advance width="360"/>
  <unicode hex="0022"/>
  <outline>
    <contour>
      <point x="406" y="671.333" type="curve" smooth="yes" name="n00"/>
      <point x="406" y="651.667"/>
      <point x="332.667" y="455.667"/>
      <point x="319.333" y="418.667" type="curve" name="n03"/>
      <point x="284" y="418.667" type="line"/>
      <point x="293.333" y="649" type="line" smooth="yes" name="n05"/>
      <point x="294.718" y="686.351"/>
      <point x="322.333" y="714" name="n07"/>
      <point x="360" y="714" type="curve" smooth="yes"/>
      <point x="387.333" y="714"/>
      <point x="406" y="700"/>
    </contour>
    <contour>
      <point x="221.667" y="671.333" type="curve" smooth="yes" name="n11"/>
      <point x="221.667" y="651.667"/>
      <point x="148.667" y="455.667"/>
      <point x="135.333" y="418.667" type="curve"/>
      <point x="100" y="418.667" type="line"/>
      <point x="109" y="649" type="line" name="n16"/>
      <point x="111.11" y="686.327"/>
      <point x="138.333" y="714"/>
      <point x="176" y="714" type="curve" smooth="yes"/>
      <point x="203" y="714"/>
      <point x="221.667" y="700"/>
    </contour>
  </outline>
</glyph>
<glyph name="quotesingle" format="2">
  <advance width="172"/>
  <unicode hex="0027"/>
  <outline>
    <contour>
      <point x="223.333" y="671.333" type="curve" smooth="yes" name="n00"/>
      <point x="223.333" y="643"/>
      <point x="149" y="455.667"/>
      <point x="135.667" y="418.667" type="curve" name="n03"/>
      <point x="100" y="418.667" type="line"/>
      <point x="109" y="649" type="line" name="n05"/>
      <point x="111.111" y="686.348"/>
      <point x="139" y="714" name="n07"/>
      <point x="177" y="714" type="curve" smooth="yes"/>
      <point x="204.667" y="714"/>
      <point x="223.333" y="700"/>
    </contour>
  </outline>
</glyph>
<glyph name="comma" format="2">
  <advance width="306"/>
  <unicode hex="002C"/>
  <outline>
    <contour>
      <point x="186.333" y="71.6667" type="curve" smooth="yes" name="n00"/>
      <point x="186.333" y="-43.3333"/>
      <point x="56.6667" y="-165.333"/>
      <point x="-55" y="-174" type="curve"/>
      <point x="-46.6667" y="-129.333" type="line"/>
      <point x="30" y="-116"/>
      <point x="84.3333" y="-71.6667"/>
      <point x="97.3333" y="7" type="curve" name="n07"/>
      <point x="35.6667" y="7" type="line"/>
      <point x="24.6667" y="18"/>
      <point x="19" y="33.3333"/>
      <point x="19" y="49" type="curve" smooth="yes" name="n11"/>
      <point x="19" y="98.3333"/>
      <point x="63.6667" y="144"/>
      <point x="113.333" y="144" type="curve" smooth="yes" name="n14"/>
      <point x="159" y="144"/>
      <point x="186.333" y="118"/>
    </contour>
  </outline>
</glyph>
<glyph name="hyphen" format="2">
  <advance width="338"/>
  <unicode hex="002D"/>
  <outline>
    <contour>
      <point x="303" y="287.667" type="line" name="n00"/>
      <point x="284.667" y="194.333" type="line" name="n01"/>
      <point x="30" y="194.333" type="line"/>
      <point x="48.3333" y="287.667" type="line"/>
    </contour>
  </outline>
</glyph>
<glyph name="five" format="2">
  <advance width="584"/>
  <unicode hex="0035"/>
  <outline>
    <contour>
      <point x="570.667" y="671" type="line" name="n00"/>
      <point x="554.333" y="584" type="line" name="n01"/>
      <point x="263.333" y="584" type="line"/>
      <point x="227" y="404" type="line"/>
      <point x="249" y="409"/>
      <point x="278.667" y="413.667"/>
      <point x="314" y="413.667" type="curve" smooth="yes" name="n06"/>
      <point x="421.667" y="413.667"/>
      <point x="517" y="369"/>
      <point x="517" y="250" type="curve" smooth="yes" name="n09"/>
      <point x="517" y="110"/>
      <point x="379.667" y="-16"/>
      <point x="191" y="-16" type="curve" smooth="yes" name="n12"/>
      <point x="69.6667" y="-16"/>
      <point x="10" y="24"/>
      <point x="10" y="79.6667" type="curve" smooth="yes"/>
      <point x="10" y="113.667"/>
      <point x="41" y="150" name="hr01"/>
      <point x="87.6667" y="150" type="curve" smooth="yes" name="n18"/>
      <point x="104.667" y="150"/>
      <point x="116" y="140.667"/>
      <point x="129.333" y="138" type="curve"/>
      <point x="156.333" y="53" type="line"/>
      <point x="168.667" y="49.3333"/>
      <point x="197.333" y="41.6667" name="hr02"/>
      <point x="214" y="41.6667" type="curve" smooth="yes" name="n25"/>
      <point x="297" y="41.6667"/>
      <point x="383" y="124.333"/>
      <point x="383" y="224.667" type="curve" smooth="yes" name="n28"/>
      <point x="383" y="325.333"/>
      <point x="298" y="347"/>
      <point x="231" y="347" type="curve" smooth="yes" name="n31"/>
      <point x="203" y="347"/>
      <point x="133.333" y="339.667"/>
      <point x="107.667" y="336.667" type="curve"/>
      <point x="176.667" y="671" type="line"/>
    </contour>
  </outline>
</glyph>
<glyph name="nine" format="2">
  <advance width="584"/>
  <unicode hex="0039"/>
  <outline>
    <contour>
      <point x="585" y="476" type="curve" smooth="yes" name="n00"/>
      <point x="585" y="183.667"/>
      <point x="318" y="16.3333"/>
      <point x="71" y="-60.3333" type="curve"/>
      <point x="46" y="-4" type="line"/>
      <point x="183.333" y="49"/>
      <point x="294.333" y="109"/>
      <point x="389.667" y="253.667" type="curve"/>
      <point x="350.333" y="237.667"/>
      <point x="304.333" y="225.333"/>
      <point x="261" y="225.333" type="curve" smooth="yes" name="n10"/>
      <point x="160.667" y="225.333"/>
      <point x="65" y="278"/>
      <point x="65" y="404.333" type="curve" smooth="yes" name="n13"/>
      <point x="65" y="555.667"/>
      <point x="186.667" y="687"/>
      <point x="367" y="687" type="curve" smooth="yes" name="n16"/>
      <point x="452.667" y="687"/>
      <point x="585" y="659.333"/>
    </contour>
    <contour>
      <point x="451" y="475" type="curve" smooth="yes" name="n19"/>
      <point x="451" y="607.333"/>
      <point x="380.667" y="632.333"/>
      <point x="350" y="632.333" type="curve" smooth="yes" name="n22"/>
      <point x="280" y="632.333"/>
      <point x="202" y="538.667"/>
      <point x="202" y="424.333" type="curve" smooth="yes" name="n25"/>
      <point x="202" y="324"/>
      <point x="271.333" y="291.333"/>
      <point x="306" y="291.333" type="curve" smooth="yes" name="n28"/>
      <point x="373.333" y="291.333"/>
      <point x="422.333" y="339"/>
      <point x="432" y="349" type="curve"/>
      <point x="439.667" y="390.667"/>
      <point x="451" y="433"/>
    </contour>
  </outline>
</glyph>
<glyph name="semicolon" format="2">
  <advance width="304"/>
  <unicode hex="003B"/>
  <outline>
    <contour>
      <point x="247.667" y="418.333" type="curve" smooth="yes" name="n00"/>
      <point x="247.667" y="375.333"/>
      <point x="212.667" y="340.667"/>
      <point x="169.667" y="340.667" type="curve" smooth="yes" name="n03"/>
      <point x="126.667" y="340.667"/>
      <point x="91.3333" y="375.333"/>
      <point x="91.3333" y="418.333" type="curve" smooth="yes" name="n06"/>
      <point x="91.3333" y="461.333"/>
      <point x="126.667" y="496.667"/>
      <point x="169.667" y="496.667" type="curve" smooth="yes" name="n09"/>
      <point x="212.667" y="496.667"/>
      <point x="247.667" y="461.333"/>
    </contour>
    <contour>
      <point x="186.333" y="72" type="curve" smooth="yes" name="n12"/>
      <point x="186.333" y="-43.3333" name="hr01"/>
      <point x="56.6667" y="-165.333"/>
      <point x="-55" y="-174" type="curve"/>
      <point x="-46.6667" y="-129.333" type="line"/>
      <point x="30" y="-116"/>
      <point x="84.3333" y="-72"/>
      <point x="97.3333" y="7" type="curve" name="n19"/>
      <point x="35.6667" y="7" type="line"/>
      <point x="24.6667" y="18"/>
      <point x="19" y="34"/>
      <point x="19" y="49.6667" type="curve" smooth="yes" name="n23"/>
      <point x="19" y="98.6667"/>
      <point x="64" y="144"/>
      <point x="113.333" y="144" type="curve" smooth="yes" name="n26"/>
      <point x="158.667" y="144"/>
      <point x="186.333" y="118"/>
    </contour>
  </outline>
</glyph>
<glyph name="A" format="2">
  <advance width="700"/>
  <unicode hex="0041"/>
  <anchor x="415.333" y="746.667" name="top"/>
  <outline>
    <contour>
      <point x="-53" y="0" type="line" name="n00"/>
      <point x="-53" y="47.3333" type="line"/>
      <point x="4.33333" y="53.3333" type="line"/>
      <point x="374" y="686" type="line" name="n03"/>
      <point x="479.333" y="686" type="line"/>
      <point x="588" y="69.3333" type="line" smooth="yes"/>
      <point x="590" y="56.3333"/>
      <point x="593.298" y="53.0462"/>
      <point x="608" y="51.6667" type="curve" smooth="yes"/>
      <point x="654" y="47.3333" type="line"/>
      <point x="654" y="0" type="line"/>
      <point x="391" y="0" type="line"/>
      <point x="391" y="47.3333" type="line"/>
      <point x="439.556" y="52.5461" type="line" smooth="yes"/>
      <point x="450.433" y="53.7192"/>
      <point x="456.242" y="57.6155"/>
      <point x="456.06" y="65.8911" type="curve"/>
      <point x="456" y="68.6667" type="line"/>
      <point x="426.667" y="254.333" type="line" name="n18"/>
      <point x="225" y="254.333" type="line"/>
      <point x="125" y="68.6667" type="line" smooth="yes"/>
      <point x="123.816" y="66.471"/>
      <point x="122.896" y="63.7058"/>
      <point x="122.914" y="61.7502" type="curve"/>
      <point x="122.964" y="56.3487"/>
      <point x="128.263" y="53.5501"/>
      <point x="137.101" y="52.6667" type="curve" smooth="yes"/>
      <point x="190" y="47.3333" type="line"/>
      <point x="190" y="0" type="line"/>
    </contour>
    <contour>
      <point x="256" y="307" type="line"/>
      <point x="416.333" y="307" type="line" name="n30"/>
      <point x="380" y="523" type="line"/>
    </contour>
  </outline>
</glyph>
<glyph name="B" format="2">
  <advance width="634"/>
  <unicode hex="0042"/>
  <outline>
    <contour>
      <point x="602" y="535.017" type="curve" smooth="yes" name="n00"/>
      <point x="602" y="453.95"/>
      <point x="547.99" y="394.53"/>
      <point x="440.63" y="357.469" type="curve"/>
      <point x="537.342" y="341.079"/>
      <point x="582" y="299.169" name="hr01"/>
      <point x="582" y="224.783" type="curve" smooth="yes" name="n06"/>
      <point x="582" y="77.4983"/>
      <point x="475.024" y="0"/>
      <point x="271.667" y="0" type="curve" smooth="yes" name="n09"/>
      <point x="-16.3333" y="0" type="line"/>
      <point x="-16.3333" y="47.0222" type="line"/>
      <point x="46.6667" y="52.0024" type="line" smooth="yes"/>
      <point x="59.1392" y="52.9887"/>
      <point x="63.2787" y="56.7714"/>
      <point x="65.6667" y="68.9847" type="curve" smooth="yes"/>
      <point x="169.667" y="600.76" type="line"/>
      <point x="169.346" y="611.171"/>
      <point x="163.922" y="616.34"/>
      <point x="152.333" y="617.344" type="curve" smooth="yes"/>
      <point x="93.6667" y="622.409" type="line"/>
      <point x="93.6667" y="671" type="line"/>
      <point x="388.667" y="671" type="line" smooth="yes" name="n22"/>
      <point x="532.045" y="671"/>
      <point x="602" y="626.418" name="hr02"/>
    </contour>
    <contour>
      <point x="463" y="522.238" type="curve" smooth="yes" name="n25"/>
      <point x="463" y="586.861"/>
      <point x="420.126" y="620"/>
      <point x="336.464" y="620" type="curve" smooth="yes" name="n28"/>
      <point x="325.871" y="620"/>
      <point x="319.231" y="620.105"/>
      <point x="301.858" y="617.672" type="curve"/>
      <point x="254.333" y="373.661" type="line"/>
      <point x="268.929" y="372.333"/>
      <point x="280.333" y="372.333"/>
      <point x="285.569" y="372.333" type="curve" smooth="yes" name="n35"/>
      <point x="387.651" y="372.333"/>
      <point x="463" y="436.59"/>
    </contour>
    <contour>
      <point x="443.667" y="208.462" type="curve" smooth="yes" name="n38"/>
      <point x="443.667" y="284.06"/>
      <point x="398.088" y="321" name="hr03"/>
      <point x="304.667" y="321" type="curve" smooth="yes" name="n41"/>
      <point x="285.333" y="321"/>
      <point x="264.794" y="320.375"/>
      <point x="243" y="317.335" type="curve"/>
      <point x="191.475" y="53.6677" type="line"/>
      <point x="210.013" y="51.57"/>
      <point x="221.941" y="51.3333"/>
      <point x="237.487" y="51.3333" type="curve" smooth="yes" name="n48"/>
      <point x="366.927" y="51.3333"/>
      <point x="443.667" y="109.842"/>
    </contour>
  </outline>
</glyph>
<glyph name="E" format="2">
  <advance width="586"/>
  <unicode hex="0045"/>
  <anchor x="363.333" y="760" name="top"/>
  <outline>
    <contour>
      <point x="608.667" y="671" type="line" name="n00"/>
      <point x="577.333" y="515.667" type="line" name="n01"/>
      <point x="502.667" y="515.667" type="line"/>
      <point x="502.667" y="599.333" type="line" smooth="yes"/>
      <point x="502.667" y="610.667"/>
      <point x="493.333" y="614.333" name="hr01"/>
      <point x="481" y="614.333" type="curve" smooth="yes" name="n06"/>
      <point x="302.333" y="614.333" type="line"/>
      <point x="257" y="377.667" type="line"/>
      <point x="377" y="377.667" type="line" smooth="yes" name="n09"/>
      <point x="388.333" y="377.667"/>
      <point x="400.667" y="382.667"/>
      <point x="404" y="394" type="curve" smooth="yes"/>
      <point x="424.333" y="463" type="line"/>
      <point x="491.667" y="463" type="line"/>
      <point x="446.333" y="230.255" type="line"/>
      <point x="378" y="230.255" type="line" name="n16"/>
      <point x="388" y="304.269" type="line"/>
      <point x="388.154" y="314.111"/>
      <point x="377.341" y="320.333" name="hr02"/>
      <point x="367" y="320.333" type="curve" smooth="yes" name="n20"/>
      <point x="245.333" y="320.333" type="line"/>
      <point x="194.667" y="56.6667" type="line"/>
      <point x="415" y="56.6667" type="line" smooth="yes" name="n23"/>
      <point x="426.333" y="56.6667"/>
      <point x="438.968" y="63.2293"/>
      <point x="442" y="72.6667" type="curve" smooth="yes"/>
      <point x="473.667" y="171.333" type="line" name="n27"/>
      <point x="546.667" y="171.333" type="line"/>
      <point x="512.333" y="0" type="line" name="n29"/>
      <point x="-15" y="0" type="line"/>
      <point x="-15" y="47.3333" type="line"/>
      <point x="44.3333" y="52.3333" type="line" smooth="yes"/>
      <point x="58.6667" y="53.3333"/>
      <point x="64.5419" y="56.7473" name="hr04"/>
      <point x="67" y="69.3333" type="curve" smooth="yes"/>
      <point x="171" y="602" type="line"/>
      <point x="171.068" y="610.73"/>
      <point x="165.764" y="617.604"/>
      <point x="152.667" y="618.667" type="curve" smooth="yes"/>
      <point x="96" y="623.667" type="line"/>
      <point x="96" y="671" type="line"/>
    </contour>
  </outline>
</glyph>
<glyph name="F" format="2">
  <advance width="542"/>
  <unicode hex="0046"/>
  <outline>
    <contour>
      <point x="597.667" y="671" type="line" name="n00"/>
      <point x="565.333" y="504.667" type="line" name="n01"/>
      <point x="490" y="504.667" type="line"/>
      <point x="490" y="599.333" type="line" smooth="yes"/>
      <point x="490" y="610.667"/>
      <point x="480.333" y="614.333" name="hr01"/>
      <point x="468" y="614.333" type="curve" smooth="yes" name="n06"/>
      <point x="302.333" y="614.333" type="line"/>
      <point x="254.667" y="367.333" type="line" name="n08"/>
      <point x="368" y="367.333" type="line" smooth="yes" name="n09"/>
      <point x="379.333" y="367.333"/>
      <point x="391.667" y="371.667"/>
      <point x="394.667" y="383" type="curve" smooth="yes"/>
      <point x="414.333" y="453.667" type="line"/>
      <point x="482.667" y="453.667" type="line"/>
      <point x="437.333" y="220.333" type="line"/>
      <point x="368.333" y="220.333" type="line" name="n16"/>
      <point x="379" y="293.667" type="line" smooth="yes"/>
      <point x="380.287" y="304.007"/>
      <point x="368.333" y="309.667" name="hr02"/>
      <point x="357" y="309.667" type="curve" smooth="yes"/>
      <point x="243.333" y="309.667" type="line" name="n21"/>
      <point x="196" y="68.6667" type="line" smooth="yes"/>
      <point x="194" y="57.3333"/>
      <point x="200.667" y="53.3333"/>
      <point x="215" y="52.3333" type="curve"/>
      <point x="215" y="52.3333"/>
      <point x="252.494" y="49.7569"/>
      <point x="280" y="47.3333" type="curve"/>
      <point x="280" y="0" type="line"/>
      <point x="-15" y="0" type="line"/>
      <point x="-15" y="47.3333" type="line"/>
      <point x="7.50983" y="49.7289"/>
      <point x="42" y="52.3333"/>
      <point x="42" y="52.3333" type="curve"/>
      <point x="56.3333" y="53.3333"/>
      <point x="64" y="56.6667"/>
      <point x="67" y="69.3333" type="curve"/>
      <point x="171" y="602" type="line" smooth="yes"/>
      <point x="173" y="613.667"/>
      <point x="166.333" y="617.667"/>
      <point x="151.667" y="618.667" type="curve"/>
      <point x="151.667" y="618.667"/>
      <point x="117.431" y="621.271"/>
      <point x="95" y="623.667" type="curve"/>
      <point x="95" y="671" type="line"/>
    </contour>
  </outline>
</glyph>
<glyph name="G" format="2">
  <advance width="715"/>
  <unicode hex="0047"/>
  <outline>
    <contour>
      <point x="703" y="280" type="line"/>
      <point x="638.667" y="275" type="line" smooth="yes"/>
      <point x="628.333" y="274"/>
      <point x="623.333" y="269"/>
      <point x="621" y="258.667" type="curve"/>
      <point x="575.333" y="25" type="line"/>
      <point x="531.333" y="12.6667"/>
      <point x="430.333" y="-16"/>
      <point x="346" y="-16" type="curve" smooth="yes" name="n08"/>
      <point x="100" y="-16"/>
      <point x="48" y="160.667"/>
      <point x="48" y="268.667" type="curve" smooth="yes" name="n11"/>
      <point x="48" y="520"/>
      <point x="260.667" y="687"/>
      <point x="493" y="687" type="curve" smooth="yes" name="n14"/>
      <point x="565.333" y="687"/>
      <point x="613.333" y="675.667"/>
      <point x="693" y="651" type="curve"/>
      <point x="658" y="476" type="line"/>
      <point x="578.667" y="476" type="line"/>
      <point x="585.667" y="582" type="line" smooth="yes"/>
      <point x="586.667" y="595"/>
      <point x="575.333" y="602.333"/>
      <point x="562" y="606.667" type="curve" smooth="yes"/>
      <point x="551.667" y="610"/>
      <point x="517.667" y="626.333"/>
      <point x="481" y="626.333" type="curve" smooth="yes" name="n26"/>
      <point x="349" y="626.333"/>
      <point x="186" y="484.333"/>
      <point x="186" y="253.333" type="curve" smooth="yes" name="n29"/>
      <point x="186" y="91.6667"/>
      <point x="311.333" y="43.6667"/>
      <point x="366" y="43.6667" type="curve" smooth="yes" name="n32"/>
      <point x="396.667" y="43.6667"/>
      <point x="435.667" y="54"/>
      <point x="453" y="58.6667" type="curve"/>
      <point x="492" y="258.667" type="line" smooth="yes"/>
      <point x="494" y="270.333"/>
      <point x="489.333" y="274.667"/>
      <point x="472.667" y="275.667" type="curve"/>
      <point x="472.667" y="275.667"/>
      <point x="439.42" y="278.265"/>
      <point x="417" y="280" type="curve"/>
      <point x="417" y="328" type="line"/>
      <point x="703" y="328" type="line"/>
    </contour>
  </outline>
</glyph>
<glyph name="I" format="2">
  <advance width="341"/>
  <unicode hex="0049"/>
  <outline>
    <contour>
      <point x="384" y="623.667" type="line"/>
      <point x="316.667" y="618.667" type="line" smooth="yes"/>
      <point x="305.667" y="617.667"/>
      <point x="302.333" y="611.667"/>
      <point x="300" y="601.333" type="curve"/>
      <point x="196" y="68.6667" type="line" smooth="yes"/>
      <point x="194" y="58"/>
      <point x="198" y="53.3333"/>
      <point x="212.667" y="52.3333" type="curve"/>
      <point x="212.667" y="52.3333"/>
      <point x="247.751" y="49.7571"/>
      <point x="274" y="47.3333" type="curve"/>
      <point x="274" y="0" type="line"/>
      <point x="-15" y="0" type="line"/>
      <point x="-15" y="47.3333" type="line"/>
      <point x="9.49476" y="49.0763"/>
      <point x="45.3333" y="51.6667"/>
      <point x="45.3333" y="51.6667" type="curve"/>
      <point x="59.3333" y="52.6667"/>
      <point x="65" y="56"/>
      <point x="67" y="69.3333" type="curve"/>
      <point x="171" y="602" type="line"/>
      <point x="173.667" y="613.667"/>
      <point x="167" y="617.667"/>
      <point x="152.667" y="618.667" type="curve"/>
      <point x="152.667" y="618.667"/>
      <point x="118.431" y="621.271"/>
      <point x="96" y="623.667" type="curve"/>
      <point x="96" y="671" type="line"/>
      <point x="384" y="671" type="line"/>
    </contour>
  </outline>
</glyph>
<glyph name="K" format="2">
  <advance width="684"/>
  <unicode hex="004B"/>
  <outline>
    <contour>
      <point x="720" y="623.667" type="line"/>
      <point x="633.333" y="615.667" type="line"/>
      <point x="374" y="367.333" type="line"/>
      <point x="513" y="101.667" type="line" smooth="yes"/>
      <point x="536.667" y="56"/>
      <point x="545.667" y="46.6667"/>
      <point x="578" y="46" type="curve" name="n06"/>
      <point x="588.667" y="46"/>
      <point x="626.667" y="49"/>
      <point x="634" y="49.3333" type="curve"/>
      <point x="634" y="2" type="line" name="n10"/>
      <point x="599.667" y="-8.33333"/>
      <point x="559.333" y="-16" name="hr02"/>
      <point x="526" y="-16" type="curve" smooth="yes" name="n13"/>
      <point x="452.667" y="-16"/>
      <point x="425.667" y="4.66667"/>
      <point x="396" y="60.6667" type="curve" smooth="yes"/>
      <point x="275" y="292.333" type="line"/>
      <point x="239.333" y="292.333" type="line"/>
      <point x="195" y="68.6667" type="line"/>
      <point x="193" y="56.6667"/>
      <point x="199.333" y="52.6667"/>
      <point x="212.333" y="51.6667" type="curve"/>
      <point x="212.333" y="51.6667"/>
      <point x="245.87" y="49.0515"/>
      <point x="266.333" y="47.3333" type="curve"/>
      <point x="266.333" y="0" type="line"/>
      <point x="-16" y="0" type="line"/>
      <point x="-16" y="47.3333" type="line"/>
      <point x="5.32637" y="49.0109"/>
      <point x="45.3333" y="51.6667"/>
      <point x="45.3333" y="51.6667" type="curve"/>
      <point x="56.3333" y="52"/>
      <point x="64" y="56.6667"/>
      <point x="66" y="69.3333" type="curve"/>
      <point x="171" y="602" type="line"/>
      <point x="173.667" y="613.667"/>
      <point x="168.333" y="618.333"/>
      <point x="156" y="619.333" type="curve" name="n38"/>
      <point x="156" y="619.333"/>
      <point x="123.928" y="621.256"/>
      <point x="102" y="623.667" type="curve"/>
      <point x="102" y="671" type="line" name="n42"/>
      <point x="377.333" y="671" type="line"/>
      <point x="377.333" y="623.667" type="line"/>
      <point x="354.491" y="621.256"/>
      <point x="321" y="619.333"/>
      <point x="321" y="619.333" type="curve"/>
      <point x="310" y="618.333"/>
      <point x="303" y="614.333"/>
      <point x="300" y="601.333" type="curve"/>
      <point x="254.333" y="369.333" type="line"/>
      <point x="265.333" y="369.333" type="line"/>
      <point x="504" y="602.667" type="line" smooth="yes"/>
      <point x="513.333" y="611.333"/>
      <point x="509.667" y="618.333"/>
      <point x="495.667" y="619.333" type="curve"/>
      <point x="495.667" y="619.333"/>
      <point x="459.722" y="621.964"/>
      <point x="439.667" y="623.667" type="curve"/>
      <point x="439.667" y="671" type="line"/>
      <point x="720" y="671" type="line"/>
    </contour>
  </outline>
</glyph>
<glyph name="O" format="2">
  <advance width="737"/>
  <unicode hex="004F"/>
  <anchor x="430" y="760" name="top"/>
  <outline>
    <contour>
      <point x="719" y="417" type="curve" smooth="yes" name="n00"/>
      <point x="719" y="171.66"/>
      <point x="552.937" y="-16"/>
      <point x="331.393" y="-16" type="curve" smooth="yes" name="n03"/>
      <point x="160.153" y="-16"/>
      <point x="48" y="96.1003"/>
      <point x="48" y="275.9" type="curve" smooth="yes" name="n06"/>
      <point x="48" y="500.033"/>
      <point x="222.276" y="687"/>
      <point x="436.998" y="687" type="curve" smooth="yes" name="n09"/>
      <point x="602.464" y="687"/>
      <point x="719" y="575.98"/>
    </contour>
    <contour>
      <point x="577" y="406.549" type="curve" smooth="yes" name="n12"/>
      <point x="577" y="538.057"/>
      <point x="511.929" y="630.333"/>
      <point x="426.576" y="630.333" type="curve" smooth="yes" name="n15"/>
      <point x="306.158" y="630.333"/>
      <point x="190" y="446.712"/>
      <point x="190" y="268.351" type="curve" smooth="yes" name="n18"/>
      <point x="190" y="135.256"/>
      <point x="254.682" y="42.6667"/>
      <point x="339.122" y="42.6667" type="curve" smooth="yes" name="n21"/>
      <point x="459.084" y="42.6667"/>
      <point x="577" y="229.521"/>
    </contour>
  </outline>
</glyph>
<glyph name="R" format="2">
  <advance width="669"/>
  <unicode hex="0052"/>
  <outline>
    <contour>
      <point x="643" y="2" type="line" name="n00"/>
      <point x="614" y="-10.6667"/>
      <point x="587.667" y="-16" name="hr01"/>
      <point x="553.395" y="-16" type="curve" smooth="yes" name="n03"/>
      <point x="433.667" y="-16"/>
      <point x="406.245" y="51.1897"/>
      <point x="389.01" y="144.063" type="curve" smooth="yes"/>
      <point x="369.081" y="250.396"/>
      <point x="336.473" y="293.333"/>
      <point x="276.943" y="293.333" type="curve" smooth="yes"/>
      <point x="240.546" y="293.333" type="line" name="n10"/>
      <point x="198" y="68.6667" type="line"/>
      <point x="197.834" y="58.4287"/>
      <point x="200.68" y="53.5205"/>
      <point x="215" y="52.3333" type="curve" smooth="yes"/>
      <point x="275" y="47.3333" type="line"/>
      <point x="275" y="0" type="line"/>
      <point x="-13" y="0" type="line"/>
      <point x="-13" y="47.3333" type="line"/>
      <point x="45.3333" y="51.6667" type="line" smooth="yes"/>
      <point x="57.6688" y="52.6402"/>
      <point x="66.5511" y="56.5483"/>
      <point x="69" y="69.3333" type="curve" smooth="yes"/>
      <point x="171" y="602" type="line"/>
      <point x="171.077" y="611.831"/>
      <point x="167.655" y="617.512"/>
      <point x="153.333" y="618.667" type="curve" smooth="yes"/>
      <point x="96" y="623.667" type="line"/>
      <point x="96" y="671" type="line"/>
      <point x="378" y="671" type="line" smooth="yes" name="n29"/>
      <point x="504.333" y="671"/>
      <point x="609" y="634"/>
      <point x="609" y="520.456" type="curve" smooth="yes" name="n32"/>
      <point x="609" y="415.667"/>
      <point x="520.333" y="349.333"/>
      <point x="407.667" y="317" type="curve"/>
      <point x="469.19" y="289.785"/>
      <point x="491.332" y="256.39"/>
      <point x="515" y="156" type="curve" smooth="yes"/>
      <point x="531.985" y="84.0072"/>
      <point x="547.333" y="47"/>
      <point x="643" y="47" type="curve" name="n41"/>
    </contour>
    <contour>
      <point x="468" y="494.832" type="curve" smooth="yes" name="n42"/>
      <point x="468" y="597.431"/>
      <point x="384.153" y="615.854"/>
      <point x="335.611" y="615.884" type="curve" smooth="yes" name="n45"/>
      <point x="322.897" y="615.891"/>
      <point x="312.038" y="614.526"/>
      <point x="302.262" y="613.667" type="curve"/>
      <point x="252.667" y="350.333" type="line" name="n49"/>
      <point x="278.885" y="350.222" type="line" smooth="yes"/>
      <point x="383.559" y="350.102"/>
      <point x="468" y="392.778"/>
    </contour>
  </outline>
  <guideline angle="90" name="330_v" x="310" y="0"/>
</glyph>
<glyph name="Z" format="2">
  <advance width="590"/>
  <unicode hex="005A"/>
  <outline>
    <contour>
      <point x="623.667" y="671" type="line"/>
      <point x="614" y="622.667" type="line"/>
      <point x="146.333" y="59" type="line"/>
      <point x="401" y="59" type="line" smooth="yes" name="n03"/>
      <point x="412.333" y="59"/>
      <point x="424.744" y="64.9785"/>
      <point x="428" y="75.6667" type="curve"/>
      <point x="462" y="199.667" type="line" name="n07"/>
      <point x="540.667" y="199.667" type="line"/>
      <point x="502.333" y="0" type="line" name="n09"/>
      <point x="-20.6667" y="0" type="line"/>
      <point x="-11" y="47.3333" type="line"/>
      <point x="454.667" y="612.333" type="line"/>
      <point x="238" y="612.333" type="line" smooth="yes" name="n13"/>
      <point x="226.667" y="612.333"/>
      <point x="214.667" y="607.667"/>
      <point x="211.333" y="596.667" type="curve" smooth="yes"/>
      <point x="181" y="496.667" type="line" name="hr02"/>
      <point x="102" y="496.667" type="line" name="n18"/>
      <point x="136.667" y="671" type="line" name="n19"/>
    </contour>
  </outline>
</glyph>
<glyph name="underscore" format="2">
  <advance width="328"/>
  <unicode hex="005F"/>
  <outline>
    <contour>
      <point x="264.667" y="-86" type="line" name="n00"/>
      <point x="250" y="-162" type="line" name="n01"/>
      <point x="-79.3333" y="-162" type="line"/>
      <point x="-63.3333" y="-86" type="line"/>
    </contour>
  </outline>
</glyph>
<glyph name="e" format="2">
  <advance width="464"/>
  <unicode hex="0065"/>
  <anchor x="292" y="570" name="top"/>
  <outline>
    <contour>
      <point x="447.667" y="392.226" type="curve" smooth="yes" name="n00"/>
      <point x="447.667" y="306.56"/>
      <point x="323.637" y="231.824"/>
      <point x="161" y="219.611" type="curve"/>
      <point x="158.962" y="207.132"/>
      <point x="157.667" y="189.42"/>
      <point x="157.667" y="173.837" type="curve" smooth="yes" name="n06"/>
      <point x="157.667" y="98.4064"/>
      <point x="187.901" y="54.6667"/>
      <point x="240.89" y="54.6667" type="curve" smooth="yes" name="n09"/>
      <point x="279.151" y="54.6667"/>
      <point x="315.981" y="77.4944"/>
      <point x="424.667" y="171.886" type="curve"/>
      <point x="424.667" y="87.3886" type="line"/>
      <point x="363.577" y="27.8055"/>
      <point x="274.547" y="-12"/>
      <point x="197.588" y="-12" type="curve" smooth="yes" name="n16"/>
      <point x="97.1462" y="-12"/>
      <point x="32.6667" y="55.9562"/>
      <point x="32.6667" y="173.827" type="curve" smooth="yes" name="n19"/>
      <point x="32.6667" y="341.479"/>
      <point x="163.114" y="497.667"/>
      <point x="308.759" y="497.667" type="curve" smooth="yes" name="n22"/>
      <point x="387.557" y="497.667"/>
      <point x="447.667" y="451.883"/>
    </contour>
    <contour>
      <point x="331.333" y="399.476" type="curve" smooth="yes" name="n25"/>
      <point x="331.333" y="427.138"/>
      <point x="314.889" y="445.667"/>
      <point x="290.585" y="445.667" type="curve" smooth="yes" name="n28"/>
      <point x="241.836" y="445.667"/>
      <point x="193.359" y="375.512"/>
      <point x="167" y="267.035" type="curve"/>
      <point x="258.077" y="283.658"/>
      <point x="331.333" y="341.999"/>
    </contour>
  </outline>
</glyph>
<glyph name="g" format="2">
  <advance width="470"/>
  <unicode hex="0067"/>
  <outline>
    <contour>
      <point x="517" y="417.333" type="line" name="n00"/>
      <point x="425" y="417.333" type="line"/>
      <point x="432.307" y="399.143"/>
      <point x="436.667" y="374.822"/>
      <point x="436.667" y="350.837" type="curve" smooth="yes"/>
      <point x="436.667" y="240.201"/>
      <point x="345.085" y="160.333"/>
      <point x="216.559" y="160.333" type="curve" name="n07"/>
      <point x="210.332" y="144.701"/>
      <point x="206.208" y="126.152"/>
      <point x="206.208" y="113.711" type="curve" smooth="yes"/>
      <point x="206.208" y="110.902"/>
      <point x="206.423" y="108.492"/>
      <point x="206.845" y="106.538" type="curve"/>
      <point x="340" y="46.4458" type="line" smooth="yes"/>
      <point x="418.072" y="11.2153"/>
      <point x="444.667" y="-14.5111"/>
      <point x="444.667" y="-57.2467" type="curve" smooth="yes"/>
      <point x="444.667" y="-149.296"/>
      <point x="317.307" y="-229"/>
      <point x="174.465" y="-229" type="curve" smooth="yes" name="n20"/>
      <point x="51.0551" y="-229"/>
      <point x="-31" y="-169.515"/>
      <point x="-31" y="-84.6863" type="curve" smooth="yes" name="n23"/>
      <point x="-31" y="-19.9054"/>
      <point x="16.826" y="30.328"/>
      <point x="103.952" y="59.3936" type="curve"/>
      <point x="103.295" y="63.1072"/>
      <point x="102.959" y="67.2288"/>
      <point x="102.948" y="71.6981" type="curve" smooth="yes"/>
      <point x="102.866" y="104.941"/>
      <point x="120.091" y="149.468"/>
      <point x="141.748" y="172" type="curve"/>
      <point x="78.7904" y="201.012"/>
      <point x="48.6667" y="242.481" name="hr01"/>
      <point x="48.6667" y="303.005" type="curve" smooth="yes" name="n35"/>
      <point x="48.6667" y="409.884"/>
      <point x="142.671" y="498"/>
      <point x="258.848" y="498" type="curve" smooth="yes" name="n38"/>
      <point x="296.707" y="498"/>
      <point x="340.74" y="488.211"/>
      <point x="374.333" y="472.667" type="curve" name="hr02"/>
      <point x="517" y="472.667" type="line" name="n42"/>
    </contour>
    <contour>
      <point x="313.333" y="359.839" type="curve" smooth="yes"/>
      <point x="313.333" y="408.866"/>
      <point x="305.74" y="449.333" name="hr03"/>
      <point x="273.687" y="449.333" type="curve" smooth="yes" name="n46"/>
      <point x="225.691" y="449.333"/>
      <point x="172.667" y="358.821"/>
      <point x="172.667" y="285.296" type="curve" smooth="yes" name="n49"/>
      <point x="172.667" y="228.703"/>
      <point x="187.404" y="204"/>
      <point x="217.97" y="204" type="curve" smooth="yes" name="n52"/>
      <point x="270.492" y="204"/>
      <point x="313.333" y="275.861"/>
    </contour>
    <contour>
      <point x="323.667" y="-84.5095" type="curve" smooth="yes"/>
      <point x="323.667" y="-57.3191"/>
      <point x="308.311" y="-38.2176"/>
      <point x="274.467" y="-23.2691" type="curve" smooth="yes"/>
      <point x="158.041" y="28.2008" type="line"/>
      <point x="115.671" y="14.0128"/>
      <point x="92.3333" y="-17.1609"/>
      <point x="92.3333" y="-61.8611" type="curve" smooth="yes" name="n62"/>
      <point x="92.3333" y="-127.16"/>
      <point x="141.664" y="-175"/>
      <point x="210.492" y="-175" type="curve" smooth="yes" name="n65"/>
      <point x="273.202" y="-175"/>
      <point x="323.667" y="-133.676"/>
    </contour>
  </outline>
</glyph>
<glyph name="i" format="2">
  <advance width="295"/>
  <unicode hex="0069"/>
  <outline>
    <contour>
      <point x="283" y="655.667" type="curve" smooth="yes" name="n00"/>
      <point x="283" y="616.105"/>
      <point x="251.107" y="585"/>
      <point x="210.412" y="585" type="curve" smooth="yes" name="n03"/>
      <point x="170.285" y="585"/>
      <point x="139.333" y="615.385"/>
      <point x="139.333" y="654.617" type="curve" smooth="yes" name="n06"/>
      <point x="139.333" y="694.401"/>
      <point x="171.013" y="725.667"/>
      <point x="211.335" y="725.667" type="curve" smooth="yes" name="n09"/>
      <point x="251.335" y="725.667"/>
      <point x="283" y="694.727"/>
    </contour>
    <contour>
      <point x="293" y="31" type="line"/>
      <point x="238.396" y="2.86444"/>
      <point x="183.194" y="-12" name="n14"/>
      <point x="131.135" y="-12" type="curve" smooth="yes"/>
      <point x="81.4092" y="-12"/>
      <point x="48.9708" y="17.3894"/>
      <point x="47.7676" y="64.7872" type="curve" smooth="yes"/>
      <point x="47.5857" y="72.5592"/>
      <point x="48.3353" y="80.5444"/>
      <point x="50" y="89.3333" type="curve" smooth="yes"/>
      <point x="113.333" y="423.667" type="line"/>
      <point x="27.3333" y="432.667" type="line"/>
      <point x="27.3333" y="465.667" type="line"/>
      <point x="187.443" y="498" type="line" name="n25"/>
      <point x="247.475" y="498" type="line"/>
      <point x="171.14" y="97.3333" type="line" smooth="yes"/>
      <point x="169.788" y="90.2446"/>
      <point x="168.986" y="84.1327"/>
      <point x="168.997" y="78.9212" type="curve" smooth="yes"/>
      <point x="169.023" y="60.7164"/>
      <point x="178.505" y="49.6667"/>
      <point x="194.062" y="49.6667" type="curve" smooth="yes"/>
      <point x="212.758" y="49.6667"/>
      <point x="264.091" y="65.5533"/>
      <point x="293" y="80.3333" type="curve"/>
    </contour>
  </outline>
</glyph>
<glyph name="n" format="2">
  <advance width="562"/>
  <unicode hex="006E"/>
  <anchor x="305" y="563" name="top"/>
  <outline>
    <contour>
      <point x="558.167" y="22" type="line"/>
      <point x="529.333" y="8.66667"/>
      <point x="454.333" y="-12" name="n02"/>
      <point x="404.663" y="-12" type="curve" smooth="yes"/>
      <point x="374.709" y="-12"/>
      <point x="314.144" y="-4.84617"/>
      <point x="314.143" y="38.6127" type="curve" smooth="yes"/>
      <point x="314.142" y="42.0634"/>
      <point x="314.524" y="45.7432"/>
      <point x="315.333" y="49.6667" type="curve" smooth="yes"/>
      <point x="376.333" y="355.333" type="line" smooth="yes"/>
      <point x="378.192" y="364.481"/>
      <point x="379.252" y="373.66"/>
      <point x="379.252" y="381.163" type="curve" smooth="yes" name="n13"/>
      <point x="379.252" y="411.392"/>
      <point x="362.799" y="421.667"/>
      <point x="346.026" y="421.667" type="curve" smooth="yes" name="n16"/>
      <point x="314.333" y="421.667"/>
      <point x="256.333" y="382.333"/>
      <point x="213.667" y="338" type="curve"/>
      <point x="143.333" y="0" type="line" name="n20"/>
      <point x="23.6667" y="0" type="line"/>
      <point x="111.333" y="425" type="line"/>
      <point x="27.3333" y="433.333" type="line"/>
      <point x="27.3333" y="465.667" type="line"/>
      <point x="187" y="498" type="line"/>
      <point x="246.333" y="498" type="line"/>
      <point x="232" y="428.333" type="line"/>
      <point x="279.333" y="465.333"/>
      <point x="344.333" y="498"/>
      <point x="403.695" y="498" type="curve" smooth="yes" name="n30"/>
      <point x="476.48" y="498"/>
      <point x="507.994" y="468.747"/>
      <point x="507.994" y="410.141" type="curve" smooth="yes" name="n33"/>
      <point x="507.994" y="397.459"/>
      <point x="506.514" y="383.411"/>
      <point x="503.667" y="368" type="curve" smooth="yes"/>
      <point x="450" y="86.6667" type="line" smooth="yes"/>
      <point x="449.306" y="82.8634"/>
      <point x="448.986" y="79.4197"/>
      <point x="448.987" y="76.3025" type="curve" smooth="yes"/>
      <point x="448.987" y="50.85"/>
      <point x="471.202" y="46.6667"/>
      <point x="483.451" y="46.6667" type="curve" smooth="yes"/>
      <point x="500.333" y="46.6667"/>
      <point x="529" y="54.6667"/>
      <point x="556.833" y="65.6667" type="curve"/>
    </contour>
  </outline>
</glyph>
<glyph name="p" format="2">
  <advance width="525"/>
  <unicode hex="0070"/>
  <outline>
    <contour>
      <point x="493.333" y="307.791" type="curve" smooth="yes" name="n00"/>
      <point x="493.333" y="133.189"/>
      <point x="358.047" y="-12"/>
      <point x="198.559" y="-12" type="curve" smooth="yes" name="n03"/>
      <point x="169.831" y="-12"/>
      <point x="147.847" y="-6.54267"/>
      <point x="131" y="-0.666667" type="curve"/>
      <point x="100.333" y="-153" type="line"/>
      <point x="99.9222" y="-156.816" type="line" smooth="yes"/>
      <point x="99.043" y="-164.939"/>
      <point x="106.174" y="-169.964"/>
      <point x="117" y="-170.333" type="curve"/>
      <point x="184" y="-176" type="line"/>
      <point x="184" y="-218.667" type="line"/>
      <point x="-96" y="-218.667" type="line"/>
      <point x="-96" y="-176" type="line"/>
      <point x="-38.6667" y="-171" type="line" smooth="yes"/>
      <point x="-28.1898" y="-170.069"/>
      <point x="-21.486" y="-164.001"/>
      <point x="-19.3333" y="-153" type="curve" smooth="yes"/>
      <point x="93.6667" y="424.333" type="line"/>
      <point x="10.3333" y="433.333" type="line"/>
      <point x="10.3333" y="465.667" type="line"/>
      <point x="170.667" y="498" type="line"/>
      <point x="228.333" y="498" type="line"/>
      <point x="219.667" y="452.667" type="line"/>
      <point x="265.755" y="482.379"/>
      <point x="310.517" y="498"/>
      <point x="349.437" y="498" type="curve" smooth="yes" name="n28"/>
      <point x="435.381" y="498"/>
      <point x="493.333" y="421.864"/>
    </contour>
    <contour>
      <point x="367" y="302.401" type="curve" smooth="yes" name="n31"/>
      <point x="367" y="385.2"/>
      <point x="343.966" y="431"/>
      <point x="304.273" y="431" type="curve" smooth="yes" name="n34"/>
      <point x="278.679" y="431"/>
      <point x="242.235" y="410.682"/>
      <point x="204.667" y="375.667" type="curve"/>
      <point x="144" y="67" type="line"/>
      <point x="163.853" y="54.0985"/>
      <point x="192.481" y="39"/>
      <point x="218.062" y="39" type="curve" smooth="yes" name="n41"/>
      <point x="292.384" y="39"/>
      <point x="367" y="171.936"/>
    </contour>
  </outline>
</glyph>
<glyph name="q" format="2">
  <advance width="553"/>
  <unicode hex="0071"/>
  <outline>
    <contour>
      <point x="522.333" y="498" type="line"/>
      <point x="393" y="-153" type="line"/>
      <point x="392.572" y="-162.499"/>
      <point x="396.182" y="-169.446"/>
      <point x="407" y="-170.333" type="curve" smooth="yes"/>
      <point x="475.667" y="-176" type="line"/>
      <point x="475.667" y="-218.667" type="line" name="n06"/>
      <point x="195.667" y="-218.667" type="line"/>
      <point x="195.667" y="-176" type="line"/>
      <point x="254" y="-170.333" type="line" smooth="yes"/>
      <point x="264.856" y="-169.284"/>
      <point x="271.548" y="-163.615"/>
      <point x="273.667" y="-153" type="curve" smooth="yes"/>
      <point x="310.667" y="32.3333" type="line"/>
      <point x="265.131" y="1.73683"/>
      <point x="221.827" y="-13.3333"/>
      <point x="179.459" y="-13.3333" type="curve" smooth="yes" name="n16"/>
      <point x="88.1006" y="-13.3333"/>
      <point x="33.3333" y="53.3275"/>
      <point x="33.3333" y="168.248" type="curve" smooth="yes" name="n19"/>
      <point x="33.3333" y="346.375"/>
      <point x="164.915" y="498"/>
      <point x="323.911" y="498" type="curve" smooth="yes" name="n22"/>
      <point x="359.146" y="498"/>
      <point x="393.091" y="490.257"/>
      <point x="419" y="476.333" type="curve"/>
      <point x="437.667" y="498" type="line"/>
    </contour>
    <contour>
      <point x="381" y="389.333" type="line"/>
      <point x="381.151" y="408.637"/>
      <point x="355.588" y="446"/>
      <point x="342.667" y="446" type="curve" smooth="yes" name="n30"/>
      <point x="241.167" y="446"/>
      <point x="157" y="319.881"/>
      <point x="157" y="168.098" type="curve" smooth="yes" name="n33"/>
      <point x="157" y="92.9063"/>
      <point x="180.585" y="53.6667"/>
      <point x="225.333" y="53.6667" type="curve" smooth="yes" name="n36"/>
      <point x="259.903" y="53.6667"/>
      <point x="293.68" y="77.9844"/>
      <point x="326.333" y="114.333" type="curve"/>
    </contour>
  </outline>
</glyph>
<glyph name="v" format="2">
  <advance width="492"/>
  <unicode hex="0076"/>
  <outline>
    <contour>
      <point x="498.333" y="435.333" type="curve" smooth="yes"/>
      <point x="498.333" y="401.667"/>
      <point x="483.333" y="372.667"/>
      <point x="476.667" y="360.333" type="curve" smooth="yes"/>
      <point x="387" y="196.333"/>
      <point x="264.667" y="58"/>
      <point x="201" y="-12" type="curve" name="n06"/>
      <point x="116.333" y="-12" type="line"/>
      <point x="132.333" y="20.3333"/>
      <point x="139.333" y="45.3333"/>
      <point x="138.333" y="67.3333" type="curve"/>
      <point x="138.333" y="75.3333"/>
      <point x="117.333" y="355.333"/>
      <point x="96.6667" y="408.667" type="curve" smooth="yes"/>
      <point x="90.6667" y="423.333"/>
      <point x="88" y="426.667"/>
      <point x="72.3333" y="426.667" type="curve"/>
      <point x="72.3333" y="426.667"/>
      <point x="31.161" y="429.005"/>
      <point x="2.66667" y="430" type="curve"/>
      <point x="2.66667" y="463.667" type="line"/>
      <point x="117.667" y="498" type="line"/>
      <point x="181.667" y="497"/>
      <point x="214.667" y="473.333"/>
      <point x="219.667" y="424.333" type="curve" smooth="yes"/>
      <point x="248" y="149.667" type="line"/>
      <point x="303.333" y="223.333"/>
      <point x="348" y="280"/>
      <point x="375.667" y="348.333" type="curve"/>
      <point x="350.667" y="473.333" type="line"/>
      <point x="366.333" y="488.333"/>
      <point x="393.667" y="498"/>
      <point x="422.667" y="498" type="curve" smooth="yes"/>
      <point x="468" y="498"/>
      <point x="498.333" y="473.333"/>
    </contour>
  </outline>
</glyph>
<glyph name="w" format="2">
  <advance width="734"/>
  <unicode hex="0077"/>
  <outline>
    <contour>
      <point x="738.667" y="436.333" type="curve" smooth="yes"/>
      <point x="738.667" y="325"/>
      <point x="490" y="16"/>
      <point x="466.667" y="-12" type="curve" name="n03"/>
      <point x="380" y="-12" type="line"/>
      <point x="359.333" y="292.333" type="line"/>
      <point x="305" y="181.667"/>
      <point x="239.667" y="65.3333"/>
      <point x="189" y="-12" type="curve"/>
      <point x="95.6667" y="-12" type="line"/>
      <point x="106.333" y="13.6667" type="line"/>
      <point x="79" y="424" type="line"/>
      <point x="3.33333" y="432" type="line"/>
      <point x="3.33333" y="462.667" type="line"/>
      <point x="133" y="498" type="line"/>
      <point x="196" y="489" type="line"/>
      <point x="216" y="163" type="line"/>
      <point x="264" y="254.333"/>
      <point x="317.667" y="370"/>
      <point x="363" y="473.667" type="curve"/>
      <point x="464" y="484.667" type="line"/>
      <point x="488.333" y="123" type="line"/>
      <point x="539.667" y="193.667"/>
      <point x="596.667" y="281.333"/>
      <point x="632" y="360" type="curve"/>
      <point x="600" y="469.667" type="line"/>
      <point x="605.667" y="476.667"/>
      <point x="626" y="498"/>
      <point x="664.667" y="498" type="curve" smooth="yes"/>
      <point x="716.667" y="498"/>
      <point x="738.667" y="453"/>
    </contour>
  </outline>
</glyph>
<glyph name="z" format="2">
  <advance width="475"/>
  <unicode hex="007A"/>
  <outline>
    <contour>
      <point x="482" y="469.333" type="line"/>
      <point x="149" y="85.3194" type="line"/>
      <point x="219" y="101.36" type="line"/>
      <point x="255.946" y="79.2663"/>
      <point x="284.027" y="68.5938"/>
      <point x="302.806" y="68.5938" type="curve" smooth="yes" name="n05"/>
      <point x="324.568" y="68.5938"/>
      <point x="355.864" y="83.1164"/>
      <point x="365.667" y="99.0171" type="curve"/>
      <point x="307.333" y="162.216" type="line"/>
      <point x="319.526" y="181.381"/>
      <point x="355.387" y="200.333"/>
      <point x="379.367" y="200.333" type="curve" smooth="yes"/>
      <point x="410.985" y="200.333"/>
      <point x="437.667" y="166.631"/>
      <point x="437.667" y="127.239" type="curve" smooth="yes"/>
      <point x="437.667" y="57.4113"/>
      <point x="353.918" y="-11.3333"/>
      <point x="271.135" y="-11.3333" type="curve" smooth="yes" name="n18"/>
      <point x="238.894" y="-11.3333"/>
      <point x="200.35" y="-0.278501"/>
      <point x="169.662" y="17.7661" type="curve" smooth="yes"/>
      <point x="154.911" y="26.3653"/>
      <point x="141.235" y="31.1302"/>
      <point x="131.518" y="31.1302" type="curve" smooth="yes"/>
      <point x="120.82" y="31.1302"/>
      <point x="112.212" y="30.0086"/>
      <point x="107.333" y="23.7783" type="curve"/>
      <point x="74.3333" y="-34.6667" type="line"/>
      <point x="-16" y="14.4171" type="line"/>
      <point x="317" y="400" type="line"/>
      <point x="245.667" y="385" type="line"/>
      <point x="213.616" y="405.792"/>
      <point x="188.912" y="416"/>
      <point x="170.176" y="416" type="curve" smooth="yes" name="n34"/>
      <point x="147.313" y="416"/>
      <point x="113.263" y="401.225"/>
      <point x="104.667" y="387" type="curve"/>
      <point x="161.667" y="323.667" type="line"/>
      <point x="151.715" y="306.279"/>
      <point x="114.556" y="286.667" name="hr01"/>
      <point x="90.4955" y="286.667" type="curve" smooth="yes" name="n41"/>
      <point x="59.3844" y="286.667"/>
      <point x="33" y="319.358"/>
      <point x="33" y="358.785" type="curve" smooth="yes"/>
      <point x="33" y="427.994"/>
      <point x="114.404" y="498"/>
      <point x="194.42" y="498" type="curve" smooth="yes" name="n47"/>
      <point x="232.427" y="498"/>
      <point x="267.733" y="482.925"/>
      <point x="300.385" y="467.033" type="curve" smooth="yes"/>
      <point x="322.949" y="456.082"/>
      <point x="332.382" y="452.667"/>
      <point x="340.242" y="452.667" type="curve" smooth="yes"/>
      <point x="346.089" y="452.667"/>
      <point x="352.796" y="455.071"/>
      <point x="358.333" y="459" type="curve"/>
      <point x="383.667" y="519.667" type="line"/>
    </contour>
  </outline>
</glyph>
<glyph name="bar" format="2">
  <advance width="382"/>
  <unicode hex="007C"/>
  <outline>
    <contour>
      <point x="230.333" y="-258" type="line" name="n00"/>
      <point x="152.667" y="-258" type="line" name="n01"/>
      <point x="152.667" y="796" type="line" name="n02"/>
      <point x="230.333" y="796" type="line"/>
    </contour>
  </outline>
</glyph>
<glyph name="asciitilde" format="2">
  <advance width="833"/>
  <unicode hex="007E"/>
  <outline>
    <contour>
      <point x="749.333" y="302" type="line"/>
      <point x="669.667" y="245.667"/>
      <point x="615" y="228"/>
      <point x="561.023" y="228" type="curve" smooth="yes" name="n03"/>
      <point x="514.96" y="228"/>
      <point x="473.398" y="241.475"/>
      <point x="419.276" y="261.076" type="curve" smooth="yes"/>
      <point x="372.809" y="277.965"/>
      <point x="325.931" y="295" name="hr01"/>
      <point x="282.876" y="295" type="curve" smooth="yes" name="n09"/>
      <point x="228" y="295"/>
      <point x="166.333" y="267.333"/>
      <point x="88.6667" y="209" type="curve"/>
      <point x="88.6667" y="294" type="line"/>
      <point x="162.333" y="349"/>
      <point x="228" y="369"/>
      <point x="282" y="369" type="curve" smooth="yes" name="n16"/>
      <point x="327.982" y="369"/>
      <point x="371.731" y="354.545"/>
      <point x="427.435" y="334.255" type="curve" smooth="yes"/>
      <point x="479.498" y="315.288"/>
      <point x="518.897" y="302" name="hr02"/>
      <point x="557.726" y="302" type="curve" smooth="yes" name="n22"/>
      <point x="603.667" y="302"/>
      <point x="659.333" y="320.333"/>
      <point x="749.333" y="387" type="curve"/>
    </contour>
  </outline>
</glyph>
<glyph name="exclamdown" format="2">
  <advance width="338"/>
  <unicode hex="00A1"/>
  <outline>
    <contour>
      <point x="274.667" y="423.333" type="curve" smooth="yes" name="n00"/>
      <point x="274.667" y="382.333"/>
      <point x="239.667" y="351.333"/>
      <point x="198" y="351.333" type="curve" smooth="yes" name="n03"/>
      <point x="157.333" y="351.333"/>
      <point x="126" y="385.333"/>
      <point x="126" y="424.667" type="curve" smooth="yes" name="n06"/>
      <point x="126" y="465.333"/>
      <point x="157" y="498"/>
      <point x="198.667" y="498" type="curve" smooth="yes" name="n09"/>
      <point x="240.333" y="498"/>
      <point x="274.667" y="465.667"/>
    </contour>
    <contour>
      <point x="207.667" y="292" type="line"/>
      <point x="175" y="-118.667" type="line" smooth="yes"/>
      <point x="170.667" y="-174.667"/>
      <point x="127.333" y="-198.667" name="n15"/>
      <point x="83.6667" y="-198.667" type="curve" smooth="yes"/>
      <point x="45" y="-198.667"/>
      <point x="20.6667" y="-179.333"/>
      <point x="20.6667" y="-139.333" type="curve" smooth="yes"/>
      <point x="20.6667" y="-115"/>
      <point x="119.667" y="199.333"/>
      <point x="150.333" y="292" type="curve"/>
    </contour>
  </outline>
</glyph>
<glyph name="section" format="2">
  <advance width="527"/>
  <unicode hex="00A7"/>
  <outline>
    <contour>
      <point x="525.333" y="690.333" type="curve"/>
      <point x="499.667" y="556.667" type="line"/>
      <point x="429" y="556.667" type="line"/>
      <point x="433" y="640.667" type="line"/>
      <point x="405" y="658.667"/>
      <point x="363.667" y="664"/>
      <point x="349" y="664" type="curve" smooth="yes" name="n06"/>
      <point x="324.333" y="664"/>
      <point x="253.333" y="638.667"/>
      <point x="253.333" y="578" type="curve" smooth="yes" name="n09"/>
      <point x="253.333" y="514"/>
      <point x="362.667" y="492.333"/>
      <point x="431.667" y="436.333" type="curve" smooth="yes"/>
      <point x="462.667" y="410.333"/>
      <point x="485.333" y="378"/>
      <point x="485.333" y="331.333" type="curve" smooth="yes" name="n15"/>
      <point x="485.333" y="251.333"/>
      <point x="413.333" y="181"/>
      <point x="332.333" y="145.667" type="curve"/>
      <point x="379.667" y="119.333"/>
      <point x="411.333" y="85.6667" name="hr01"/>
      <point x="411.333" y="40" type="curve" smooth="yes" name="n21"/>
      <point x="411.333" y="-68.3333"/>
      <point x="301.333" y="-140"/>
      <point x="173" y="-140" type="curve" smooth="yes" name="n24"/>
      <point x="111.333" y="-140"/>
      <point x="58" y="-127"/>
      <point x="12" y="-105" type="curve"/>
      <point x="35.6667" y="29" type="line"/>
      <point x="109.667" y="29" type="line"/>
      <point x="106.667" y="-63.3333" type="line"/>
      <point x="134.333" y="-80.6667"/>
      <point x="177" y="-85"/>
      <point x="191" y="-85" type="curve" smooth="yes" name="n33"/>
      <point x="218" y="-85"/>
      <point x="291" y="-57.6667"/>
      <point x="291" y="4" type="curve" smooth="yes" name="n36"/>
      <point x="291" y="73.3333"/>
      <point x="178.333" y="95.6667"/>
      <point x="111.667" y="150" type="curve" smooth="yes"/>
      <point x="80" y="176"/>
      <point x="58.6667" y="208.667"/>
      <point x="58.6667" y="256.667" type="curve" smooth="yes" name="n42"/>
      <point x="58.6667" y="344.333"/>
      <point x="119.333" y="403.667"/>
      <point x="205.667" y="441.333" type="curve"/>
      <point x="160.333" y="468.667"/>
      <point x="131" y="500.667" name="hr02"/>
      <point x="131" y="546" type="curve" smooth="yes" name="n48"/>
      <point x="131" y="662.333"/>
      <point x="244" y="718"/>
      <point x="375.333" y="718" type="curve" smooth="yes" name="n51"/>
      <point x="424" y="718"/>
      <point x="484" y="708.667"/>
    </contour>
    <contour>
      <point x="362" y="305" type="curve" smooth="yes" name="n54"/>
      <point x="362" y="344.667"/>
      <point x="339.667" y="377.333"/>
      <point x="267.667" y="411" type="curve"/>
      <point x="204" y="382.333"/>
      <point x="180.333" y="327.333"/>
      <point x="180.333" y="289" type="curve" smooth="yes" name="n60"/>
      <point x="180.333" y="244.333"/>
      <point x="197.667" y="218.667"/>
      <point x="273.667" y="177.333" type="curve"/>
      <point x="325" y="209.667"/>
      <point x="362" y="254.667"/>
    </contour>
  </outline>
</glyph>
<glyph name="paragraph" format="2">
  <advance width="518"/>
  <unicode hex="00B6"/>
  <outline>
    <contour>
      <point x="515.667" y="621" type="line"/>
      <point x="453.667" y="611" type="line"/>
      <point x="453.667" y="-79" type="line" name="n02"/>
      <point x="389" y="-79" type="line" name="n03"/>
      <point x="389" y="614.667" type="line"/>
      <point x="312.667" y="614.667" type="line" name="n05"/>
      <point x="312.667" y="273.667" type="line"/>
      <point x="159.333" y="273.667"/>
      <point x="51" y="312"/>
      <point x="51" y="471" type="curve" smooth="yes" name="n09"/>
      <point x="51" y="621.333"/>
      <point x="142.333" y="671"/>
      <point x="294" y="671" type="curve" smooth="yes" name="n12"/>
      <point x="515.667" y="671" type="line"/>
    </contour>
  </outline>
</glyph>
<glyph name="onesuperior" format="2">
  <advance width="379"/>
  <unicode hex="00B9"/>
  <outline>
    <contour>
      <point x="356" y="794" type="line" name="n00"/>
      <point x="279" y="431" type="line" smooth="yes"/>
      <point x="277.583" y="424.683"/>
      <point x="283.663" y="420.613"/>
      <point x="292.333" y="419.667" type="curve" name="n04"/>
      <point x="339.333" y="416" type="line"/>
      <point x="339.333" y="383" type="line" name="n06"/>
      <point x="120.333" y="383" type="line"/>
      <point x="120.333" y="416.333" type="line"/>
      <point x="182.667" y="419.667" type="line" smooth="yes"/>
      <point x="191.333" y="420"/>
      <point x="196.667" y="424.667"/>
      <point x="198" y="431.667" type="curve" smooth="yes"/>
      <point x="260.667" y="732" type="line"/>
      <point x="162" y="720.333" type="line"/>
      <point x="162" y="753" type="line"/>
      <point x="319.667" y="794" type="line"/>
    </contour>
  </outline>
</glyph>
<glyph name="onequarter" format="2">
  <advance width="897"/>
  <unicode hex="00BC"/>
  <outline>
    <contour>
      <point x="824.667" y="158" type="line" name="n00"/>
      <point x="815.333" y="110" type="line" name="n01"/>
      <point x="742.667" y="110" type="line"/>
      <point x="716.333" y="-19" type="line" name="n03"/>
      <point x="641.667" y="-19" type="line"/>
      <point x="667.667" y="110" type="line" name="hr02"/>
      <point x="465" y="110" type="line"/>
      <point x="474.667" y="158.667" type="line"/>
      <point x="740.667" y="407.333" type="line"/>
      <point x="802.667" y="407.333" type="line"/>
      <point x="752.667" y="158" type="line"/>
    </contour>
    <contour>
      <point x="787.333" y="696" type="line"/>
      <point x="207" y="0" type="line" name="n12"/>
      <point x="134.667" y="0" type="line"/>
      <point x="714.333" y="696" type="line"/>
    </contour>
    <contour>
      <point x="311" y="705.667" type="line" name="n15"/>
      <point x="234.667" y="342.667" type="line" smooth="yes"/>
      <point x="233.249" y="336.35"/>
      <point x="239" y="332.333"/>
      <point x="247.333" y="331.667" type="curve" smooth="yes"/>
      <point x="294.333" y="327.667" type="line"/>
      <point x="294.333" y="294.667" type="line"/>
      <point x="75.3333" y="294.667" type="line"/>
      <point x="75.3333" y="328" type="line"/>
      <point x="137.667" y="331.667" type="line"/>
      <point x="146.333" y="331.667"/>
      <point x="151.667" y="337"/>
      <point x="153.333" y="343.333" type="curve"/>
      <point x="215.667" y="644.333" type="line"/>
      <point x="117" y="632" type="line"/>
      <point x="117" y="665.333" type="line"/>
      <point x="274.667" y="705.667" type="line"/>
    </contour>
    <contour>
      <point x="710.667" y="322.333" type="line"/>
      <point x="537" y="158" type="line"/>
      <point x="678" y="158" type="line" name="n34"/>
    </contour>
  </outline>
</glyph>
<glyph name="threequarters" format="2">
  <advance width="897"/>
  <unicode hex="00BE"/>
  <outline>
    <contour>
      <point x="841.333" y="158" type="line" name="n00"/>
      <point x="831.333" y="110" type="line" name="n01"/>
      <point x="758.667" y="110" type="line"/>
      <point x="732.667" y="-19" type="line" name="n03"/>
      <point x="658" y="-19" type="line"/>
      <point x="684" y="110" type="line" name="hr02"/>
      <point x="481.667" y="110" type="line"/>
      <point x="491.333" y="158.667" type="line"/>
      <point x="757" y="407.333" type="line"/>
      <point x="818.667" y="407.333" type="line"/>
      <point x="768" y="158" type="line"/>
    </contour>
    <contour>
      <point x="807.333" y="696" type="line"/>
      <point x="227.667" y="0" type="line" name="n12"/>
      <point x="155.333" y="0" type="line"/>
      <point x="735" y="696" type="line"/>
    </contour>
    <contour>
      <point x="398.333" y="620.667" type="curve" smooth="yes" name="n15"/>
      <point x="398.333" y="560.667"/>
      <point x="338.667" y="519"/>
      <point x="275.333" y="508" type="curve"/>
      <point x="320.667" y="505.667"/>
      <point x="375" y="485" name="hr03"/>
      <point x="375" y="430.667" type="curve" smooth="yes" name="n21"/>
      <point x="375" y="336.667"/>
      <point x="261" y="288"/>
      <point x="171.333" y="288" type="curve" smooth="yes" name="n24"/>
      <point x="117" y="288"/>
      <point x="52.3333" y="309.667"/>
      <point x="52.3333" y="356" type="curve" smooth="yes"/>
      <point x="52.3333" y="381.333"/>
      <point x="71.6667" y="402.667" name="hr04"/>
      <point x="102.667" y="402.667" type="curve" smooth="yes" name="n30"/>
      <point x="113.333" y="402.667"/>
      <point x="123.667" y="399.333"/>
      <point x="129" y="396.667" type="curve"/>
      <point x="137.667" y="334.333" type="line"/>
      <point x="149" y="330.667"/>
      <point x="165" y="324.667" name="hr05"/>
      <point x="182.333" y="324.667" type="curve" smooth="yes" name="n37"/>
      <point x="238.667" y="324.667"/>
      <point x="287.667" y="369"/>
      <point x="287.667" y="421.667" type="curve" smooth="yes" name="n40"/>
      <point x="287.667" y="486"/>
      <point x="215.333" y="484.333"/>
      <point x="169.667" y="478.333" type="curve"/>
      <point x="178" y="522.667" type="line" name="n44"/>
      <point x="246.667" y="518.333"/>
      <point x="310.667" y="543"/>
      <point x="310.667" y="609.333" type="curve" smooth="yes" name="n47"/>
      <point x="310.667" y="649"/>
      <point x="276" y="666.333"/>
      <point x="243.333" y="666.333" type="curve" smooth="yes" name="n50"/>
      <point x="225.333" y="666.333"/>
      <point x="211.333" y="660.667"/>
      <point x="202.333" y="657.333" type="curve"/>
      <point x="190" y="589" type="line"/>
      <point x="182" y="585"/>
      <point x="166.667" y="580.667"/>
      <point x="154.333" y="580.667" type="curve" smooth="yes"/>
      <point x="135.667" y="580.667"/>
      <point x="114.333" y="589.667"/>
      <point x="114.333" y="614.333" type="curve" smooth="yes"/>
      <point x="114.333" y="677.667"/>
      <point x="216.333" y="705.333"/>
      <point x="275" y="705.333" type="curve" smooth="yes" name="n63"/>
      <point x="333.333" y="705.333"/>
      <point x="398.333" y="683.667"/>
    </contour>
    <contour>
      <point x="727" y="322.333" type="line"/>
      <point x="553.667" y="158" type="line"/>
      <point x="693.333" y="158" type="line" name="n68"/>
    </contour>
  </outline>
</glyph>
<glyph name="AE" format="2">
  <advance width="964"/>
  <unicode hex="00C6"/>
  <outline>
    <contour>
      <point x="996" y="671" type="line" name="n00"/>
      <point x="965.333" y="515.667" type="line" name="n01"/>
      <point x="890" y="515.667" type="line"/>
      <point x="890" y="599.333" type="line" smooth="yes"/>
      <point x="890" y="610.667"/>
      <point x="880.667" y="614.333" name="hr01"/>
      <point x="868.333" y="614.333" type="curve" smooth="yes" name="n06"/>
      <point x="691.667" y="614.333" type="line"/>
      <point x="645" y="377.667" type="line" name="n08"/>
      <point x="756" y="377.667" type="line" smooth="yes" name="n09"/>
      <point x="767.333" y="377.667"/>
      <point x="779.333" y="382.667"/>
      <point x="782.667" y="394" type="curve" smooth="yes"/>
      <point x="802.333" y="463" type="line"/>
      <point x="870.667" y="463" type="line"/>
      <point x="824.333" y="230" type="line"/>
      <point x="757" y="230" type="line" name="n16"/>
      <point x="768" y="303.352" type="line"/>
      <point x="768" y="314.262"/>
      <point x="764.033" y="319" name="hr02"/>
      <point x="752.872" y="319" type="curve" smooth="yes"/>
      <point x="633.667" y="319" type="line" name="n21"/>
      <point x="582" y="56.6667" type="line"/>
      <point x="794" y="56.6667" type="line" smooth="yes" name="n23"/>
      <point x="804.333" y="56.6667"/>
      <point x="817.635" y="63.2293"/>
      <point x="820.667" y="72.6667" type="curve" smooth="yes"/>
      <point x="852.333" y="171.333" type="line" name="n27"/>
      <point x="924.667" y="171.333" type="line"/>
      <point x="891.333" y="0" type="line" name="n29"/>
      <point x="375" y="0" type="line"/>
      <point x="375" y="47.3333" type="line"/>
      <point x="430.959" y="51.2471" type="line" smooth="yes"/>
      <point x="445.612" y="52.2523"/>
      <point x="453.07" y="60.0278"/>
      <point x="455" y="69.3333" type="curve" smooth="yes"/>
      <point x="491.333" y="251" type="line" name="n36"/>
      <point x="285.667" y="251" type="line"/>
      <point x="139.461" y="75.3287" type="line" smooth="yes"/>
      <point x="136.936" y="72.3024"/>
      <point x="135.801" y="68.9467"/>
      <point x="135.848" y="65.7707" type="curve" smooth="yes"/>
      <point x="135.933" y="59.1357"/>
      <point x="141.718" y="53.2486"/>
      <point x="150.667" y="52.3333" type="curve" smooth="yes"/>
      <point x="203" y="47.3333" type="line"/>
      <point x="203" y="0" type="line"/>
      <point x="-53" y="0" type="line"/>
      <point x="-53" y="47.3333" type="line"/>
      <point x="-5.66667" y="51.6667" type="line" smooth="yes"/>
      <point x="4.77709" y="52.5879"/>
      <point x="8.04827" y="55.1571"/>
      <point x="20" y="70" type="curve" smooth="yes"/>
      <point x="459.667" y="602" type="line"/>
      <point x="461.745" y="604.841"/>
      <point x="463.331" y="608.131"/>
      <point x="463.298" y="611.125" type="curve" smooth="yes"/>
      <point x="463.252" y="615.244"/>
      <point x="460.503" y="617.85"/>
      <point x="455.233" y="618.755" type="curve"/>
      <point x="400" y="623.667" type="line"/>
      <point x="400" y="671" type="line"/>
    </contour>
    <contour>
      <point x="586.884" y="616.083" type="line"/>
      <point x="333.667" y="309.667" type="line"/>
      <point x="502.667" y="309.667" type="line" name="n64"/>
      <point x="563.621" y="615.933" type="line"/>
    </contour>
  </outline>
</glyph>
<glyph name="Thorn" format="2">
  <advance width="593"/>
  <unicode hex="00DE"/>
  <outline>
    <contour>
      <point x="573" y="384.333" type="curve" smooth="yes" name="n00"/>
      <point x="573" y="227.333"/>
      <point x="446.333" y="123.667"/>
      <point x="255" y="123.667" type="curve" smooth="yes"/>
      <point x="241" y="123.667"/>
      <point x="214.333" y="124.667"/>
      <point x="204.333" y="124.667" type="curve"/>
      <point x="194" y="68.6667" type="line" smooth="yes"/>
      <point x="192" y="57.3333"/>
      <point x="199.333" y="53.3333"/>
      <point x="213.333" y="52.3333" type="curve"/>
      <point x="213.333" y="52.3333"/>
      <point x="247.738" y="49.7364"/>
      <point x="271" y="47.3333" type="curve"/>
      <point x="271" y="0" type="line" name="n14"/>
      <point x="-17" y="0" type="line"/>
      <point x="-17" y="47.3333" type="line"/>
      <point x="8.50656" y="49.7506"/>
      <point x="43.6667" y="52.3333"/>
      <point x="43.6667" y="52.3333" type="curve"/>
      <point x="56.3333" y="53.3333"/>
      <point x="62.6667" y="57.3333"/>
      <point x="65" y="69.3333" type="curve" smooth="yes"/>
      <point x="170" y="602" type="line" smooth="yes"/>
      <point x="172" y="613.667"/>
      <point x="167.333" y="617.667"/>
      <point x="150" y="618.667" type="curve"/>
      <point x="150" y="618.667"/>
      <point x="116.509" y="621.264"/>
      <point x="94" y="623.667" type="curve"/>
      <point x="94" y="671" type="line"/>
      <point x="380" y="671" type="line" name="n31"/>
      <point x="380" y="623.667" type="line"/>
      <point x="353.672" y="621.236"/>
      <point x="319.333" y="618.667"/>
      <point x="319.333" y="618.667" type="curve"/>
      <point x="308" y="617.667"/>
      <point x="300" y="613.667"/>
      <point x="298" y="601.333" type="curve" smooth="yes"/>
      <point x="287.667" y="546.333" type="line" name="n39"/>
      <point x="332" y="546.333" type="line" smooth="yes"/>
      <point x="512.333" y="546.333"/>
      <point x="573" y="475.667"/>
    </contour>
    <contour>
      <point x="441" y="368.333" type="curve" smooth="yes" name="n43"/>
      <point x="441" y="446.667"/>
      <point x="393" y="493.667"/>
      <point x="310" y="493.667" type="curve" smooth="yes" name="n46"/>
      <point x="302.667" y="493.667"/>
      <point x="283.333" y="493.333"/>
      <point x="277" y="492.333" type="curve"/>
      <point x="215.667" y="182.667" type="line"/>
      <point x="261" y="179.667"/>
      <point x="311.333" y="187.333"/>
      <point x="354.667" y="212.667" type="curve" smooth="yes"/>
      <point x="403" y="242"/>
      <point x="441" y="291.667"/>
    </contour>
  </outline>
</glyph>
<glyph name="germandbls" format="2">
  <advance width="584"/>
  <unicode hex="00DF"/>
  <outline>
    <contour>
      <point x="566.667" y="603" type="curve" smooth="yes" name="n00"/>
      <point x="566.667" y="544.333"/>
      <point x="547.333" y="483.667"/>
      <point x="531.333" y="428" type="curve"/>
      <point x="490" y="432"/>
      <point x="479.667" y="432.333"/>
      <point x="469.333" y="432.333" type="curve" smooth="yes"/>
      <point x="449.667" y="432.333"/>
      <point x="378.667" y="425.333"/>
      <point x="378.667" y="368.333" type="curve" smooth="yes" name="n09"/>
      <point x="378.667" y="332"/>
      <point x="423.333" y="301"/>
      <point x="466.667" y="267.333" type="curve" smooth="yes"/>
      <point x="510.667" y="232.667"/>
      <point x="553.667" y="195.667" name="hr01"/>
      <point x="553.667" y="146" type="curve" smooth="yes" name="n15"/>
      <point x="553.667" y="50.3333"/>
      <point x="469.333" y="-13.3333"/>
      <point x="350.333" y="-13.3333" type="curve" smooth="yes" name="n18"/>
      <point x="268.333" y="-13.3333"/>
      <point x="211.667" y="15.6667"/>
      <point x="211.667" y="82.3333" type="curve" smooth="yes"/>
      <point x="211.667" y="112.333"/>
      <point x="241.667" y="146"/>
      <point x="284.333" y="146" type="curve" smooth="yes" name="n24"/>
      <point x="319.667" y="146"/>
      <point x="320.333" y="133"/>
      <point x="334.333" y="124.333" type="curve"/>
      <point x="316.333" y="64.3333" type="line"/>
      <point x="334.667" y="41.6667"/>
      <point x="346" y="34.3333" name="hr02"/>
      <point x="366.333" y="34.3333" type="curve" smooth="yes" name="n31"/>
      <point x="406.333" y="34.3333"/>
      <point x="436" y="62"/>
      <point x="436" y="114.333" type="curve" smooth="yes" name="n34"/>
      <point x="436" y="152.333"/>
      <point x="399.667" y="179.333"/>
      <point x="353.667" y="214.333" type="curve" smooth="yes"/>
      <point x="312" y="246.333"/>
      <point x="272" y="280.333"/>
      <point x="272" y="332.333" type="curve" smooth="yes" name="n40"/>
      <point x="272" y="412"/>
      <point x="340.667" y="470.333"/>
      <point x="434.667" y="481.667" type="curve"/>
      <point x="446" y="523"/>
      <point x="456" y="564.667" name="hr03"/>
      <point x="456" y="605" type="curve" smooth="yes" name="n46"/>
      <point x="456" y="656"/>
      <point x="424.333" y="682"/>
      <point x="383" y="682" type="curve" smooth="yes" name="n49"/>
      <point x="309.667" y="682"/>
      <point x="255" y="601.667"/>
      <point x="225.333" y="491" type="curve" smooth="yes"/>
      <point x="177.667" y="315"/>
      <point x="193" y="135.333"/>
      <point x="129.333" y="-39.6667" type="curve" smooth="yes"/>
      <point x="104.667" y="-105.333"/>
      <point x="1.33333" y="-229" name="n57"/>
      <point x="-84" y="-229" type="curve" smooth="yes"/>
      <point x="-130" y="-229"/>
      <point x="-160" y="-206.333"/>
      <point x="-160" y="-172.333" type="curve" smooth="yes"/>
      <point x="-160" y="-155.667"/>
      <point x="-151" y="-140.667"/>
      <point x="-126" y="-121.667" type="curve"/>
      <point x="-25" y="-148.667" type="line"/>
      <point x="12" y="-103.333"/>
      <point x="34" y="20.3333"/>
      <point x="41" y="64.3333" type="curve" smooth="yes"/>
      <point x="99.6667" y="453.667" type="line" smooth="yes"/>
      <point x="121" y="593.667"/>
      <point x="200.333" y="737"/>
      <point x="389" y="737" type="curve" smooth="yes" name="n72"/>
      <point x="499" y="737"/>
      <point x="566.667" y="687.333"/>
    </contour>
  </outline>
</glyph>
<glyph name="ae" format="2">
  <advance width="772"/>
  <unicode hex="00E6"/>
  <outline>
    <contour>
      <point x="754.333" y="395" type="curve" smooth="yes" name="n00"/>
      <point x="754.333" y="289.333"/>
      <point x="582.333" y="229.667"/>
      <point x="453.333" y="220" type="curve"/>
      <point x="447.333" y="197"/>
      <point x="444.333" y="179.333"/>
      <point x="444.333" y="158.667" type="curve" smooth="yes"/>
      <point x="444.333" y="100.667"/>
      <point x="455.667" y="53.3333"/>
      <point x="536.667" y="53.3333" type="curve" smooth="yes" name="n09"/>
      <point x="581" y="53.3333"/>
      <point x="621" y="85.6667"/>
      <point x="716.333" y="169.667" type="curve"/>
      <point x="716.333" y="84.6667" type="line"/>
      <point x="679" y="46.6667"/>
      <point x="595.333" y="-12"/>
      <point x="501" y="-12" type="curve" smooth="yes" name="n16"/>
      <point x="419" y="-12"/>
      <point x="373.667" y="0.333333"/>
      <point x="351" y="61.6667" type="curve"/>
      <point x="307.667" y="13.6667"/>
      <point x="247.667" y="-12"/>
      <point x="190.333" y="-12" type="curve" smooth="yes" name="n22"/>
      <point x="69.6667" y="-12"/>
      <point x="32" y="95.6667"/>
      <point x="32" y="169.667" type="curve" smooth="yes" name="n25"/>
      <point x="32" y="320.667"/>
      <point x="129.667" y="498"/>
      <point x="334" y="498" type="curve" smooth="yes" name="n28"/>
      <point x="364.333" y="498"/>
      <point x="385.667" y="480"/>
      <point x="401.667" y="464" type="curve"/>
      <point x="413.667" y="486" type="line"/>
      <point x="506" y="486" type="line"/>
      <point x="503.627" y="479.436"/>
      <point x="494.321" y="451.68"/>
      <point x="491.333" y="443.333" type="curve"/>
      <point x="535.667" y="480.333"/>
      <point x="595" y="497.667"/>
      <point x="637" y="497.667" type="curve" smooth="yes"/>
      <point x="732.333" y="497.667"/>
      <point x="754.333" y="424.667"/>
    </contour>
    <contour>
      <point x="640.333" y="395.333" type="curve" smooth="yes" name="n42"/>
      <point x="640.333" y="420"/>
      <point x="630" y="441.333"/>
      <point x="598" y="441.333" type="curve" smooth="yes" name="n45"/>
      <point x="541.667" y="441.333"/>
      <point x="470.333" y="350.667"/>
      <point x="459.333" y="266" type="curve"/>
      <point x="535.667" y="279.333"/>
      <point x="640.333" y="330.333"/>
    </contour>
    <contour>
      <point x="371.667" y="393" type="line"/>
      <point x="337.333" y="444.667" type="line" name="n52"/>
      <point x="208.333" y="436"/>
      <point x="157" y="285" name="hr01"/>
      <point x="157" y="175.667" type="curve" smooth="yes" name="n55"/>
      <point x="157" y="127"/>
      <point x="158.667" y="59.3333"/>
      <point x="222" y="59.3333" type="curve" smooth="yes" name="n58"/>
      <point x="259" y="59.3333"/>
      <point x="303.333" y="97"/>
      <point x="320.667" y="119.667" type="curve"/>
    </contour>
  </outline>
</glyph>
<glyph name="divide" format="2">
  <advance width="1000"/>
  <unicode hex="00F7"/>
  <outline>
    <contour>
      <point x="560" y="461" type="curve" smooth="yes" name="n00"/>
      <point x="560" y="427"/>
      <point x="533" y="401"/>
      <point x="500" y="401" type="curve" smooth="yes" name="n03"/>
      <point x="467" y="401"/>
      <point x="440" y="427"/>
      <point x="440" y="461" type="curve" smooth="yes" name="n06"/>
      <point x="440" y="494"/>
      <point x="467" y="521"/>
      <point x="500" y="521" type="curve" smooth="yes" name="n09"/>
      <point x="533" y="521"/>
      <point x="560" y="494"/>
    </contour>
    <contour>
      <point x="800" y="269" type="line" name="n12"/>
      <point x="200" y="269" type="line"/>
      <point x="200" y="331" type="line"/>
      <point x="800" y="331" type="line" name="n15"/>
    </contour>
    <contour>
      <point x="560" y="139" type="curve" smooth="yes"/>
      <point x="560" y="106"/>
      <point x="533" y="80"/>
      <point x="500" y="80" type="curve" smooth="yes" name="n19"/>
      <point x="467" y="80"/>
      <point x="440" y="106"/>
      <point x="440" y="139" type="curve" smooth="yes"/>
      <point x="440" y="173"/>
      <point x="467" y="199"/>
      <point x="500" y="199" type="curve" smooth="yes" name="n25"/>
      <point x="533" y="199"/>
      <point x="560" y="173"/>
    </contour>
  </outline>
</glyph>
<glyph name="ydieresis" format="2">
  <advance width="527"/>
  <unicode hex="00FF"/>
  <outline>
    <contour>
      <point x="556" y="444" type="line"/>
      <point x="504.667" y="412.333" type="line"/>
      <point x="488.667" y="397.333"/>
      <point x="440.667" y="322"/>
      <point x="422.667" y="280.667" type="curve" smooth="yes"/>
      <point x="394" y="216.667"/>
      <point x="343.667" y="93.3333"/>
      <point x="280.333" y="-14.6667" type="curve" smooth="yes"/>
      <point x="215" y="-127.333"/>
      <point x="133" y="-229"/>
      <point x="20.3333" y="-229" type="curve" smooth="yes" name="n10"/>
      <point x="-58" y="-229"/>
      <point x="-80.6667" y="-183.333"/>
      <point x="-80.6667" y="-156.333" type="curve" smooth="yes"/>
      <point x="-80.6667" y="-124.333"/>
      <point x="-58.3333" y="-83.3333"/>
      <point x="-3.66667" y="-81.3333" type="curve" name="n16"/>
      <point x="44.3333" y="-151.333" type="line"/>
      <point x="88.3333" y="-143.333"/>
      <point x="133.333" y="-89"/>
      <point x="193.333" y="20" type="curve"/>
      <point x="190.333" y="36"/>
      <point x="172.333" y="134.333"/>
      <point x="151.333" y="229.667" type="curve" smooth="yes"/>
      <point x="131" y="322.333"/>
      <point x="112.667" y="425"/>
      <point x="103.667" y="425.333" type="curve"/>
      <point x="2.66667" y="433" type="line"/>
      <point x="2.66667" y="462" type="line"/>
      <point x="24" y="469.333"/>
      <point x="117.333" y="498" name="n30"/>
      <point x="137.333" y="498" type="curve" smooth="yes"/>
      <point x="181.667" y="498"/>
      <point x="206.333" y="481.333"/>
      <point x="231.667" y="396.667" type="curve" smooth="yes"/>
      <point x="246.667" y="346.333"/>
      <point x="264" y="263"/>
      <point x="281.333" y="175.333" type="curve"/>
      <point x="423.333" y="498" type="line"/>
      <point x="465" y="498" type="line"/>
      <point x="556" y="469" type="line"/>
    </contour>
    <contour>
      <point x="507.667" y="649.667" type="curve" smooth="yes" name="n41"/>
      <point x="507.667" y="614.333"/>
      <point x="479.333" y="585"/>
      <point x="444" y="585" type="curve" smooth="yes" name="n44"/>
      <point x="408.667" y="585"/>
      <point x="380.667" y="614.333"/>
      <point x="380.667" y="649.667" type="curve" smooth="yes" name="n47"/>
      <point x="380.667" y="684.333"/>
      <point x="409.333" y="714"/>
      <point x="444" y="714" type="curve" smooth="yes" name="n50"/>
      <point x="479.333" y="714"/>
      <point x="507.667" y="685"/>
    </contour>
    <contour>
      <point x="298.333" y="649.667" type="curve" smooth="yes" name="n53"/>
      <point x="298.333" y="614.333"/>
      <point x="270" y="585"/>
      <point x="234.667" y="585" type="curve" smooth="yes"/>
      <point x="199.667" y="585"/>
      <point x="171" y="614.333"/>
      <point x="171" y="649.333" type="curve" smooth="yes" name="n59"/>
      <point x="171" y="684.333"/>
      <point x="199.667" y="714"/>
      <point x="234.667" y="714" type="curve" smooth="yes"/>
      <point x="270" y="714"/>
      <point x="298.333" y="685"/>
    </contour>
  </outline>
</glyph>
<glyph name="hcircumflex" format="2">
  <advance width="550"/>
  <unicode hex="0125"/>
  <outline>
    <contour>
      <point x="549.333" y="27" type="line"/>
      <point x="510.333" y="9"/>
      <point x="451.333" y="-12" name="n02"/>
      <point x="402" y="-12" type="curve" smooth="yes"/>
      <point x="362.667" y="-12"/>
      <point x="304.667" y="3.66667"/>
      <point x="315.667" y="56.3333" type="curve" smooth="yes"/>
      <point x="376" y="348.667" type="line" smooth="yes"/>
      <point x="386.333" y="398.333"/>
      <point x="355.667" y="425.333"/>
      <point x="335" y="425.333" type="curve" smooth="yes" name="n10"/>
      <point x="304.333" y="425.333"/>
      <point x="251.667" y="393.333"/>
      <point x="209.667" y="350" type="curve"/>
      <point x="136.667" y="0" type="line" name="n14"/>
      <point x="17.3333" y="0" type="line"/>
      <point x="155.333" y="663.333" type="line"/>
      <point x="67" y="671.667" type="line"/>
      <point x="67" y="705.667" type="line"/>
      <point x="231.667" y="737" type="line"/>
      <point x="291" y="737" type="line"/>
      <point x="228.667" y="440.667" type="line"/>
      <point x="269" y="472.333"/>
      <point x="328.333" y="498"/>
      <point x="390" y="498" type="curve" smooth="yes" name="n24"/>
      <point x="481" y="498"/>
      <point x="516" y="445"/>
      <point x="498.333" y="359" type="curve" smooth="yes"/>
      <point x="442.667" y="92.6667" type="line" smooth="yes"/>
      <point x="435.333" y="58"/>
      <point x="460.667" y="47"/>
      <point x="472" y="47" type="curve" smooth="yes"/>
      <point x="497.333" y="47"/>
      <point x="520.667" y="58.3333"/>
      <point x="548.333" y="72" type="curve"/>
    </contour>
    <contour>
      <point x="407.333" y="766" type="line"/>
      <point x="328" y="766" type="line"/>
      <point x="256" y="860" type="line"/>
      <point x="145.333" y="766" type="line"/>
      <point x="66.6667" y="766" type="line"/>
      <point x="218.333" y="936.333" type="line" name="n40"/>
      <point x="323.333" y="936.333" type="line"/>
    </contour>
  </outline>
</glyph>
<glyph name="Hbar" format="2">
  <advance width="753"/>
  <unicode hex="0126"/>
  <outline>
    <contour>
      <point x="795" y="623.667" type="line"/>
      <point x="733" y="618" type="line" smooth="yes"/>
      <point x="721.001" y="616.989"/>
      <point x="715.333" y="611.667"/>
      <point x="713" y="601.333" type="curve" smooth="yes"/>
      <point x="699.333" y="533" type="line"/>
      <point x="773" y="533" type="line" name="n06"/>
      <point x="773" y="477" type="line" name="n07"/>
      <point x="688.667" y="477" type="line"/>
      <point x="609" y="68.6667" type="line" smooth="yes"/>
      <point x="607" y="58"/>
      <point x="612.333" y="53.3333"/>
      <point x="627" y="52.3333" type="curve" name="n12"/>
      <point x="627" y="52.3333"/>
      <point x="661.071" y="49.7436"/>
      <point x="685" y="47.3333" type="curve"/>
      <point x="685" y="0" type="line" name="n16"/>
      <point x="396" y="0" type="line"/>
      <point x="396" y="47.3333" type="line"/>
      <point x="421.673" y="49.7506"/>
      <point x="457.333" y="52.3333"/>
      <point x="457.333" y="52.3333" type="curve"/>
      <point x="469.333" y="53.3333"/>
      <point x="477.901" y="57.3511"/>
      <point x="480" y="69.3333" type="curve" smooth="yes"/>
      <point x="529.333" y="322.667" type="line" name="n25"/>
      <point x="245.333" y="322.667" type="line"/>
      <point x="196" y="68.6667" type="line" smooth="yes"/>
      <point x="194" y="57.3333"/>
      <point x="197.333" y="53.3333"/>
      <point x="214.333" y="52.3333" type="curve"/>
      <point x="214.333" y="52.3333"/>
      <point x="248.907" y="49.7436"/>
      <point x="273" y="47.3333" type="curve"/>
      <point x="273" y="0" type="line"/>
      <point x="-15" y="0" type="line"/>
      <point x="-15" y="47.3333" type="line"/>
      <point x="9.75688" y="49.7506"/>
      <point x="44" y="52.3333"/>
      <point x="44" y="52.3333" type="curve"/>
      <point x="57.6667" y="53.3333"/>
      <point x="64.6667" y="57.3333"/>
      <point x="67" y="69.3333" type="curve" smooth="yes"/>
      <point x="146" y="477" type="line"/>
      <point x="81.6667" y="477" type="line"/>
      <point x="81.6667" y="533" type="line"/>
      <point x="157.333" y="533" type="line"/>
      <point x="171" y="602" type="line" smooth="yes"/>
      <point x="173" y="613.667"/>
      <point x="167" y="617.667"/>
      <point x="151.667" y="618.667" type="curve" name="n50"/>
      <point x="151.667" y="618.667"/>
      <point x="118.26" y="621.257"/>
      <point x="95" y="623.667" type="curve"/>
      <point x="95" y="671" type="line" name="n54"/>
      <point x="383" y="671" type="line"/>
      <point x="383" y="623.667" type="line"/>
      <point x="357.41" y="621.249"/>
      <point x="322" y="618.667"/>
      <point x="322" y="618.667" type="curve"/>
      <point x="309.333" y="617.667"/>
      <point x="302" y="613.667"/>
      <point x="300" y="601.333" type="curve"/>
      <point x="286.333" y="533" type="line"/>
      <point x="570.333" y="533" type="line"/>
      <point x="584" y="602" type="line" smooth="yes"/>
      <point x="586" y="613.667"/>
      <point x="580" y="618.333"/>
      <point x="563.333" y="619.333" type="curve"/>
      <point x="563.333" y="619.333"/>
      <point x="528.76" y="621.278"/>
      <point x="507" y="623.667" type="curve"/>
      <point x="507" y="671" type="line"/>
      <point x="795" y="671" type="line"/>
    </contour>
    <contour>
      <point x="256.667" y="379.333" type="line"/>
      <point x="540.667" y="379.333" type="line" name="n75"/>
      <point x="560" y="477" type="line"/>
      <point x="276" y="477" type="line"/>
    </contour>
  </outline>
</glyph>
<glyph name="hbar" format="2">
  <advance width="550"/>
  <unicode hex="0127"/>
  <outline>
    <contour>
      <point x="549.333" y="27" type="line"/>
      <point x="510.333" y="9"/>
      <point x="451.333" y="-12" name="n02"/>
      <point x="402" y="-12" type="curve" smooth="yes"/>
      <point x="362.667" y="-12"/>
      <point x="304.667" y="3.66667"/>
      <point x="315.667" y="56.3333" type="curve" smooth="yes"/>
      <point x="376" y="348.667" type="line" smooth="yes"/>
      <point x="386.333" y="398.333"/>
      <point x="355.667" y="425.333"/>
      <point x="335" y="425.333" type="curve" smooth="yes" name="n10"/>
      <point x="304.333" y="425.333"/>
      <point x="251.667" y="393.333"/>
      <point x="209.667" y="350" type="curve"/>
      <point x="136.667" y="0" type="line" name="n14"/>
      <point x="17.3333" y="0" type="line"/>
      <point x="126" y="523.667" type="line"/>
      <point x="46" y="523.667" type="line" name="n17"/>
      <point x="46" y="581.667" type="line" name="n18"/>
      <point x="138.333" y="581.667" type="line"/>
      <point x="155.333" y="663.333" type="line"/>
      <point x="67" y="671.667" type="line"/>
      <point x="67" y="705.667" type="line"/>
      <point x="231.667" y="737" type="line" name="n23"/>
      <point x="291" y="737" type="line"/>
      <point x="258.333" y="581.667" type="line"/>
      <point x="360.333" y="581.667" type="line"/>
      <point x="360.333" y="523.667" type="line"/>
      <point x="246.333" y="523.667" type="line"/>
      <point x="228.667" y="440.667" type="line"/>
      <point x="269" y="472.333"/>
      <point x="328.333" y="498"/>
      <point x="390" y="498" type="curve" smooth="yes" name="n32"/>
      <point x="481" y="498"/>
      <point x="516" y="445"/>
      <point x="498.333" y="359" type="curve" smooth="yes"/>
      <point x="442.667" y="92.6667" type="line" smooth="yes"/>
      <point x="435.333" y="58"/>
      <point x="460.667" y="47"/>
      <point x="472" y="47" type="curve" smooth="yes"/>
      <point x="497.333" y="47"/>
      <point x="520.667" y="58.3333"/>
      <point x="548.333" y="72" type="curve"/>
    </contour>
  </outline>
</glyph>
<glyph name="dotlessi" format="2">
  <advance width="295"/>
  <unicode hex="0131"/>
  <anchor x="180" y="570" name="top"/>
  <outline>
    <contour>
      <point x="293" y="31" type="line"/>
      <point x="248" y="7.33333"/>
      <point x="188.667" y="-12"/>
      <point x="131.667" y="-12" type="curve" smooth="yes" name="n03"/>
      <point x="71.4205" y="-12"/>
      <point x="47.0273" y="26.0465"/>
      <point x="47.0273" y="65.7339" type="curve" smooth="yes"/>
      <point x="47.0273" y="74.2631"/>
      <point x="48.1276" y="83.073"/>
      <point x="49.3333" y="89.3333" type="curve" smooth="yes"/>
      <point x="112.667" y="423.667" type="line"/>
      <point x="26.6667" y="432.667" type="line"/>
      <point x="26.6667" y="465.667" type="line"/>
      <point x="187" y="498" type="line" name="n13"/>
      <point x="247.333" y="498" type="line"/>
      <point x="170.667" y="97.3333" type="line" smooth="yes"/>
      <point x="169.341" y="90.8519"/>
      <point x="168.499" y="84.5375"/>
      <point x="168.511" y="78.9212" type="curve" smooth="yes"/>
      <point x="168.535" y="62.3057"/>
      <point x="176.791" y="49.6667"/>
      <point x="193.313" y="49.6667" type="curve" smooth="yes" name="n21"/>
      <point x="211.333" y="49.6667"/>
      <point x="263.858" y="65"/>
      <point x="293" y="80.3333" type="curve"/>
    </contour>
  </outline>
</glyph>
<glyph name="lacute" format="2">
  <advance width="292"/>
  <unicode hex="013A"/>
  <outline>
    <contour>
      <point x="290.333" y="28" type="line"/>
      <point x="253" y="9.33333"/>
      <point x="187.667" y="-12"/>
      <point x="137.333" y="-12" type="curve" smooth="yes" name="n03"/>
      <point x="73" y="-12"/>
      <point x="39" y="18"/>
      <point x="39" y="63" type="curve" smooth="yes"/>
      <point x="39" y="73.6667"/>
      <point x="40" y="85.6667"/>
      <point x="42.6667" y="98.6667" type="curve" smooth="yes"/>
      <point x="152" y="663.333" type="line"/>
      <point x="63.6667" y="671.667" type="line"/>
      <point x="63.6667" y="705.667" type="line"/>
      <point x="228.333" y="737" type="line"/>
      <point x="285.333" y="737" type="line"/>
      <point x="162.667" y="101" type="line" smooth="yes"/>
      <point x="158.333" y="76.6667"/>
      <point x="169.333" y="50"/>
      <point x="195.333" y="50" type="curve" smooth="yes" name="n18"/>
      <point x="212.333" y="50"/>
      <point x="255.333" y="61.6667"/>
      <point x="290.333" y="76.6667" type="curve"/>
    </contour>
    <contour>
      <point x="422" y="918.333" type="curve" smooth="yes"/>
      <point x="422" y="903.333"/>
      <point x="411" y="885.333"/>
      <point x="396" y="876.667" type="curve" smooth="yes"/>
      <point x="239.667" y="785" type="line"/>
      <point x="168.667" y="785" type="line"/>
      <point x="306" y="938.333" type="line" smooth="yes"/>
      <point x="325" y="960"/>
      <point x="339.333" y="967.333" name="n30"/>
      <point x="367.333" y="967.333" type="curve" smooth="yes"/>
      <point x="407.667" y="967.333"/>
      <point x="422" y="941"/>
    </contour>
  </outline>
</glyph>
<glyph name="Lcedilla" format="2">
  <advance width="546"/>
  <unicode hex="013B"/>
  <outline>
    <contour>
      <point x="513" y="196.333" type="line"/>
      <point x="474.333" y="0" type="line" name="n01"/>
      <point x="-15" y="0" type="line"/>
      <point x="-15" y="47.3333" type="line"/>
      <point x="7.59411" y="49.7294"/>
      <point x="42.3333" y="51.6667"/>
      <point x="42.3333" y="51.6667" type="curve"/>
      <point x="59.3333" y="53.3333"/>
      <point x="65" y="56.6667" name="hr01"/>
      <point x="67" y="69.3333" type="curve"/>
      <point x="171" y="602" type="line"/>
      <point x="173.667" y="613"/>
      <point x="167" y="617.667"/>
      <point x="154" y="618.667" type="curve"/>
      <point x="154" y="618.667"/>
      <point x="119.929" y="621.256"/>
      <point x="96" y="623.667" type="curve"/>
      <point x="96" y="671" type="line" name="n17"/>
      <point x="384" y="671" type="line"/>
      <point x="384" y="623.667" type="line"/>
      <point x="357.002" y="621.243"/>
      <point x="321" y="618.667"/>
      <point x="321" y="618.667" type="curve"/>
      <point x="310" y="617.667"/>
      <point x="302.667" y="612.667"/>
      <point x="300" y="601.333" type="curve"/>
      <point x="194" y="56.6667" type="line"/>
      <point x="377" y="56.6667" type="line" smooth="yes" name="n27"/>
      <point x="388" y="56.6667"/>
      <point x="400.74" y="63.3095"/>
      <point x="404" y="72.6667" type="curve"/>
      <point x="443.333" y="196.333" type="line" name="n31"/>
    </contour>
    <contour>
      <point x="265.667" y="-125.667" type="curve" smooth="yes" name="n32"/>
      <point x="265.667" y="-209.333"/>
      <point x="175.667" y="-260"/>
      <point x="103.333" y="-273.333" type="curve"/>
      <point x="110.667" y="-235.333" type="line"/>
      <point x="151.333" y="-224"/>
      <point x="187.333" y="-200.667"/>
      <point x="196.333" y="-157" type="curve" name="n39"/>
      <point x="136.667" y="-157" type="line"/>
      <point x="128.667" y="-148.667"/>
      <point x="125.333" y="-137.667"/>
      <point x="125.333" y="-126.667" type="curve" smooth="yes" name="n43"/>
      <point x="125.333" y="-86"/>
      <point x="161.667" y="-61"/>
      <point x="199" y="-61" type="curve" smooth="yes" name="n46"/>
      <point x="238.667" y="-61"/>
      <point x="265.667" y="-85.6667"/>
    </contour>
  </outline>
</glyph>
<glyph name="lcedilla" format="2">
  <advance width="292"/>
  <unicode hex="013C"/>
  <outline>
    <contour>
      <point x="290.333" y="28" type="line"/>
      <point x="253" y="9.33333"/>
      <point x="187.667" y="-12"/>
      <point x="137.333" y="-12" type="curve" smooth="yes" name="n03"/>
      <point x="73" y="-12"/>
      <point x="39" y="18"/>
      <point x="39" y="63" type="curve" smooth="yes"/>
      <point x="39" y="73.6667"/>
      <point x="40" y="85.6667"/>
      <point x="42.6667" y="98.6667" type="curve" smooth="yes"/>
      <point x="152" y="663.333" type="line"/>
      <point x="63.6667" y="671.667" type="line"/>
      <point x="63.6667" y="705.667" type="line"/>
      <point x="228.333" y="737" type="line" name="n13"/>
      <point x="285.333" y="737" type="line"/>
      <point x="162.667" y="101" type="line" smooth="yes"/>
      <point x="158.333" y="76.6667"/>
      <point x="169.333" y="50"/>
      <point x="195.333" y="50" type="curve" smooth="yes" name="n18"/>
      <point x="212.333" y="50"/>
      <point x="255.333" y="61.6667"/>
      <point x="290.333" y="76.6667" type="curve"/>
    </contour>
    <contour>
      <point x="146.667" y="-125.667" type="curve" smooth="yes" name="n22"/>
      <point x="146.667" y="-209.333"/>
      <point x="56" y="-260"/>
      <point x="-16.3333" y="-273.333" type="curve"/>
      <point x="-8.33333" y="-235.333" type="line"/>
      <point x="32.3333" y="-224"/>
      <point x="68.3333" y="-200.667"/>
      <point x="77.3333" y="-157" type="curve" name="n29"/>
      <point x="17.6667" y="-157" type="line"/>
      <point x="9.66667" y="-148.667"/>
      <point x="5.66667" y="-137.667"/>
      <point x="5.66667" y="-126.667" type="curve" smooth="yes" name="n33"/>
      <point x="5.66667" y="-86"/>
      <point x="42" y="-61"/>
      <point x="79.3333" y="-61" type="curve" smooth="yes" name="n36"/>
      <point x="119" y="-61"/>
      <point x="146.667" y="-85.6667"/>
    </contour>
  </outline>
</glyph>
<glyph name="lcaron" format="2">
  <advance width="453"/>
  <unicode hex="013E"/>
  <outline>
    <contour>
      <point x="290.333" y="28" type="line"/>
      <point x="253" y="9.33333"/>
      <point x="187.667" y="-12"/>
      <point x="137.333" y="-12" type="curve" smooth="yes" name="n03"/>
      <point x="73" y="-12"/>
      <point x="39" y="18"/>
      <point x="39" y="63" type="curve" smooth="yes"/>
      <point x="39" y="73.6667"/>
      <point x="40" y="85.6667"/>
      <point x="42.6667" y="98.6667" type="curve" smooth="yes"/>
      <point x="152" y="663.333" type="line"/>
      <point x="63.6667" y="671.667" type="line"/>
      <point x="63.6667" y="705.667" type="line"/>
      <point x="228.333" y="737" type="line"/>
      <point x="285.333" y="737" type="line"/>
      <point x="162.667" y="101" type="line" smooth="yes"/>
      <point x="158.333" y="76.6667"/>
      <point x="169.333" y="50"/>
      <point x="195.333" y="50" type="curve" smooth="yes" name="n18"/>
      <point x="212.333" y="50"/>
      <point x="255.333" y="61.6667"/>
      <point x="290.333" y="76.6667" type="curve"/>
    </contour>
    <contour>
      <point x="472.333" y="698.667" type="curve" smooth="yes" name="n22"/>
      <point x="472.333" y="614.667"/>
      <point x="382.667" y="564.333"/>
      <point x="310.333" y="551" type="curve"/>
      <point x="317.667" y="588.667" type="line"/>
      <point x="357.667" y="600.333"/>
      <point x="394.333" y="623.667"/>
      <point x="403.333" y="667.333" type="curve" name="n29"/>
      <point x="343.667" y="667.333" type="line"/>
      <point x="335.667" y="675.667"/>
      <point x="332.333" y="687.333"/>
      <point x="332.333" y="698.333" type="curve" smooth="yes" name="n33"/>
      <point x="332.333" y="738.667"/>
      <point x="369.333" y="763.333"/>
      <point x="406" y="763.333" type="curve" smooth="yes" name="n36"/>
      <point x="445.667" y="763.333"/>
      <point x="472.333" y="738.667"/>
    </contour>
  </outline>
</glyph>
<glyph name="ldot" format="2">
  <advance width="425"/>
  <unicode hex="0140"/>
  <outline>
    <contour>
      <point x="290.333" y="28" type="line"/>
      <point x="253" y="9.33333"/>
      <point x="187.667" y="-12"/>
      <point x="137.333" y="-12" type="curve" smooth="yes" name="n03"/>
      <point x="73" y="-12"/>
      <point x="39" y="18"/>
      <point x="39" y="63" type="curve" smooth="yes"/>
      <point x="39" y="73.6667"/>
      <point x="40" y="85.6667"/>
      <point x="42.6667" y="98.6667" type="curve" smooth="yes"/>
      <point x="152" y="663.333" type="line"/>
      <point x="63.6667" y="671.667" type="line"/>
      <point x="63.6667" y="705.667" type="line"/>
      <point x="228.333" y="737" type="line" name="n13"/>
      <point x="285.333" y="737" type="line"/>
      <point x="162.667" y="101" type="line" smooth="yes"/>
      <point x="158.333" y="76.6667"/>
      <point x="169.333" y="50"/>
      <point x="195.333" y="50" type="curve" smooth="yes" name="n18"/>
      <point x="212.333" y="50"/>
      <point x="255.333" y="61.6667"/>
      <point x="290.333" y="76.6667" type="curve"/>
    </contour>
    <contour>
      <point x="421.333" y="340" type="curve" smooth="yes" name="n22"/>
      <point x="421.333" y="307"/>
      <point x="395.333" y="281"/>
      <point x="362.333" y="281" type="curve" smooth="yes" name="n25"/>
      <point x="329.333" y="281"/>
      <point x="303.333" y="307"/>
      <point x="303.333" y="340" type="curve" smooth="yes" name="n28"/>
      <point x="303.333" y="373"/>
      <point x="329.333" y="399"/>
      <point x="362.333" y="399" type="curve" smooth="yes" name="n31"/>
      <point x="395.333" y="399"/>
      <point x="421.333" y="373"/>
    </contour>
  </outline>
</glyph>
<glyph name="nacute" format="2">
  <advance width="562"/>
  <unicode hex="0144"/>
  <outline>
    <contour>
      <point x="558.333" y="22" type="line"/>
      <point x="529.333" y="8.66667"/>
      <point x="454.333" y="-12" name="n02"/>
      <point x="409.667" y="-12" type="curve" smooth="yes"/>
      <point x="372.333" y="-12"/>
      <point x="304.333" y="-3.66667"/>
      <point x="315.333" y="49.6667" type="curve" smooth="yes"/>
      <point x="376.333" y="355.333" type="line" smooth="yes"/>
      <point x="386.333" y="405.667"/>
      <point x="367" y="421.667"/>
      <point x="345.667" y="421.667" type="curve" smooth="yes" name="n10"/>
      <point x="314.333" y="421.667"/>
      <point x="256.333" y="382.333"/>
      <point x="213.667" y="338" type="curve"/>
      <point x="143.333" y="0" type="line" name="n14"/>
      <point x="23.6667" y="0" type="line"/>
      <point x="111.333" y="425" type="line"/>
      <point x="27.3333" y="433.333" type="line"/>
      <point x="27.3333" y="465.667" type="line"/>
      <point x="187" y="498" type="line"/>
      <point x="246.333" y="498" type="line"/>
      <point x="232" y="428.333" type="line"/>
      <point x="279.333" y="465.333"/>
      <point x="344.333" y="498"/>
      <point x="401.333" y="498" type="curve" smooth="yes" name="n24"/>
      <point x="492.333" y="498"/>
      <point x="519.667" y="454.667"/>
      <point x="503.667" y="368" type="curve" smooth="yes"/>
      <point x="450" y="86.6667" type="line" smooth="yes"/>
      <point x="443.667" y="52"/>
      <point x="469.667" y="46.6667"/>
      <point x="480.333" y="46.6667" type="curve" smooth="yes"/>
      <point x="500.333" y="46.6667"/>
      <point x="529" y="54.6667"/>
      <point x="556.667" y="65.6667" type="curve"/>
    </contour>
    <contour>
      <point x="504.667" y="683.667" type="curve" smooth="yes"/>
      <point x="504.667" y="668.667"/>
      <point x="493.667" y="650.667"/>
      <point x="478.667" y="642" type="curve" smooth="yes"/>
      <point x="322.333" y="551" type="line"/>
      <point x="251.333" y="551" type="line"/>
      <point x="389" y="703.667" type="line" smooth="yes"/>
      <point x="408" y="725.333"/>
      <point x="421.333" y="733.333" name="n43"/>
      <point x="449.333" y="733.333" type="curve" smooth="yes"/>
      <point x="489.667" y="733.333"/>
      <point x="504.667" y="706.333"/>
    </contour>
  </outline>
</glyph>
<glyph name="ncedilla" format="2">
  <advance width="562"/>
  <unicode hex="0146"/>
  <outline>
    <contour>
      <point x="558.333" y="22" type="line"/>
      <point x="529.333" y="8.66667"/>
      <point x="454.333" y="-12" name="n02"/>
      <point x="409.667" y="-12" type="curve" smooth="yes"/>
      <point x="372.333" y="-12"/>
      <point x="304.333" y="-3.66667"/>
      <point x="315.333" y="49.6667" type="curve" smooth="yes"/>
      <point x="376.333" y="355.333" type="line" smooth="yes"/>
      <point x="386.333" y="405.667"/>
      <point x="367" y="421.667"/>
      <point x="345.667" y="421.667" type="curve" smooth="yes" name="n10"/>
      <point x="314.333" y="421.667"/>
      <point x="256.333" y="382.333"/>
      <point x="213.667" y="338" type="curve"/>
      <point x="143.333" y="0" type="line" name="n14"/>
      <point x="23.6667" y="0" type="line"/>
      <point x="111.333" y="425" type="line"/>
      <point x="27.3333" y="433.333" type="line"/>
      <point x="27.3333" y="465.667" type="line"/>
      <point x="187" y="498" type="line"/>
      <point x="246.333" y="498" type="line"/>
      <point x="232" y="428.333" type="line"/>
      <point x="279.333" y="465.333"/>
      <point x="344.333" y="498"/>
      <point x="401.333" y="498" type="curve" smooth="yes" name="n24"/>
      <point x="492.333" y="498"/>
      <point x="519.667" y="454.667"/>
      <point x="503.667" y="368" type="curve" smooth="yes"/>
      <point x="450" y="86.6667" type="line" smooth="yes"/>
      <point x="443.667" y="52"/>
      <point x="469.667" y="46.6667"/>
      <point x="480.333" y="46.6667" type="curve" smooth="yes"/>
      <point x="500.333" y="46.6667"/>
      <point x="529" y="54.6667"/>
      <point x="556.667" y="65.6667" type="curve"/>
    </contour>
    <contour>
      <point x="268.333" y="-125.667" type="curve" smooth="yes" name="n35"/>
      <point x="268.333" y="-209.333"/>
      <point x="178.333" y="-260"/>
      <point x="106" y="-273.333" type="curve"/>
      <point x="113.333" y="-235.333" type="line"/>
      <point x="154" y="-224"/>
      <point x="190" y="-200.667"/>
      <point x="199" y="-157" type="curve" name="n42"/>
      <point x="139.333" y="-157" type="line"/>
      <point x="131.333" y="-148.667"/>
      <point x="128" y="-137.667"/>
      <point x="128" y="-126.667" type="curve" smooth="yes" name="n46"/>
      <point x="128" y="-86"/>
      <point x="164.333" y="-61"/>
      <point x="201.667" y="-61" type="curve" smooth="yes" name="n49"/>
      <point x="241.333" y="-61"/>
      <point x="268.333" y="-85.6667"/>
    </contour>
  </outline>
</glyph>
<glyph name="OE" format="2">
  <advance width="1032"/>
  <unicode hex="0152"/>
  <outline>
    <contour>
      <point x="1062.33" y="671" type="line" name="n00"/>
      <point x="1031.33" y="515.667" type="line" name="n01"/>
      <point x="956.667" y="515.667" type="line"/>
      <point x="956.667" y="599.333" type="line" smooth="yes"/>
      <point x="956.667" y="610.667"/>
      <point x="947" y="615" name="hr01"/>
      <point x="934.667" y="615" type="curve" smooth="yes"/>
      <point x="751.333" y="615" type="line" name="n07"/>
      <point x="704.667" y="377.667" type="line" name="n08"/>
      <point x="825" y="377.667" type="line" smooth="yes" name="n09"/>
      <point x="836.333" y="377.667"/>
      <point x="848.333" y="382.667"/>
      <point x="851" y="394" type="curve"/>
      <point x="871.333" y="463" type="line"/>
      <point x="939.667" y="463" type="line"/>
      <point x="893.333" y="230" type="line"/>
      <point x="825.333" y="230" type="line" name="n16"/>
      <point x="835.667" y="303.667" type="line" smooth="yes"/>
      <point x="837" y="313.333"/>
      <point x="825.333" y="319.667" name="hr02"/>
      <point x="814" y="319.667" type="curve" smooth="yes"/>
      <point x="694.333" y="319.667" type="line" name="n21"/>
      <point x="641.667" y="56.6667" type="line"/>
      <point x="863" y="56.6667" type="line" smooth="yes" name="n23"/>
      <point x="873.333" y="56.6667"/>
      <point x="886.371" y="63.321"/>
      <point x="889" y="72.6667" type="curve"/>
      <point x="921.333" y="171.333" type="line" name="n27"/>
      <point x="993.667" y="171.333" type="line"/>
      <point x="960.333" y="0" type="line" name="n29"/>
      <point x="503.333" y="0" type="line"/>
      <point x="516" y="56.3333" type="line" name="hr04"/>
      <point x="461.333" y="9.66667"/>
      <point x="402.667" y="-16" name="hr05"/>
      <point x="334" y="-16" type="curve" smooth="yes" name="n34"/>
      <point x="165.667" y="-16"/>
      <point x="48" y="91.6667"/>
      <point x="48" y="263.667" type="curve" smooth="yes" name="n37"/>
      <point x="48" y="465"/>
      <point x="193" y="687"/>
      <point x="433" y="687" type="curve" smooth="yes" name="n40"/>
      <point x="527.667" y="687"/>
      <point x="584.667" y="653.333"/>
      <point x="622" y="606.667" type="curve"/>
      <point x="633.667" y="671" type="line" name="n44"/>
    </contour>
    <contour>
      <point x="577" y="417" type="curve" smooth="yes"/>
      <point x="577" y="573"/>
      <point x="489" y="630.333" name="hr07"/>
      <point x="424" y="630.333" type="curve" smooth="yes" name="n48"/>
      <point x="301" y="630.333"/>
      <point x="189" y="435"/>
      <point x="189" y="253.333" type="curve" smooth="yes" name="n51"/>
      <point x="189" y="108"/>
      <point x="271.333" y="42.6667"/>
      <point x="341" y="42.6667" type="curve" smooth="yes" name="n54"/>
      <point x="467" y="42.6667"/>
      <point x="577" y="238"/>
    </contour>
  </outline>
</glyph>
<glyph name="uni0180" format="2">
  <advance width="519"/>
  <unicode hex="0180"/>
  <outline>
    <contour>
      <point x="487.333" y="310.667" type="curve" smooth="yes" name="n00"/>
      <point x="487.333" y="190"/>
      <point x="412.333" y="-12"/>
      <point x="192" y="-12" type="curve" smooth="yes" name="n03"/>
      <point x="125.333" y="-12"/>
      <point x="65.6667" y="6"/>
      <point x="18" y="36.6667" type="curve"/>
      <point x="111" y="534.333" type="line"/>
      <point x="36.6667" y="534.333" type="line" name="n08"/>
      <point x="48.6667" y="596.667" type="line" name="n09"/>
      <point x="123.333" y="596.667" type="line"/>
      <point x="135.333" y="663.333" type="line"/>
      <point x="47" y="671.667" type="line"/>
      <point x="47" y="705.667" type="line"/>
      <point x="211.667" y="737" type="line" name="n14"/>
      <point x="270.333" y="737" type="line"/>
      <point x="242.667" y="596.667" type="line"/>
      <point x="372.333" y="596.667" type="line"/>
      <point x="359.667" y="534.333" type="line"/>
      <point x="231.333" y="534.333" type="line"/>
      <point x="216.667" y="456.667" type="line"/>
      <point x="252.667" y="480.333"/>
      <point x="296.667" y="498"/>
      <point x="336" y="498" type="curve" smooth="yes" name="n23"/>
      <point x="441.667" y="498"/>
      <point x="487.333" y="394.333"/>
    </contour>
    <contour>
      <point x="361.667" y="306.667" type="curve" smooth="yes" name="n26"/>
      <point x="361.667" y="392.667"/>
      <point x="326.333" y="425.333"/>
      <point x="303" y="425.333" type="curve" smooth="yes" name="n29"/>
      <point x="273.667" y="425.333"/>
      <point x="232.667" y="404.667"/>
      <point x="201.667" y="377.667" type="curve"/>
      <point x="145.333" y="77.3333" type="line"/>
      <point x="157" y="59.3333"/>
      <point x="180.667" y="41"/>
      <point x="213.333" y="41" type="curve" smooth="yes" name="n36"/>
      <point x="288" y="41"/>
      <point x="361.667" y="184"/>
    </contour>
  </outline>
</glyph>
<glyph name="uni0181" format="2">
  <advance width="666"/>
  <unicode hex="0181"/>
  <outline>
    <contour>
      <point x="633" y="541" type="curve" smooth="yes" name="n00"/>
      <point x="633" y="442"/>
      <point x="562.667" y="389"/>
      <point x="473" y="357.667" type="curve"/>
      <point x="559.667" y="343"/>
      <point x="614" y="307" name="hr01"/>
      <point x="614" y="225.333" type="curve" smooth="yes" name="n06"/>
      <point x="614" y="64.6667"/>
      <point x="488.667" y="0"/>
      <point x="305" y="0" type="curve" smooth="yes" name="n09"/>
      <point x="17" y="0" type="line"/>
      <point x="17" y="47.3333" type="line"/>
      <point x="43.5882" y="49.7571"/>
      <point x="79.6667" y="52.3333"/>
      <point x="79.6667" y="52.3333" type="curve"/>
      <point x="90.6667" y="52.6667"/>
      <point x="96" y="56"/>
      <point x="99" y="69.3333" type="curve"/>
      <point x="200.667" y="593.333" type="line" smooth="yes"/>
      <point x="202.667" y="604.667"/>
      <point x="195.333" y="610.667"/>
      <point x="182" y="610.667" type="curve" smooth="yes"/>
      <point x="153.667" y="610.667" type="line" smooth="yes"/>
      <point x="127.333" y="610.667"/>
      <point x="117" y="600"/>
      <point x="108.333" y="589.333" type="curve"/>
      <point x="133.333" y="518.667" type="line"/>
      <point x="106.333" y="495"/>
      <point x="88.3333" y="487.667"/>
      <point x="63.3333" y="487.667" type="curve" smooth="yes"/>
      <point x="26.6667" y="487.667"/>
      <point x="4" y="525"/>
      <point x="4" y="554" type="curve" smooth="yes"/>
      <point x="4" y="631.333"/>
      <point x="79" y="671"/>
      <point x="155.667" y="671" type="curve" smooth="yes"/>
      <point x="422" y="671" type="line" smooth="yes" name="n36"/>
      <point x="582.667" y="671"/>
      <point x="633" y="615.333" name="hr02"/>
    </contour>
    <contour>
      <point x="495" y="534" type="curve" smooth="yes" name="n39"/>
      <point x="495" y="597.667"/>
      <point x="441" y="621.333"/>
      <point x="372" y="621.333" type="curve" smooth="yes" name="n42"/>
      <point x="358.667" y="621.333"/>
      <point x="344.667" y="620"/>
      <point x="335" y="619.667" type="curve"/>
      <point x="287.667" y="373.667" type="line"/>
      <point x="299" y="372.667"/>
      <point x="314.333" y="372.333"/>
      <point x="319.667" y="372.333" type="curve" smooth="yes" name="n49"/>
      <point x="427.667" y="372.333"/>
      <point x="495" y="442.667"/>
    </contour>
    <contour>
      <point x="477" y="215.333" type="curve" smooth="yes" name="n52"/>
      <point x="477" y="297"/>
      <point x="415" y="321.667" name="hr03"/>
      <point x="337.667" y="321.667" type="curve" smooth="yes" name="n55"/>
      <point x="318" y="321.667"/>
      <point x="295.667" y="320.333"/>
      <point x="276.333" y="318" type="curve"/>
      <point x="225" y="53.3333" type="line"/>
      <point x="239.333" y="52.3333"/>
      <point x="259.667" y="51.6667"/>
      <point x="272" y="51.6667" type="curve" smooth="yes" name="n62"/>
      <point x="397.667" y="51.6667"/>
      <point x="477" y="108.667"/>
    </contour>
  </outline>
</glyph>
<glyph name="uni0184" format="2">
  <advance width="615"/>
  <unicode hex="0184"/>
  <outline>
    <contour>
      <point x="54" y="477.333" type="line"/>
      <point x="317.333" y="686" type="line"/>
      <point x="255" y="372" type="line"/>
      <point x="265.667" y="372.667"/>
      <point x="294.667" y="375"/>
      <point x="314.333" y="375" type="curve" smooth="yes" name="n05"/>
      <point x="474" y="375"/>
      <point x="598.667" y="329"/>
      <point x="579.333" y="194.667" type="curve" name="n08"/>
      <point x="561.333" y="38.3333"/>
      <point x="436" y="0"/>
      <point x="223.667" y="0" type="curve" smooth="yes" name="n11"/>
      <point x="-26.6667" y="0" type="line"/>
      <point x="-26.6667" y="48.3333" type="line"/>
      <point x="41.3333" y="53" type="line" smooth="yes"/>
      <point x="54" y="54"/>
      <point x="65.3333" y="63.3333"/>
      <point x="67" y="74.6667" type="curve"/>
      <point x="129" y="392.333" type="line"/>
    </contour>
    <contour>
      <point x="443.667" y="196" type="curve" name="n19"/>
      <point x="459" y="295"/>
      <point x="385" y="321.667"/>
      <point x="294.667" y="321.667" type="curve" smooth="yes" name="n22"/>
      <point x="281" y="321.667"/>
      <point x="253" y="318"/>
      <point x="244.333" y="316.667" type="curve"/>
      <point x="192" y="53.3333" type="line"/>
      <point x="197.333" y="53.3333"/>
      <point x="213" y="52"/>
      <point x="228" y="52" type="curve" smooth="yes" name="n29"/>
      <point x="352.333" y="52"/>
      <point x="429.667" y="89.6667"/>
    </contour>
  </outline>
</glyph>
<glyph name="uni018A" format="2">
  <advance width="724"/>
  <unicode hex="018A"/>
  <outline>
    <contour>
      <point x="706" y="414.333" type="curve" smooth="yes" name="n00"/>
      <point x="706" y="173.667"/>
      <point x="532.333" y="0"/>
      <point x="259" y="0" type="curve" smooth="yes" name="n03"/>
      <point x="10" y="0" type="line"/>
      <point x="10" y="47.3333" type="line"/>
      <point x="32.8961" y="49.0615"/>
      <point x="68.6667" y="51.6667"/>
      <point x="68.6667" y="51.6667" type="curve"/>
      <point x="83.6667" y="52.6667"/>
      <point x="89.3333" y="56"/>
      <point x="92" y="69.3333" type="curve" smooth="yes"/>
      <point x="196.333" y="601.333" type="line" smooth="yes"/>
      <point x="197.667" y="608.667"/>
      <point x="189" y="611.333"/>
      <point x="182.333" y="611.333" type="curve" smooth="yes"/>
      <point x="140.667" y="611.333" type="line" smooth="yes"/>
      <point x="121.667" y="611.333"/>
      <point x="110.667" y="598"/>
      <point x="108.667" y="595.333" type="curve"/>
      <point x="136.333" y="525.333" type="line"/>
      <point x="110" y="502.333"/>
      <point x="88" y="489.667"/>
      <point x="67" y="489.667" type="curve" smooth="yes"/>
      <point x="37" y="489.667"/>
      <point x="5" y="519"/>
      <point x="5" y="547.333" type="curve" smooth="yes"/>
      <point x="5" y="625.333"/>
      <point x="76" y="671"/>
      <point x="142.667" y="671" type="curve" smooth="yes"/>
      <point x="373" y="671" type="line" smooth="yes" name="n30"/>
      <point x="571" y="671"/>
      <point x="706" y="600.333"/>
    </contour>
    <contour>
      <point x="570" y="423.333" type="curve" smooth="yes" name="n33"/>
      <point x="570" y="589"/>
      <point x="458.667" y="611"/>
      <point x="348.667" y="614.333" type="curve" name="n36"/>
      <point x="328.333" y="614.333" type="line"/>
      <point x="218.667" y="58.6667" type="line"/>
      <point x="277" y="58.6667" type="line" name="n39"/>
      <point x="461" y="60.6667"/>
      <point x="570" y="232.667"/>
    </contour>
  </outline>
</glyph>
<glyph name="uni018B" format="2">
  <advance width="638"/>
  <unicode hex="018B"/>
  <outline>
    <contour>
      <point x="355" y="149" type="curve" name="n00"/>
      <point x="320.872" y="184.195"/>
      <point x="314.403" y="270.855"/>
      <point x="321.667" y="264.667" type="curve" name="n03"/>
      <point x="307.667" y="243"/>
      <point x="305.333" y="229"/>
      <point x="316.667" y="229" type="curve" name="n06"/>
      <point x="256" y="229"/>
      <point x="234" y="187"/>
      <point x="238.333" y="128" type="curve"/>
      <point x="241.389" y="98.1796"/>
      <point x="287.212" y="127.043"/>
      <point x="342.667" y="145.333" type="curve"/>
      <point x="350.667" y="146.333"/>
      <point x="351" y="147.667"/>
    </contour>
    <contour>
      <point x="531" y="154.667" type="curve"/>
      <point x="546.667" y="201" type="line"/>
      <point x="521.165" y="204"/>
      <point x="407.242" y="208"/>
      <point x="359.667" y="208" type="curve" smooth="yes"/>
      <point x="189.734" y="208"/>
      <point x="115.695" y="255.333"/>
      <point x="107" y="323.333" type="curve"/>
      <point x="104.667" y="430"/>
      <point x="208.987" y="456.672"/>
      <point x="310.333" y="453.333" type="curve"/>
      <point x="328.65" y="447.393"/>
      <point x="336.242" y="427.158"/>
      <point x="351" y="420.333" type="curve" name="n28"/>
      <point x="361.667" y="566.333" type="line"/>
      <point x="364.466" y="579.709"/>
      <point x="369.108" y="622.466"/>
      <point x="362" y="633.667" type="curve" name="n32"/>
      <point x="413" y="633.667" type="line" name="n33"/>
      <point x="406.333" y="631.465"/>
      <point x="399.667" y="616.705"/>
      <point x="397" y="607.667" type="curve"/>
      <point x="353.667" y="546" type="line" name="n37"/>
      <point x="339.005" y="545.662" name="hr01"/>
      <point x="308.753" y="543.667"/>
      <point x="297.667" y="539.333" type="curve"/>
      <point x="284.333" y="469.333" type="line"/>
      <point x="336.266" y="466"/>
      <point x="526.016" y="463.333"/>
      <point x="625" y="463" type="curve"/>
      <point x="644.333" y="428" type="line"/>
      <point x="598.333" y="410.667" type="line"/>
      <point x="581.397" y="410.667"/>
      <point x="525.264" y="407.333"/>
      <point x="504.333" y="400" type="curve" name="n49"/>
      <point x="415.597" y="296.61"/>
      <point x="354.161" y="115.689"/>
      <point x="346" y="101.667" type="curve" name="n52"/>
      <point x="344" y="144.667"/>
      <point x="400" y="160.333"/>
      <point x="459.333" y="159.667" type="curve" smooth="yes" name="n55"/>
      <point x="482.448" y="158.903"/>
      <point x="513.071" y="155.927"/>
    </contour>
  </outline>
</glyph>
<glyph name="uni018E" format="2">
  <advance width="585"/>
  <unicode hex="018E"/>
  <outline>
    <contour>
      <point x="141.667" y="671" type="line" name="n00"/>
      <point x="630.667" y="671" type="line"/>
      <point x="630.667" y="622.667" type="line"/>
      <point x="576.333" y="618" type="line" smooth="yes"/>
      <point x="563.667" y="617"/>
      <point x="551.667" y="608"/>
      <point x="549.667" y="596" type="curve" smooth="yes"/>
      <point x="450.333" y="75" type="line"/>
      <point x="448.667" y="63"/>
      <point x="457" y="54"/>
      <point x="469" y="53" type="curve" smooth="yes"/>
      <point x="521" y="48.3333" type="line"/>
      <point x="521" y="0" type="line"/>
      <point x="-18.3333" y="0" type="line" name="n13"/>
      <point x="15.6667" y="177.667" type="line" name="n14"/>
      <point x="81.6667" y="177.667" type="line"/>
      <point x="78" y="75.3333" type="line"/>
      <point x="77.9764" y="68.3333"/>
      <point x="84.6667" y="56.3333" name="hr01"/>
      <point x="92.6667" y="56.3333" type="curve" smooth="yes" name="n19"/>
      <point x="320" y="56.3333" type="line"/>
      <point x="370" y="318" type="line" name="n21"/>
      <point x="241.667" y="318" type="line" smooth="yes" name="n22"/>
      <point x="233.667" y="318"/>
      <point x="223" y="307"/>
      <point x="220.667" y="300" type="curve" smooth="yes"/>
      <point x="199" y="231.667" type="line"/>
      <point x="141" y="231.667" type="line"/>
      <point x="185.333" y="462.667" type="line" name="hr02"/>
      <point x="243" y="462.667" type="line" name="n29"/>
      <point x="239" y="394.333" type="line" smooth="yes"/>
      <point x="238.667" y="387.333"/>
      <point x="244" y="376.667" name="hr03"/>
      <point x="253" y="376.667" type="curve" smooth="yes"/>
      <point x="381.333" y="376.667" type="line" name="n34"/>
      <point x="427.333" y="616.333" type="line"/>
      <point x="232.333" y="616.333" type="line" smooth="yes" name="n36"/>
      <point x="223.333" y="616.333"/>
      <point x="214" y="607.333"/>
      <point x="210.333" y="597.333" type="curve" smooth="yes"/>
      <point x="179" y="514.667" type="line" name="hr04"/>
      <point x="111.333" y="514.667" type="line" name="n41"/>
    </contour>
  </outline>
</glyph>
<glyph name="uni0190" format="2">
  <advance width="571"/>
  <unicode hex="0190"/>
  <outline>
    <contour>
      <point x="587" y="567" type="curve" smooth="yes"/>
      <point x="587" y="528"/>
      <point x="552" y="492"/>
      <point x="498.333" y="492" type="curve" smooth="yes" name="n03"/>
      <point x="472.667" y="492"/>
      <point x="453" y="508.333"/>
      <point x="453" y="508.333" type="curve"/>
      <point x="411.333" y="619.667" type="line"/>
      <point x="403.333" y="623.333"/>
      <point x="394" y="625" name="hr01"/>
      <point x="389" y="625" type="curve" smooth="yes" name="n10"/>
      <point x="324" y="625"/>
      <point x="260" y="555.667"/>
      <point x="260" y="469.667" type="curve" smooth="yes" name="n13"/>
      <point x="260" y="394.333"/>
      <point x="317.667" y="379.667"/>
      <point x="354" y="379.667" type="curve" smooth="yes" name="n16"/>
      <point x="360" y="379.667"/>
      <point x="369.667" y="380.333"/>
      <point x="401.667" y="381.333" type="curve"/>
      <point x="387.667" y="308.333" type="line"/>
      <point x="352" y="312.333"/>
      <point x="329.333" y="314.667"/>
      <point x="317" y="314.667" type="curve" smooth="yes" name="n23"/>
      <point x="239.667" y="314.667"/>
      <point x="160" y="266.667" name="hr02"/>
      <point x="160" y="164" type="curve" smooth="yes" name="n26"/>
      <point x="160" y="83.6667"/>
      <point x="228.667" y="42"/>
      <point x="279" y="42" type="curve" smooth="yes" name="n29"/>
      <point x="307" y="42"/>
      <point x="332" y="49.6667"/>
      <point x="359.667" y="72" type="curve"/>
      <point x="399.667" y="159.333" type="line"/>
      <point x="410" y="162.667"/>
      <point x="436.333" y="168.667"/>
      <point x="450" y="168.667" type="curve" smooth="yes"/>
      <point x="490.333" y="168.667"/>
      <point x="511.333" y="145.667"/>
      <point x="511.333" y="116.667" type="curve" smooth="yes"/>
      <point x="511.333" y="47"/>
      <point x="387.667" y="-16"/>
      <point x="268" y="-16" type="curve" smooth="yes" name="n42"/>
      <point x="121" y="-16"/>
      <point x="20" y="31.6667"/>
      <point x="20" y="148" type="curve" smooth="yes" name="n45"/>
      <point x="20" y="295"/>
      <point x="142.667" y="341.333"/>
      <point x="227.333" y="355.667" type="curve"/>
      <point x="163.333" y="383.333"/>
      <point x="123" y="421.333" name="hr03"/>
      <point x="123" y="480.667" type="curve" smooth="yes" name="n51"/>
      <point x="123" y="600"/>
      <point x="230.667" y="687"/>
      <point x="377" y="687" type="curve" smooth="yes" name="n54"/>
      <point x="494.667" y="687"/>
      <point x="587" y="657.667"/>
    </contour>
  </outline>
</glyph>
<glyph name="uni0194" format="2">
  <advance width="685"/>
  <unicode hex="0194"/>
  <outline>
    <contour>
      <point x="750.667" y="624" type="line"/>
      <point x="681.667" y="616.667" type="line"/>
      <point x="400" y="268" type="line"/>
      <point x="412.333" y="231.667"/>
      <point x="447" y="157.333"/>
      <point x="447" y="116.333" type="curve" smooth="yes" name="n05"/>
      <point x="447" y="32.3333"/>
      <point x="366" y="-16"/>
      <point x="289" y="-16" type="curve" smooth="yes" name="n08"/>
      <point x="240.667" y="-16"/>
      <point x="173.667" y="1"/>
      <point x="173.667" y="61.6667" type="curve" smooth="yes" name="n11"/>
      <point x="173.667" y="117.667"/>
      <point x="247.667" y="194.667"/>
      <point x="276.667" y="228.667" type="curve"/>
      <point x="146" y="616.333" type="line"/>
      <point x="81" y="624" type="line"/>
      <point x="81" y="671" type="line"/>
      <point x="365.667" y="671" type="line"/>
      <point x="365.667" y="624" type="line"/>
      <point x="306.667" y="619" type="line" smooth="yes"/>
      <point x="292.667" y="617.994"/>
      <point x="283" y="608.667"/>
      <point x="288.333" y="590.667" type="curve"/>
      <point x="288.333" y="590.667"/>
      <point x="368.333" y="359.333"/>
      <point x="375.667" y="338.667" type="curve"/>
      <point x="396.333" y="363.667"/>
      <point x="582" y="593"/>
      <point x="582" y="593" type="curve"/>
      <point x="592" y="606"/>
      <point x="586" y="617.667"/>
      <point x="564" y="620.333" type="curve" name="n32"/>
      <point x="522" y="624" type="line"/>
      <point x="522" y="671" type="line" name="n34"/>
      <point x="750.667" y="671" type="line"/>
    </contour>
    <contour>
      <point x="322.667" y="85" type="curve" smooth="yes" name="n36"/>
      <point x="322.667" y="102"/>
      <point x="307" y="140.333"/>
      <point x="301.333" y="155.667" type="curve"/>
      <point x="283.333" y="134.667"/>
      <point x="250.333" y="97"/>
      <point x="250.333" y="67" type="curve" smooth="yes" name="n42"/>
      <point x="250.333" y="48.6667"/>
      <point x="267.667" y="40.6667"/>
      <point x="284.333" y="40.6667" type="curve" smooth="yes" name="n45"/>
      <point x="309.333" y="40.6667"/>
      <point x="322.667" y="60.6667"/>
    </contour>
  </outline>
</glyph>
<glyph name="uni0196" format="2">
  <advance width="436"/>
  <unicode hex="0196"/>
  <outline>
    <contour>
      <point x="425" y="96.3333" type="curve" smooth="yes"/>
      <point x="425" y="22.6667"/>
      <point x="304.667" y="-16"/>
      <point x="231.667" y="-16" type="curve" smooth="yes" name="n03"/>
      <point x="140" y="-16"/>
      <point x="77" y="14.6667"/>
      <point x="77" y="96" type="curve" smooth="yes" name="n06"/>
      <point x="77" y="111"/>
      <point x="79" y="126"/>
      <point x="82" y="141" type="curve" smooth="yes"/>
      <point x="170.333" y="598.667" type="line" smooth="yes"/>
      <point x="172.333" y="609"/>
      <point x="167" y="617.667"/>
      <point x="150" y="619.333" type="curve"/>
      <point x="150" y="619.333"/>
      <point x="119.61" y="621.225"/>
      <point x="96" y="623.667" type="curve"/>
      <point x="96" y="671" type="line" name="n17"/>
      <point x="314.667" y="671" type="line"/>
      <point x="215" y="162.333" type="line"/>
      <point x="213" y="150.333"/>
      <point x="211" y="138"/>
      <point x="211" y="126" type="curve" smooth="yes" name="n22"/>
      <point x="211" y="82.3333"/>
      <point x="242.333" y="57.3333"/>
      <point x="281.667" y="53.3333" type="curve" name="n25"/>
      <point x="344.667" y="176.667" type="line"/>
      <point x="395.667" y="172.333"/>
      <point x="425" y="130.667"/>
    </contour>
  </outline>
</glyph>
<glyph name="uni0198" format="2">
  <advance width="684"/>
  <unicode hex="0198"/>
  <outline>
    <contour>
      <point x="771" y="585" type="curve" smooth="yes" name="n00"/>
      <point x="771" y="551.667"/>
      <point x="742.667" y="507"/>
      <point x="704" y="506.333" type="curve" smooth="yes"/>
      <point x="674.333" y="505.333"/>
      <point x="662.667" y="517.333"/>
      <point x="653.333" y="522.667" type="curve"/>
      <point x="653.333" y="624.333" type="line" name="n07"/>
      <point x="648.333" y="629.333"/>
      <point x="637" y="634.333"/>
      <point x="625.667" y="634.333" type="curve" smooth="yes" name="n10"/>
      <point x="610.667" y="634.333"/>
      <point x="598" y="622.667"/>
      <point x="582" y="604.333" type="curve" smooth="yes"/>
      <point x="374" y="367.333" type="line"/>
      <point x="513" y="101.667" type="line" smooth="yes"/>
      <point x="536.667" y="56"/>
      <point x="545.667" y="46.6667"/>
      <point x="578" y="46" type="curve" name="n18"/>
      <point x="588.667" y="46"/>
      <point x="626.667" y="49"/>
      <point x="634" y="49.3333" type="curve"/>
      <point x="634" y="2" type="line" name="n22"/>
      <point x="599.667" y="-8.33333"/>
      <point x="559.333" y="-16" name="hr02"/>
      <point x="526" y="-16" type="curve" smooth="yes" name="n25"/>
      <point x="452.667" y="-16"/>
      <point x="424" y="4.66667"/>
      <point x="394.667" y="60.6667" type="curve" smooth="yes"/>
      <point x="273.667" y="292.333" type="line"/>
      <point x="239.333" y="292.333" type="line"/>
      <point x="195" y="68.6667" type="line"/>
      <point x="193" y="56.6667"/>
      <point x="199.333" y="52.6667"/>
      <point x="212.333" y="51.6667" type="curve"/>
      <point x="212.333" y="51.6667"/>
      <point x="245.87" y="49.0515"/>
      <point x="266.333" y="47.3333" type="curve"/>
      <point x="266.333" y="0" type="line"/>
      <point x="-16" y="0" type="line"/>
      <point x="-16" y="47.3333" type="line"/>
      <point x="5.32637" y="49.0109"/>
      <point x="45.3333" y="51.6667"/>
      <point x="45.3333" y="51.6667" type="curve"/>
      <point x="56.3333" y="52"/>
      <point x="64" y="56.6667"/>
      <point x="66" y="69.3333" type="curve"/>
      <point x="171" y="602" type="line"/>
      <point x="173.667" y="613.667"/>
      <point x="168.333" y="618.333"/>
      <point x="156" y="619.333" type="curve"/>
      <point x="156" y="619.333"/>
      <point x="123.928" y="621.256"/>
      <point x="102" y="623.667" type="curve"/>
      <point x="102" y="671" type="line" name="n54"/>
      <point x="377.333" y="671" type="line"/>
      <point x="377.333" y="623.667" type="line"/>
      <point x="354.491" y="621.256"/>
      <point x="321" y="619.333"/>
      <point x="321" y="619.333" type="curve"/>
      <point x="310" y="618.333"/>
      <point x="303" y="614.333"/>
      <point x="300" y="601.333" type="curve"/>
      <point x="254.667" y="369.333" type="line"/>
      <point x="265.333" y="369.333" type="line"/>
      <point x="491" y="631.333" type="line" smooth="yes"/>
      <point x="522.333" y="667.667"/>
      <point x="575" y="687" name="hr03"/>
      <point x="622.333" y="687" type="curve" smooth="yes" name="n68"/>
      <point x="691.667" y="687"/>
      <point x="771" y="644.667"/>
    </contour>
  </outline>
</glyph>
<glyph name="uni0199" format="2">
  <advance width="535"/>
  <unicode hex="0199"/>
  <outline>
    <contour>
      <point x="524.333" y="25" type="line"/>
      <point x="491.333" y="8"/>
      <point x="428.333" y="-12"/>
      <point x="387" y="-12" type="curve" smooth="yes" name="n03"/>
      <point x="352.333" y="-12"/>
      <point x="313" y="14.3333"/>
      <point x="295.667" y="40.3333" type="curve" smooth="yes"/>
      <point x="272" y="76.6667"/>
      <point x="226.333" y="180"/>
      <point x="202.667" y="230.667" type="curve"/>
      <point x="173.333" y="204.333" type="line"/>
      <point x="131.667" y="0" type="line" name="n11"/>
      <point x="12.3333" y="0" type="line"/>
      <point x="110.667" y="487.667" type="line" smooth="yes"/>
      <point x="121.333" y="540.667"/>
      <point x="135.667" y="585.667"/>
      <point x="166" y="628.333" type="curve" smooth="yes"/>
      <point x="211.333" y="693"/>
      <point x="286.333" y="737"/>
      <point x="393" y="737" type="curve" smooth="yes" name="n19"/>
      <point x="459.667" y="737"/>
      <point x="480" y="704.333"/>
      <point x="478" y="671.333" type="curve" smooth="yes"/>
      <point x="475.333" y="625"/>
      <point x="422.333" y="612"/>
      <point x="401.667" y="608" type="curve"/>
      <point x="353" y="672.667" type="line" name="n26"/>
      <point x="299.333" y="672.333"/>
      <point x="257.667" y="618.333"/>
      <point x="240" y="533.667" type="curve" smooth="yes"/>
      <point x="194" y="308" type="line"/>
      <point x="322.667" y="440.333" type="line" smooth="yes"/>
      <point x="362.667" y="482"/>
      <point x="393.333" y="498" name="n33"/>
      <point x="431" y="498" type="curve" smooth="yes"/>
      <point x="478.667" y="498"/>
      <point x="509.667" y="467.667"/>
      <point x="509.333" y="441.333" type="curve"/>
      <point x="509.333" y="417.667"/>
      <point x="498.667" y="377.333"/>
      <point x="431.667" y="354.667" type="curve"/>
      <point x="393.667" y="410" type="line"/>
      <point x="360" y="382.667"/>
      <point x="314.333" y="337.667"/>
      <point x="287.333" y="313.667" type="curve"/>
      <point x="305.333" y="279.667"/>
      <point x="329.333" y="205"/>
      <point x="358.667" y="151" type="curve" smooth="yes"/>
      <point x="388" y="97.6667"/>
      <point x="414.667" y="48" name="hr02"/>
      <point x="449" y="48" type="curve" smooth="yes" name="n50"/>
      <point x="454.333" y="48"/>
      <point x="481.333" y="53.6667"/>
      <point x="524.333" y="71.6667" type="curve"/>
    </contour>
  </outline>
</glyph>
<glyph name="uni019E" format="2">
  <advance width="562"/>
  <unicode hex="019E"/>
  <outline>
    <contour>
      <point x="515.333" y="-196" type="line"/>
      <point x="486.333" y="-208.667"/>
      <point x="411.333" y="-229" name="n02"/>
      <point x="366.667" y="-229" type="curve" smooth="yes"/>
      <point x="329.333" y="-229"/>
      <point x="261.333" y="-221.667"/>
      <point x="272.333" y="-168.333" type="curve" smooth="yes"/>
      <point x="376.333" y="355.333" type="line" smooth="yes"/>
      <point x="386.333" y="405.667"/>
      <point x="367" y="421.667"/>
      <point x="345.667" y="421.667" type="curve" smooth="yes" name="n10"/>
      <point x="314.333" y="421.667"/>
      <point x="256.333" y="382.333"/>
      <point x="213.667" y="338" type="curve"/>
      <point x="143.333" y="0" type="line" name="n14"/>
      <point x="23.6667" y="0" type="line"/>
      <point x="111.333" y="425" type="line"/>
      <point x="27.3333" y="433.333" type="line"/>
      <point x="27.3333" y="465.667" type="line"/>
      <point x="187" y="498" type="line"/>
      <point x="246.333" y="498" type="line"/>
      <point x="232" y="428.333" type="line"/>
      <point x="279.333" y="465.333"/>
      <point x="344.333" y="498"/>
      <point x="401.333" y="498" type="curve" smooth="yes" name="n24"/>
      <point x="492.333" y="498"/>
      <point x="520" y="453.667"/>
      <point x="503.667" y="368" type="curve" smooth="yes"/>
      <point x="407" y="-130.333" type="line" smooth="yes"/>
      <point x="400.667" y="-166"/>
      <point x="426.667" y="-170.667"/>
      <point x="437.333" y="-170.667" type="curve" smooth="yes"/>
      <point x="457.333" y="-170.667"/>
      <point x="486.667" y="-163.333"/>
      <point x="513.667" y="-152.333" type="curve"/>
    </contour>
  </outline>
</glyph>
<glyph name="Ohorn" format="2">
  <advance width="793"/>
  <unicode hex="01A0"/>
  <outline>
    <contour>
      <point x="847" y="712.904" type="curve" smooth="yes" name="n00"/>
      <point x="847" y="634"/>
      <point x="789.667" y="547.333"/>
      <point x="707" y="501.667" type="curve"/>
      <point x="715" y="475.333"/>
      <point x="719" y="447" name="hr01"/>
      <point x="719" y="411.959" type="curve" smooth="yes" name="n06"/>
      <point x="719" y="210.667"/>
      <point x="587.871" y="-16"/>
      <point x="336.361" y="-16" type="curve" smooth="yes" name="n09"/>
      <point x="156.667" y="-16"/>
      <point x="48" y="99.3333"/>
      <point x="48" y="272.073" type="curve" smooth="yes" name="n12"/>
      <point x="48" y="473.667"/>
      <point x="196" y="687.667"/>
      <point x="437.382" y="687.667" type="curve" smooth="yes" name="n15"/>
      <point x="554.283" y="687.667"/>
      <point x="637.107" y="637"/>
      <point x="683" y="557.333" type="curve"/>
      <point x="724.333" y="585.333"/>
      <point x="744.333" y="624.667"/>
      <point x="754" y="675" type="curve" name="n21"/>
      <point x="663.667" y="675" type="line"/>
      <point x="651.958" y="691.872"/>
      <point x="644" y="714.362"/>
      <point x="644" y="734.99" type="curve" smooth="yes" name="n25"/>
      <point x="644" y="787.333"/>
      <point x="691.333" y="824"/>
      <point x="744.123" y="824" type="curve" smooth="yes" name="n28"/>
      <point x="798.333" y="824"/>
      <point x="847" y="785.333"/>
    </contour>
    <contour>
      <point x="578.333" y="413.057" type="curve" smooth="yes" name="n31"/>
      <point x="578.333" y="552" name="hr03"/>
      <point x="504.062" y="631"/>
      <point x="423.599" y="631" type="curve" smooth="yes" name="n34"/>
      <point x="297.392" y="631"/>
      <point x="189" y="434.333"/>
      <point x="189" y="262.992" type="curve" smooth="yes" name="n37"/>
      <point x="189" y="118.333"/>
      <point x="266.282" y="42.6667"/>
      <point x="343.673" y="42.6667" type="curve" smooth="yes" name="n40"/>
      <point x="469.271" y="42.6667"/>
      <point x="578.333" y="244.667"/>
    </contour>
  </outline>
</glyph>
<glyph name="uni01A3" format="2">
  <advance width="798"/>
  <unicode hex="01A3"/>
  <outline>
    <contour>
      <point x="334.667" y="141.333" type="curve" smooth="yes"/>
      <point x="393.667" y="425.667" type="line"/>
      <point x="361" y="445"/>
      <point x="340.333" y="447.667"/>
      <point x="308" y="447.667" type="curve" smooth="yes" name="n04"/>
      <point x="223" y="447.667"/>
      <point x="160.667" y="302.667"/>
      <point x="160.667" y="184" type="curve" smooth="yes" name="n07"/>
      <point x="160.667" y="82.6667"/>
      <point x="201" y="39.6667"/>
      <point x="241.333" y="39.6667" type="curve" smooth="yes" name="n10"/>
      <point x="295.667" y="39.6667"/>
      <point x="320.667" y="71.6667"/>
    </contour>
    <contour>
      <point x="293" y="29.3333" type="curve"/>
      <point x="192" y="4.33333"/>
      <point x="123" y="43.3333"/>
      <point x="95.6667" y="116.667" type="curve" name="n16"/>
      <point x="53" y="221.333"/>
      <point x="93.6667" y="353.667"/>
      <point x="234.333" y="392.333" type="curve" name="n19"/>
      <point x="308.333" y="446.333"/>
      <point x="395" y="474"/>
      <point x="493.333" y="474" type="curve" smooth="yes" name="n22"/>
      <point x="548.667" y="474"/>
      <point x="617.667" y="465.333"/>
      <point x="667.667" y="478" type="curve"/>
      <point x="684.393" y="478"/>
      <point x="728.793" y="479.667"/>
      <point x="753.667" y="486" type="curve"/>
      <point x="684" y="64" type="line"/>
      <point x="673.321" y="10.083"/>
      <point x="653.841" y="-119.295"/>
      <point x="654.667" y="-163.667" type="curve"/>
      <point x="661.421" y="-168.919"/>
      <point x="684.938" y="-172.134"/>
      <point x="696.333" y="-173" type="curve"/>
      <point x="717" y="-206" type="line"/>
      <point x="522.333" y="-218.667" type="line" name="n37"/>
      <point x="438" y="-187.333" type="line"/>
      <point x="477.333" y="-172" type="line"/>
      <point x="488.93" y="-171.718"/>
      <point x="508.592" y="-163.264"/>
      <point x="512.667" y="-155" type="curve"/>
      <point x="529.587" y="-90.0627"/>
      <point x="578.28" y="138.731"/>
      <point x="592" y="208" type="curve"/>
      <point x="573.567" y="225.396"/>
      <point x="554.569" y="364.323"/>
      <point x="539.333" y="391.667" type="curve"/>
      <point x="526.194" y="366.696"/>
      <point x="485.103" y="241.848"/>
      <point x="473" y="222" type="curve"/>
      <point x="454.155" y="131.594"/>
      <point x="356.51" y="43.1578"/>
    </contour>
  </outline>
</glyph>
<glyph name="uni01A6" format="2">
  <advance width="643"/>
  <unicode hex="01A6"/>
  <outline>
    <contour>
      <point x="283" y="339" type="line" smooth="yes"/>
      <point x="358" y="339"/>
      <point x="439.667" y="364"/>
      <point x="439.667" y="446.382" type="curve" smooth="yes" name="n03"/>
      <point x="439.667" y="508"/>
      <point x="394" y="532"/>
      <point x="319" y="532" type="curve" smooth="yes"/>
      <point x="288.667" y="532" type="line" name="n07"/>
      <point x="246.575" y="339" type="line" name="n08"/>
    </contour>
    <contour>
      <point x="257.667" y="285" type="curve" smooth="yes"/>
      <point x="235.333" y="285" type="line" name="n10"/>
      <point x="189.333" y="68.6667" type="line" smooth="yes"/>
      <point x="188.487" y="64.6859"/>
      <point x="192.135" y="53.5504"/>
      <point x="204.333" y="52.6667" type="curve" smooth="yes"/>
      <point x="273.333" y="47.6667" type="line"/>
      <point x="273.333" y="0" type="line"/>
      <point x="-15" y="0" type="line"/>
      <point x="-15" y="47.3333" type="line"/>
      <point x="37.6667" y="51.6667" type="line" smooth="yes"/>
      <point x="50.3287" y="52.7186"/>
      <point x="55.9662" y="58.0697"/>
      <point x="58.3333" y="69.3333" type="curve" smooth="yes"/>
      <point x="170.333" y="602" type="line" smooth="yes"/>
      <point x="171.205" y="606.147"/>
      <point x="167.232" y="617.686"/>
      <point x="155.333" y="618.667" type="curve" smooth="yes"/>
      <point x="94.6667" y="623.667" type="line"/>
      <point x="94.6667" y="671" type="line"/>
      <point x="386.667" y="671" type="line"/>
      <point x="386.667" y="629" type="line"/>
      <point x="323.667" y="624" type="line" smooth="yes"/>
      <point x="311.002" y="622.979"/>
      <point x="305.589" y="620.013"/>
      <point x="302.667" y="604" type="curve" smooth="yes"/>
      <point x="298.667" y="582" type="line" name="n35"/>
      <point x="360" y="582" type="line" smooth="yes"/>
      <point x="493.333" y="582"/>
      <point x="578.333" y="544"/>
      <point x="578.333" y="457.007" type="curve" smooth="yes" name="n39"/>
      <point x="578.333" y="359.667"/>
      <point x="471.667" y="309.667"/>
      <point x="383.333" y="293" type="curve"/>
      <point x="437.949" y="270.634"/>
      <point x="460.05" y="236.823"/>
      <point x="484.357" y="154.361" type="curve" smooth="yes"/>
      <point x="504.367" y="87.85" type="line" smooth="yes"/>
      <point x="523.061" y="24.3901"/>
      <point x="549.076" y="-7"/>
      <point x="593.509" y="-7" type="curve" smooth="yes" name="n49"/>
      <point x="601.333" y="-7"/>
      <point x="612" y="-6"/>
      <point x="617.667" y="-5" type="curve"/>
      <point x="617.667" y="-53.6667" type="line"/>
      <point x="595" y="-61.6667"/>
      <point x="571.667" y="-68"/>
      <point x="538.044" y="-68" type="curve" smooth="yes" name="n56"/>
      <point x="433.632" y="-68"/>
      <point x="406.757" y="-6.81893"/>
      <point x="381.276" y="73.0288" type="curve" smooth="yes"/>
      <point x="352.945" y="162.905" type="line" smooth="yes"/>
      <point x="328.721" y="239.007"/>
      <point x="310.747" y="285"/>
    </contour>
  </outline>
</glyph>
<glyph name="uni01A8" format="2">
  <advance width="401"/>
  <unicode hex="01A8"/>
  <outline>
    <contour>
      <point x="223.667" y="450" type="curve" smooth="yes" name="n00"/>
      <point x="210.333" y="450"/>
      <point x="191" y="443.333"/>
      <point x="187" y="440.333" type="curve"/>
      <point x="159.333" y="369.333" type="line"/>
      <point x="151.667" y="367.333"/>
      <point x="130.667" y="358.667"/>
      <point x="116" y="359.333" type="curve" smooth="yes"/>
      <point x="86.3333" y="360.333"/>
      <point x="67" y="381.667"/>
      <point x="67" y="409.667" type="curve" smooth="yes"/>
      <point x="67" y="467"/>
      <point x="151" y="497"/>
      <point x="231.333" y="497" type="curve" smooth="yes" name="n13"/>
      <point x="328.667" y="497"/>
      <point x="389.333" y="457"/>
      <point x="389.333" y="389.333" type="curve" smooth="yes" name="n16"/>
      <point x="389.333" y="306.333"/>
      <point x="318.667" y="268.667"/>
      <point x="248.333" y="220.667" type="curve" smooth="yes"/>
      <point x="181" y="174.667"/>
      <point x="125.667" y="146"/>
      <point x="125.667" y="92.3333" type="curve" smooth="yes" name="n22"/>
      <point x="125.667" y="67.6667"/>
      <point x="145.667" y="37"/>
      <point x="180.667" y="37" type="curve" smooth="yes" name="n25"/>
      <point x="208.667" y="37"/>
      <point x="225.667" y="45"/>
      <point x="245" y="64.6667" type="curve"/>
      <point x="262" y="134.667" type="line"/>
      <point x="268" y="138.667"/>
      <point x="294" y="145.333"/>
      <point x="317.333" y="145.333" type="curve" smooth="yes"/>
      <point x="340.667" y="145.333"/>
      <point x="365" y="126.333"/>
      <point x="365" y="93.3333" type="curve" smooth="yes"/>
      <point x="365" y="30"/>
      <point x="270" y="-12"/>
      <point x="184.667" y="-12" type="curve" smooth="yes" name="n38"/>
      <point x="83.6667" y="-12"/>
      <point x="15.3333" y="27.3333"/>
      <point x="15.3333" y="101" type="curve" smooth="yes" name="n41"/>
      <point x="15.3333" y="186.333"/>
      <point x="90.6667" y="237.333"/>
      <point x="160" y="279.333" type="curve" smooth="yes"/>
      <point x="232.667" y="323"/>
      <point x="280.333" y="360.333"/>
      <point x="280.333" y="398.667" type="curve" smooth="yes" name="n47"/>
      <point x="280.333" y="429.333"/>
      <point x="252" y="450"/>
    </contour>
  </outline>
</glyph>
<glyph name="uni01AC" format="2">
  <advance width="613"/>
  <unicode hex="01AC"/>
  <outline>
    <contour>
      <point x="677.667" y="671" type="line" name="n00"/>
      <point x="643.333" y="503.333" type="line" name="n01"/>
      <point x="570.333" y="503.333" type="line"/>
      <point x="575" y="604" type="line"/>
      <point x="576" y="614.667"/>
      <point x="565.333" y="619.333" name="hr01"/>
      <point x="554" y="619.333" type="curve" smooth="yes"/>
      <point x="438.333" y="619.333" type="line"/>
      <point x="335" y="68.6667" type="line" smooth="yes"/>
      <point x="333" y="57.3333"/>
      <point x="340.333" y="53.3333"/>
      <point x="354.333" y="52.3333" type="curve"/>
      <point x="354.333" y="52.3333"/>
      <point x="389.567" y="49.7222"/>
      <point x="412" y="47.3333" type="curve"/>
      <point x="412" y="0" type="line" name="n15"/>
      <point x="124" y="0" type="line"/>
      <point x="124" y="47.3333" type="line"/>
      <point x="145.904" y="49.0607"/>
      <point x="180" y="51.6667"/>
      <point x="180" y="51.6667" type="curve"/>
      <point x="193.333" y="52.6667"/>
      <point x="204" y="56.6667"/>
      <point x="206" y="69.3333" type="curve"/>
      <point x="309.333" y="619.333" type="line"/>
      <point x="204" y="619.333" type="line" smooth="yes" name="n25"/>
      <point x="160" y="619.333"/>
      <point x="141.667" y="608"/>
      <point x="141.667" y="582.333" type="curve"/>
      <point x="207.333" y="514.333" type="line"/>
      <point x="194.333" y="482"/>
      <point x="161" y="463.333" name="hr02"/>
      <point x="135.667" y="463.333" type="curve" smooth="yes" name="n32"/>
      <point x="94" y="463.333"/>
      <point x="63.3333" y="492.667"/>
      <point x="63.3333" y="543.333" type="curve" smooth="yes"/>
      <point x="63.3333" y="629.333"/>
      <point x="127.667" y="671"/>
      <point x="217" y="671" type="curve" smooth="yes" name="n38"/>
    </contour>
  </outline>
</glyph>
<glyph name="uni01AE" format="2">
  <advance width="613"/>
  <unicode hex="01AE"/>
  <outline>
    <contour>
      <point x="270.333" y="239" type="curve"/>
      <point x="303" y="403" type="line"/>
      <point x="287.734" y="390.869"/>
      <point x="239.776" y="379.578"/>
      <point x="230.156" y="370.336" type="curve" name="n04"/>
      <point x="224.156" y="360.279"/>
      <point x="215.601" y="349.315"/>
      <point x="219.333" y="339.667" type="curve"/>
      <point x="230.333" y="291.333" type="line"/>
      <point x="228.394" y="289.299"/>
      <point x="200.937" y="284.985"/>
      <point x="189.376" y="275.866" type="curve"/>
      <point x="193.547" y="282.192"/>
      <point x="193.006" y="350.757" name="n13"/>
      <point x="183" y="370.333" type="curve"/>
      <point x="232.63" y="370.333"/>
      <point x="455.581" y="395.667"/>
      <point x="524.667" y="427.333" type="curve" name="n17"/>
      <point x="520.855" y="419.472"/>
      <point x="506.446" y="352.657"/>
      <point x="504.333" y="344" type="curve"/>
      <point x="488.667" y="539.667" type="line"/>
      <point x="450.333" y="611" type="line" name="n22"/>
      <point x="446.615" y="617.03"/>
      <point x="435.507" y="617.255"/>
      <point x="427.333" y="612.938" type="curve"/>
      <point x="344.333" y="583.333" type="line"/>
      <point x="243.333" y="160.667" type="line" name="n27"/>
      <point x="240.505" y="145.697"/>
      <point x="243.015" y="157.38"/>
      <point x="244.333" y="146.333" type="curve" name="n30"/>
      <point x="282.214" y="133.667"/>
      <point x="404.252" y="124.333"/>
      <point x="435" y="116.333" type="curve"/>
      <point x="491.333" y="105.333" type="line"/>
      <point x="511.693" y="95.3333"/>
      <point x="511.701" y="86"/>
      <point x="508.333" y="67.5568" type="curve"/>
      <point x="508.555" y="40.2649"/>
      <point x="470.77" y="44.5035"/>
      <point x="437.667" y="49.6049" type="curve"/>
      <point x="336.333" y="54.3613"/>
      <point x="310.308" y="113.001"/>
      <point x="305.341" y="169.692" type="curve"/>
      <point x="297.966" y="193.667"/>
      <point x="273.414" y="216.333"/>
    </contour>
  </outline>
</glyph>
<glyph name="uni01B1" format="2">
  <advance width="736"/>
  <unicode hex="01B1"/>
  <outline>
    <contour>
      <point x="736" y="671" type="line" name="n00"/>
      <point x="725" y="613.667" type="line"/>
      <point x="664" y="606.667" type="line"/>
      <point x="650.333" y="605.667"/>
      <point x="645.333" y="597.333"/>
      <point x="649.667" y="587" type="curve"/>
      <point x="649.667" y="587"/>
      <point x="668" y="539.333"/>
      <point x="671" y="533" type="curve"/>
      <point x="687" y="483.667"/>
      <point x="704" y="430.667"/>
      <point x="704" y="378.333" type="curve" smooth="yes" name="n11"/>
      <point x="704" y="184"/>
      <point x="539" y="-16"/>
      <point x="314" y="-16" type="curve" smooth="yes" name="n14"/>
      <point x="141" y="-16"/>
      <point x="48" y="91.3333"/>
      <point x="48" y="237.667" type="curve" smooth="yes" name="n17"/>
      <point x="48" y="328"/>
      <point x="94" y="417"/>
      <point x="144" y="492.333" type="curve" smooth="yes"/>
      <point x="151.667" y="504"/>
      <point x="215.333" y="587"/>
      <point x="215.333" y="587" type="curve"/>
      <point x="222.333" y="597"/>
      <point x="220.333" y="607.667"/>
      <point x="206.333" y="608.667" type="curve" smooth="yes"/>
      <point x="149.333" y="613.667" type="line"/>
      <point x="162.667" y="671" type="line"/>
      <point x="366.333" y="671" type="line"/>
      <point x="274" y="554.333"/>
      <point x="201" y="380.333"/>
      <point x="201" y="237.667" type="curve" smooth="yes" name="n32"/>
      <point x="201" y="151"/>
      <point x="224" y="58"/>
      <point x="326" y="58" type="curve" smooth="yes" name="n35"/>
      <point x="500" y="58"/>
      <point x="570" y="331.667"/>
      <point x="570" y="483" type="curve" smooth="yes" name="n38"/>
      <point x="570" y="541.333"/>
      <point x="555" y="612.333"/>
      <point x="532.667" y="671" type="curve"/>
    </contour>
  </outline>
</glyph>
<glyph name="uni01B9" format="2">
  <advance width="520"/>
  <unicode hex="01B9"/>
  <outline>
    <contour>
      <point x="438" y="227" type="curve"/>
      <point x="428.83" y="205.195"/>
      <point x="385.716" y="160.312"/>
      <point x="361.667" y="152.667" type="curve" name="n03"/>
      <point x="346.354" y="161.622"/>
      <point x="325.723" y="192.514"/>
      <point x="321.667" y="203.333" type="curve"/>
      <point x="257.448" y="201.841"/>
      <point x="227.985" y="182.578"/>
      <point x="232.333" y="119" type="curve"/>
      <point x="231" y="76.3333"/>
      <point x="253" y="28.6667" name="hr01"/>
      <point x="295" y="28.6667" type="curve" smooth="yes" name="n12"/>
      <point x="302" y="28.6667"/>
      <point x="306" y="24"/>
      <point x="313" y="38.6667" type="curve"/>
      <point x="304.101" y="48.297"/>
      <point x="292.667" y="100.667"/>
      <point x="292.667" y="100.667" type="curve"/>
      <point x="313.807" y="93.9301"/>
      <point x="370.554" y="42.223"/>
      <point x="396.333" y="27.6667" type="curve"/>
      <point x="419.328" y="24.1475"/>
      <point x="418.098" y="-2.48815"/>
      <point x="415" y="-22" type="curve"/>
      <point x="414.077" y="-86.1549"/>
      <point x="311.969" y="-105.637"/>
      <point x="241" y="-103" type="curve" name="n27"/>
      <point x="127.667" y="-105.333"/>
      <point x="20" y="-88"/>
      <point x="20" y="-35.6667" type="curve" smooth="yes" name="n30"/>
      <point x="20" y="37"/>
      <point x="118.333" y="73" name="hr03"/>
      <point x="234.333" y="73" type="curve" name="n33"/>
      <point x="226.609" y="94.1079"/>
      <point x="144.566" y="222.36"/>
      <point x="131" y="258.333" type="curve" name="hr04"/>
      <point x="214" y="330" type="line"/>
      <point x="220.811" y="325.206"/>
      <point x="237.566" y="298.717"/>
      <point x="243.333" y="293.667" type="curve"/>
      <point x="265.333" y="292.333"/>
      <point x="274" y="281"/>
      <point x="281.333" y="272.667" type="curve"/>
      <point x="330" y="240"/>
      <point x="318.333" y="257" name="hr05"/>
      <point x="337" y="257" type="curve" smooth="yes" name="n46"/>
      <point x="360.667" y="257"/>
      <point x="358" y="254.333"/>
      <point x="358" y="246.667" type="curve" name="n49"/>
      <point x="358" y="259" name="hr06"/>
      <point x="376.667" y="258.333"/>
      <point x="386" y="258.333" type="curve" name="n52"/>
      <point x="351.215" y="275.712"/>
      <point x="289.486" y="354.51"/>
      <point x="281.333" y="374.667" type="curve"/>
      <point x="357.667" y="430.667" type="line"/>
      <point x="353.167" y="437.988"/>
      <point x="349.921" y="433.8"/>
      <point x="336.333" y="430.333" type="curve"/>
      <point x="312.333" y="429.667"/>
      <point x="281.667" y="407"/>
      <point x="259" y="407" type="curve" smooth="yes"/>
      <point x="246.333" y="407"/>
      <point x="256.333" y="424" name="hr07"/>
      <point x="262.667" y="424.667" type="curve" name="n65"/>
      <point x="313.841" y="392.004"/>
      <point x="413.845" y="277.366"/>
    </contour>
  </outline>
</glyph>
<glyph name="uni01BA" format="2">
  <advance width="501"/>
  <unicode hex="01BA"/>
  <outline>
    <contour>
      <point x="535.333" y="448.667" type="line"/>
      <point x="317" y="249" type="line"/>
      <point x="363" y="249"/>
      <point x="429.667" y="234.333"/>
      <point x="429.667" y="158.667" type="curve" smooth="yes" name="n04"/>
      <point x="429.667" y="-24"/>
      <point x="134.333" y="4"/>
      <point x="134.333" y="-119" type="curve" smooth="yes" name="n07"/>
      <point x="134.333" y="-148"/>
      <point x="166.667" y="-181.333"/>
      <point x="197.667" y="-181.333" type="curve" smooth="yes" name="n10"/>
      <point x="234" y="-181.333"/>
      <point x="273.333" y="-174.333"/>
      <point x="296" y="-154" type="curve" name="hr01"/>
      <point x="296" y="-78.3333" type="line" name="n14"/>
      <point x="307.333" y="-63.6667"/>
      <point x="324.667" y="-52"/>
      <point x="349" y="-52" type="curve" smooth="yes"/>
      <point x="384" y="-52"/>
      <point x="399" y="-85.3333"/>
      <point x="399" y="-114.333" type="curve" smooth="yes" name="n20"/>
      <point x="399" y="-155.333"/>
      <point x="310" y="-229"/>
      <point x="201" y="-229" type="curve" smooth="yes" name="n23"/>
      <point x="116.333" y="-229"/>
      <point x="38" y="-176.333"/>
      <point x="38" y="-102" type="curve" smooth="yes" name="n26"/>
      <point x="38" y="60.6667"/>
      <point x="329.667" y="49.3333" name="hr02"/>
      <point x="329.667" y="146.667" type="curve" smooth="yes" name="n29"/>
      <point x="329.667" y="175.667"/>
      <point x="285.333" y="203"/>
      <point x="252.333" y="203" type="curve" smooth="yes"/>
      <point x="231.667" y="203"/>
      <point x="203.333" y="183"/>
      <point x="188" y="169" type="curve"/>
      <point x="151" y="201" type="line"/>
      <point x="366.667" y="393.333" type="line"/>
      <point x="348.667" y="392.667"/>
      <point x="296.667" y="394" name="hr03"/>
      <point x="271.333" y="394" type="curve" smooth="yes" name="n40"/>
      <point x="225" y="394"/>
      <point x="192" y="416.667" name="hr04"/>
      <point x="160.333" y="416.667" type="curve" smooth="yes" name="n43"/>
      <point x="143" y="416.667"/>
      <point x="131" y="404.333"/>
      <point x="122.333" y="390.333" type="curve"/>
      <point x="173.333" y="327.667" type="line"/>
      <point x="161.333" y="308"/>
      <point x="129.333" y="290.667" name="hr05"/>
      <point x="106.333" y="290.667" type="curve" smooth="yes" name="n50"/>
      <point x="71.3333" y="290.667"/>
      <point x="39" y="320.667"/>
      <point x="39" y="353" type="curve" smooth="yes"/>
      <point x="39" y="423.667"/>
      <point x="97.6667" y="498"/>
      <point x="189.333" y="498" type="curve" smooth="yes" name="n56"/>
      <point x="263.333" y="498"/>
      <point x="330" y="449"/>
      <point x="383.333" y="449" type="curve" smooth="yes"/>
      <point x="390.667" y="449"/>
      <point x="406" y="453"/>
      <point x="412.667" y="454.333" type="curve"/>
      <point x="453.333" y="510.667" type="line"/>
    </contour>
  </outline>
</glyph>
<glyph name="uni01BE" format="2">
  <advance width="465"/>
  <unicode hex="01BE"/>
  <outline>
    <contour>
      <point x="425" y="293" type="curve" name="n00"/>
      <point x="417.022" y="195"/>
      <point x="300.381" y="137"/>
      <point x="202.333" y="137" type="curve"/>
      <point x="162.536" y="134.821"/>
      <point x="92.9463" y="134.214"/>
      <point x="92.3333" y="183.333" type="curve"/>
      <point x="115" y="199.667"/>
      <point x="153.333" y="211"/>
      <point x="182" y="166.667" type="curve" name="n09"/>
      <point x="191.333" y="116.333"/>
      <point x="155" y="96"/>
      <point x="120.333" y="92.6667" type="curve" name="n12"/>
      <point x="91.4133" y="76.5485"/>
      <point x="88.2943" y="56.8138"/>
      <point x="89.6667" y="63.3333" type="curve"/>
      <point x="141" y="38"/>
      <point x="207.667" y="131"/>
      <point x="221.667" y="186.333" type="curve"/>
      <point x="222.978" y="238.333"/>
      <point x="184.079" y="279.667"/>
      <point x="138" y="295" type="curve" name="n21"/>
      <point x="151.333" y="294.667" type="line" name="n22"/>
      <point x="173.218" y="294.667"/>
      <point x="156.907" y="309.333"/>
      <point x="142.667" y="347.333" type="curve" name="n25"/>
      <point x="142.667" y="385.702"/>
      <point x="119.667" y="426.968"/>
      <point x="100.333" y="440" type="curve"/>
      <point x="181.333" y="467.667" type="line"/>
      <point x="153.333" y="539" type="line"/>
      <point x="154.667" y="550.366"/>
      <point x="149.333" y="567.891"/>
      <point x="136" y="572.667" type="curve"/>
      <point x="142.667" y="574.667" type="line"/>
      <point x="150.333" y="647.333" type="line"/>
      <point x="181.991" y="650.333"/>
      <point x="323.228" y="653.667"/>
      <point x="350.667" y="654" type="curve"/>
      <point x="333.333" y="621" type="line"/>
      <point x="293.333" y="634.333" type="line"/>
      <point x="297.635" y="633.667"/>
      <point x="342.053" y="626.333"/>
      <point x="353" y="617.667" type="curve" name="n43"/>
      <point x="338.333" y="531" type="line"/>
      <point x="390.333" y="529.333" type="line"/>
      <point x="387.333" y="523.365"/>
      <point x="382.667" y="489.404"/>
      <point x="382" y="480.667" type="curve"/>
      <point x="296.333" y="442.667" type="line"/>
      <point x="332.333" y="420" type="line" name="n50"/>
      <point x="384.333" y="405.763"/>
      <point x="425" y="350.649"/>
    </contour>
  </outline>
</glyph>
<glyph name="uni01C1" format="2">
  <advance width="361"/>
  <unicode hex="01C1"/>
  <outline>
    <contour>
      <point x="200.667" y="-215" type="line" name="n00"/>
      <point x="132" y="-215" type="line"/>
      <point x="313" y="736" type="line" name="n02"/>
      <point x="382.333" y="736" type="line"/>
    </contour>
    <contour>
      <point x="64.3333" y="-215" type="line"/>
      <point x="-5" y="-215" type="line"/>
      <point x="176" y="736" type="line"/>
      <point x="245.333" y="736" type="line"/>
    </contour>
  </outline>
</glyph>
<glyph name="uni01C3" format="2">
  <advance width="265"/>
  <unicode hex="01C3"/>
  <outline>
    <contour>
      <point x="274.667" y="621.333" type="curve"/>
      <point x="274.667" y="621.333"/>
      <point x="182.667" y="311.333"/>
      <point x="145.333" y="195" type="curve"/>
      <point x="88.3333" y="195" type="line"/>
      <point x="120.667" y="595.667" type="line"/>
      <point x="123" y="650"/>
      <point x="161" y="685.667" name="n07"/>
      <point x="212.667" y="685.667" type="curve" smooth="yes"/>
      <point x="256.667" y="685.667"/>
      <point x="274.667" y="665.333"/>
    </contour>
    <contour>
      <point x="175" y="59.6667" type="curve" smooth="yes" name="n11"/>
      <point x="175" y="19.6667"/>
      <point x="141" y="-11"/>
      <point x="98.3333" y="-11" type="curve" smooth="yes" name="n14"/>
      <point x="60" y="-11"/>
      <point x="27" y="21"/>
      <point x="27" y="62.3333" type="curve" smooth="yes" name="n17"/>
      <point x="27" y="103.333"/>
      <point x="58.3333" y="135.667"/>
      <point x="99" y="135.667" type="curve" smooth="yes" name="n20"/>
      <point x="142.667" y="135.667"/>
      <point x="175" y="101.667"/>
    </contour>
  </outline>
</glyph>
<glyph name="uni01C7" format="2">
  <advance width="1041"/>
  <unicode hex="01C7"/>
  <outline>
    <contour>
      <point x="513" y="196.333" type="line"/>
      <point x="474.333" y="0" type="line" name="n01"/>
      <point x="-15" y="0" type="line"/>
      <point x="-15" y="47.3333" type="line"/>
      <point x="7.59411" y="49.7294"/>
      <point x="42.3333" y="51.6667"/>
      <point x="42.3333" y="51.6667" type="curve"/>
      <point x="59.3333" y="53.3333"/>
      <point x="65" y="56.6667" name="hr01"/>
      <point x="67" y="69.3333" type="curve"/>
      <point x="171" y="602" type="line"/>
      <point x="173.667" y="613"/>
      <point x="167" y="617.667"/>
      <point x="154" y="618.667" type="curve" name="n13"/>
      <point x="154" y="618.667"/>
      <point x="119.929" y="621.256"/>
      <point x="96" y="623.667" type="curve"/>
      <point x="96" y="671" type="line" name="n17"/>
      <point x="384" y="671" type="line"/>
      <point x="384" y="623.667" type="line"/>
      <point x="357.002" y="621.243"/>
      <point x="321" y="618.667"/>
      <point x="321" y="618.667" type="curve"/>
      <point x="310" y="617.667"/>
      <point x="302.667" y="612.667"/>
      <point x="300" y="601.333" type="curve"/>
      <point x="194" y="56.6667" type="line"/>
      <point x="377" y="56.6667" type="line" smooth="yes" name="n27"/>
      <point x="388" y="56.6667"/>
      <point x="400.74" y="63.3095"/>
      <point x="404" y="72.6667" type="curve"/>
      <point x="443.333" y="196.333" type="line" name="n31"/>
    </contour>
    <contour>
      <point x="1081" y="623.667" type="line"/>
      <point x="1016.67" y="618" type="line"/>
      <point x="1006.33" y="617.667"/>
      <point x="1001.33" y="611.667"/>
      <point x="999" y="601.333" type="curve"/>
      <point x="935" y="256.667" type="line" smooth="yes"/>
      <point x="905.667" y="96.3333"/>
      <point x="860.333" y="-16" name="hr03"/>
      <point x="672" y="-16" type="curve" smooth="yes" name="n40"/>
      <point x="586.333" y="-16"/>
      <point x="538.667" y="10.3333"/>
      <point x="526" y="16.6667" type="curve"/>
      <point x="559.667" y="189.667" type="line"/>
      <point x="636.333" y="189.667" type="line"/>
      <point x="636.333" y="65" type="line" smooth="yes"/>
      <point x="636.333" y="52"/>
      <point x="662" y="42.6667"/>
      <point x="679" y="42.6667" type="curve" smooth="yes" name="n49"/>
      <point x="746" y="42.6667"/>
      <point x="779.333" y="112.333"/>
      <point x="804" y="248.333" type="curve" smooth="yes"/>
      <point x="870" y="602" type="line" smooth="yes"/>
      <point x="872" y="613.667"/>
      <point x="866" y="617.667"/>
      <point x="851.667" y="618.667" type="curve"/>
      <point x="851.667" y="618.667"/>
      <point x="816.264" y="621.27"/>
      <point x="793" y="623.667" type="curve"/>
      <point x="793" y="671" type="line"/>
      <point x="1081" y="671" type="line"/>
    </contour>
  </outline>
</glyph>
<glyph name="uni01C8" format="2">
  <advance width="848"/>
  <unicode hex="01C8"/>
  <outline>
    <contour>
      <point x="513" y="196.333" type="line"/>
      <point x="474.333" y="0" type="line" name="n01"/>
      <point x="-15" y="0" type="line"/>
      <point x="-15" y="47.3333" type="line"/>
      <point x="7.59411" y="49.7294"/>
      <point x="42.3333" y="51.6667"/>
      <point x="42.3333" y="51.6667" type="curve"/>
      <point x="59.3333" y="53.3333"/>
      <point x="65" y="56.6667"/>
      <point x="67" y="69.3333" type="curve"/>
      <point x="171" y="602" type="line"/>
      <point x="173.667" y="613"/>
      <point x="167" y="617.667"/>
      <point x="154" y="618.667" type="curve"/>
      <point x="154" y="618.667"/>
      <point x="119.929" y="621.256"/>
      <point x="96" y="623.667" type="curve"/>
      <point x="96" y="671" type="line" name="n17"/>
      <point x="384" y="671" type="line"/>
      <point x="384" y="623.667" type="line"/>
      <point x="357.002" y="621.243"/>
      <point x="321" y="618.667"/>
      <point x="321" y="618.667" type="curve"/>
      <point x="310" y="617.667"/>
      <point x="302.667" y="612.667"/>
      <point x="300" y="601.333" type="curve"/>
      <point x="194" y="56.6667" type="line"/>
      <point x="377" y="56.6667" type="line" smooth="yes" name="n27"/>
      <point x="388" y="56.6667"/>
      <point x="400.74" y="63.3095"/>
      <point x="404" y="72.6667" type="curve"/>
      <point x="443.333" y="196.333" type="line" name="n31"/>
    </contour>
    <contour>
      <point x="842" y="655.667" type="curve" smooth="yes" name="n32"/>
      <point x="842" y="619"/>
      <point x="809.667" y="585"/>
      <point x="768.667" y="585" type="curve" smooth="yes" name="n35"/>
      <point x="728" y="585"/>
      <point x="696.667" y="616.333"/>
      <point x="696.667" y="655.667" type="curve" smooth="yes" name="n38"/>
      <point x="696.667" y="694.333"/>
      <point x="726" y="726"/>
      <point x="768.667" y="726" type="curve" smooth="yes" name="n41"/>
      <point x="810.667" y="726"/>
      <point x="842" y="694.333"/>
    </contour>
    <contour>
      <point x="806.333" y="498" type="line" name="n44"/>
      <point x="735.333" y="82.6667" type="line" smooth="yes"/>
      <point x="717.618" y="-17.9917"/>
      <point x="634" y="-229" name="n47"/>
      <point x="497.333" y="-229" type="curve" smooth="yes"/>
      <point x="452" y="-229"/>
      <point x="417" y="-204.667"/>
      <point x="417" y="-172.667" type="curve" smooth="yes"/>
      <point x="417" y="-147.667"/>
      <point x="435" y="-133.667"/>
      <point x="453.667" y="-121.667" type="curve"/>
      <point x="550.333" y="-147.333" type="line"/>
      <point x="568.667" y="-121.667"/>
      <point x="590.667" y="-59"/>
      <point x="600" y="-8" type="curve" smooth="yes"/>
      <point x="674.333" y="423" type="line"/>
      <point x="589" y="432" type="line"/>
      <point x="589" y="465.667" type="line"/>
      <point x="750" y="498" type="line"/>
    </contour>
  </outline>
</glyph>
<glyph name="uni01CA" format="2">
  <advance width="1234"/>
  <unicode hex="01CA"/>
  <outline>
    <contour>
      <point x="783" y="623.667" type="line"/>
      <point x="720.667" y="618" type="line" smooth="yes"/>
      <point x="710.337" y="616.954"/>
      <point x="703.333" y="611.667"/>
      <point x="701" y="601.333" type="curve"/>
      <point x="582.333" y="0" type="line" name="n05"/>
      <point x="484.333" y="0" type="line"/>
      <point x="251" y="487" type="line"/>
      <point x="170" y="68.6667" type="line" smooth="yes"/>
      <point x="168" y="57.3333"/>
      <point x="173.333" y="53.3333"/>
      <point x="188.667" y="52.3333" type="curve"/>
      <point x="188.667" y="52.3333"/>
      <point x="221.993" y="49.7506"/>
      <point x="246" y="47.3333" type="curve"/>
      <point x="246" y="0" type="line"/>
      <point x="-14" y="0" type="line"/>
      <point x="-14" y="47.3333" type="line"/>
      <point x="9.34167" y="49.7434"/>
      <point x="43" y="52.3333"/>
      <point x="43" y="52.3333" type="curve"/>
      <point x="56.6667" y="53.3333"/>
      <point x="65" y="56.6667"/>
      <point x="68" y="69.3333" type="curve"/>
      <point x="171" y="602" type="line"/>
      <point x="173.667" y="613.667"/>
      <point x="167" y="617.667"/>
      <point x="152.667" y="618.667" type="curve" name="n27"/>
      <point x="152.667" y="618.667"/>
      <point x="119.26" y="621.257"/>
      <point x="96" y="623.667" type="curve"/>
      <point x="96" y="671" type="line" name="n31"/>
      <point x="317" y="671" type="line"/>
      <point x="317" y="641.667" type="line"/>
      <point x="522" y="211.333" type="line"/>
      <point x="599" y="602" type="line"/>
      <point x="601.667" y="613.667"/>
      <point x="593.667" y="617.667"/>
      <point x="580" y="618.667" type="curve"/>
      <point x="580" y="618.667"/>
      <point x="545.51" y="621.271"/>
      <point x="523" y="623.667" type="curve"/>
      <point x="523" y="671" type="line"/>
      <point x="783" y="671" type="line"/>
    </contour>
    <contour>
      <point x="1274" y="623.667" type="line"/>
      <point x="1209.67" y="618" type="line"/>
      <point x="1199.33" y="617.667"/>
      <point x="1194.33" y="611.667"/>
      <point x="1192" y="601.333" type="curve"/>
      <point x="1128" y="256.667" type="line" smooth="yes"/>
      <point x="1098.67" y="96.3333"/>
      <point x="1053.33" y="-16" name="hr01"/>
      <point x="865" y="-16" type="curve" smooth="yes" name="n52"/>
      <point x="779.333" y="-16"/>
      <point x="731.667" y="10.3333"/>
      <point x="719" y="16.6667" type="curve"/>
      <point x="752.667" y="189.667" type="line" name="hr02"/>
      <point x="829.333" y="189.667" type="line" name="n57"/>
      <point x="829.333" y="65" type="line" smooth="yes"/>
      <point x="829.333" y="52"/>
      <point x="855" y="42.6667" name="hr03"/>
      <point x="872" y="42.6667" type="curve" smooth="yes" name="n61"/>
      <point x="939" y="42.6667"/>
      <point x="972.333" y="112.333"/>
      <point x="997" y="248.333" type="curve" smooth="yes"/>
      <point x="1063" y="602" type="line" smooth="yes"/>
      <point x="1065" y="613.667"/>
      <point x="1059" y="617.667"/>
      <point x="1044.67" y="618.667" type="curve"/>
      <point x="1044.67" y="618.667"/>
      <point x="1009.26" y="621.27"/>
      <point x="986" y="623.667" type="curve"/>
      <point x="986" y="671" type="line"/>
      <point x="1274" y="671" type="line"/>
    </contour>
  </outline>
</glyph>
<glyph name="uni01D5" format="2">
  <advance width="735"/>
  <unicode hex="01D5"/>
  <outline>
    <contour>
      <point x="777" y="623.667" type="line"/>
      <point x="713.667" y="618.667" type="line" smooth="yes"/>
      <point x="703.668" y="617.655"/>
      <point x="697" y="611.667"/>
      <point x="695" y="601.333" type="curve" smooth="yes"/>
      <point x="618" y="214.667" type="line" smooth="yes"/>
      <point x="590.667" y="73.6667"/>
      <point x="500.667" y="-16"/>
      <point x="325" y="-16" type="curve" smooth="yes" name="n08"/>
      <point x="185.333" y="-16"/>
      <point x="92" y="36"/>
      <point x="92" y="161" type="curve" smooth="yes" name="n11"/>
      <point x="92" y="180.333"/>
      <point x="96" y="219.333"/>
      <point x="105" y="264.667" type="curve" smooth="yes"/>
      <point x="175" y="602" type="line"/>
      <point x="177" y="613.667"/>
      <point x="170.333" y="617.667"/>
      <point x="155" y="618.667" type="curve" name="n18"/>
      <point x="155" y="618.667"/>
      <point x="121.509" y="621.264"/>
      <point x="99" y="623.667" type="curve"/>
      <point x="99" y="671" type="line" name="n22"/>
      <point x="387" y="671" type="line"/>
      <point x="387" y="623.667" type="line"/>
      <point x="361.41" y="621.249"/>
      <point x="326" y="618.667"/>
      <point x="326" y="618.667" type="curve"/>
      <point x="314" y="617.667"/>
      <point x="306" y="613.667"/>
      <point x="304" y="601.333" type="curve"/>
      <point x="235" y="264.667" type="line" smooth="yes"/>
      <point x="227" y="226.333"/>
      <point x="224" y="194.333"/>
      <point x="224" y="176.333" type="curve" smooth="yes" name="n34"/>
      <point x="224" y="91.6667"/>
      <point x="282.333" y="55.6667"/>
      <point x="351" y="55.6667" type="curve" smooth="yes" name="n37"/>
      <point x="463.667" y="55.6667"/>
      <point x="507.333" y="140.667"/>
      <point x="529" y="249.667" type="curve" smooth="yes"/>
      <point x="599" y="602" type="line"/>
      <point x="601" y="613.667"/>
      <point x="596.333" y="617.667"/>
      <point x="579.667" y="618.667" type="curve"/>
      <point x="579.667" y="618.667"/>
      <point x="545.431" y="621.271"/>
      <point x="523" y="623.667" type="curve"/>
      <point x="523" y="671" type="line"/>
      <point x="777" y="671" type="line"/>
    </contour>
    <contour>
      <point x="645.333" y="844.667" type="curve" smooth="yes" name="n50"/>
      <point x="645.333" y="809.333"/>
      <point x="616.667" y="780"/>
      <point x="581.333" y="780" type="curve" smooth="yes" name="n53"/>
      <point x="546" y="780"/>
      <point x="517.667" y="809.333"/>
      <point x="517.667" y="844.667" type="curve" smooth="yes" name="n56"/>
      <point x="517.667" y="879.333"/>
      <point x="546.667" y="909"/>
      <point x="581.333" y="909" type="curve" smooth="yes" name="n59"/>
      <point x="616.667" y="909"/>
      <point x="645.333" y="880"/>
    </contour>
    <contour>
      <point x="436.333" y="844.667" type="curve" smooth="yes" name="n62"/>
      <point x="436.333" y="809.333"/>
      <point x="407.333" y="780"/>
      <point x="372" y="780" type="curve" smooth="yes"/>
      <point x="337" y="780"/>
      <point x="308" y="809.333"/>
      <point x="308" y="844.333" type="curve" smooth="yes" name="n68"/>
      <point x="308" y="879.333"/>
      <point x="337" y="909"/>
      <point x="372" y="909" type="curve" smooth="yes"/>
      <point x="407.333" y="909"/>
      <point x="436.333" y="880"/>
    </contour>
    <contour>
      <point x="663.667" y="1052" type="line" name="n74"/>
      <point x="649.333" y="977" type="line" name="n75"/>
      <point x="321" y="977" type="line"/>
      <point x="336.333" y="1052" type="line"/>
    </contour>
  </outline>
</glyph>
<glyph name="uni01D9" format="2">
  <advance width="735"/>
  <unicode hex="01D9"/>
  <outline>
    <contour>
      <point x="777" y="623.667" type="line"/>
      <point x="713.667" y="618.667" type="line" smooth="yes"/>
      <point x="703.668" y="617.655"/>
      <point x="697" y="611.667"/>
      <point x="695" y="601.333" type="curve" smooth="yes"/>
      <point x="618" y="214.667" type="line" smooth="yes"/>
      <point x="590.667" y="73.6667"/>
      <point x="500.667" y="-16"/>
      <point x="325" y="-16" type="curve" smooth="yes" name="n08"/>
      <point x="185.333" y="-16"/>
      <point x="92" y="36"/>
      <point x="92" y="161" type="curve" smooth="yes" name="n11"/>
      <point x="92" y="180.333"/>
      <point x="96" y="219.333"/>
      <point x="105" y="264.667" type="curve" smooth="yes"/>
      <point x="175" y="602" type="line"/>
      <point x="177" y="613.667"/>
      <point x="170.333" y="617.667"/>
      <point x="155" y="618.667" type="curve" name="n18"/>
      <point x="155" y="618.667"/>
      <point x="121.509" y="621.264"/>
      <point x="99" y="623.667" type="curve"/>
      <point x="99" y="671" type="line" name="n22"/>
      <point x="387" y="671" type="line"/>
      <point x="387" y="623.667" type="line"/>
      <point x="361.41" y="621.249"/>
      <point x="326" y="618.667"/>
      <point x="326" y="618.667" type="curve"/>
      <point x="314" y="617.667"/>
      <point x="306" y="613.667"/>
      <point x="304" y="601.333" type="curve"/>
      <point x="235" y="264.667" type="line" smooth="yes"/>
      <point x="227" y="226.333"/>
      <point x="224" y="194.333"/>
      <point x="224" y="176.333" type="curve" smooth="yes" name="n34"/>
      <point x="224" y="91.6667"/>
      <point x="282.333" y="55.6667"/>
      <point x="351" y="55.6667" type="curve" smooth="yes" name="n37"/>
      <point x="463.667" y="55.6667"/>
      <point x="507.333" y="140.667"/>
      <point x="529" y="249.667" type="curve" smooth="yes"/>
      <point x="599" y="602" type="line"/>
      <point x="601" y="613.667"/>
      <point x="596.333" y="617.667"/>
      <point x="579.667" y="618.667" type="curve"/>
      <point x="579.667" y="618.667"/>
      <point x="545.431" y="621.271"/>
      <point x="523" y="623.667" type="curve"/>
      <point x="523" y="671" type="line"/>
      <point x="777" y="671" type="line"/>
    </contour>
    <contour>
      <point x="645.333" y="844.667" type="curve" smooth="yes" name="n50"/>
      <point x="645.333" y="809.333"/>
      <point x="616.667" y="780"/>
      <point x="581.333" y="780" type="curve" smooth="yes" name="n53"/>
      <point x="546" y="780"/>
      <point x="517.667" y="809.333"/>
      <point x="517.667" y="844.667" type="curve" smooth="yes" name="n56"/>
      <point x="517.667" y="879.333"/>
      <point x="546.667" y="909"/>
      <point x="581.333" y="909" type="curve" smooth="yes" name="n59"/>
      <point x="616.667" y="909"/>
      <point x="645.333" y="880"/>
    </contour>
    <contour>
      <point x="436.333" y="844.667" type="curve" smooth="yes" name="n62"/>
      <point x="436.333" y="809.333"/>
      <point x="407.333" y="780"/>
      <point x="372" y="780" type="curve" smooth="yes"/>
      <point x="337" y="780"/>
      <point x="308" y="809.333"/>
      <point x="308" y="844.333" type="curve" smooth="yes" name="n68"/>
      <point x="308" y="879.333"/>
      <point x="337" y="909"/>
      <point x="372" y="909" type="curve" smooth="yes"/>
      <point x="407.333" y="909"/>
      <point x="436.333" y="880"/>
    </contour>
    <contour>
      <point x="683.333" y="1112.33" type="line" name="n74"/>
      <point x="531.333" y="941" type="line"/>
      <point x="426.333" y="941" type="line"/>
      <point x="342.333" y="1112.33" type="line"/>
      <point x="421" y="1112.33" type="line"/>
      <point x="494.667" y="1019" type="line"/>
      <point x="604.333" y="1112.33" type="line"/>
    </contour>
  </outline>
</glyph>
<glyph name="uni01DE" format="2">
  <advance width="700"/>
  <unicode hex="01DE"/>
  <outline>
    <contour>
      <point x="654" y="0" type="line" name="n00"/>
      <point x="391" y="0" type="line"/>
      <point x="391" y="47.3333" type="line"/>
      <point x="408.495" y="49.0466"/>
      <point x="437" y="52.3333"/>
      <point x="437" y="52.3333" type="curve"/>
      <point x="450.667" y="53.6667"/>
      <point x="457.912" y="56.985"/>
      <point x="456" y="68.6667" type="curve" smooth="yes"/>
      <point x="426.667" y="254.333" type="line" name="n09"/>
      <point x="225" y="254.333" type="line"/>
      <point x="125" y="68.6667" type="line"/>
      <point x="118.667" y="57.6667"/>
      <point x="125" y="53.6667"/>
      <point x="140" y="52.3333" type="curve"/>
      <point x="140" y="52.3333"/>
      <point x="169.653" y="49.0667"/>
      <point x="190" y="47.3333" type="curve"/>
      <point x="190" y="0" type="line"/>
      <point x="-53" y="0" type="line"/>
      <point x="-53" y="47.3333" type="line"/>
      <point x="4.33333" y="53.3333" type="line"/>
      <point x="374" y="687" type="line" name="n22"/>
      <point x="479.333" y="687" type="line"/>
      <point x="588" y="69.3333" type="line" smooth="yes"/>
      <point x="590" y="56.3333"/>
      <point x="593.333" y="53.3333"/>
      <point x="608" y="51.6667" type="curve"/>
      <point x="608" y="51.6667"/>
      <point x="635.665" y="49.0654"/>
      <point x="654" y="47.3333" type="curve"/>
    </contour>
    <contour>
      <point x="416.333" y="308" type="line" name="n31"/>
      <point x="380" y="524" type="line"/>
      <point x="256" y="308" type="line"/>
    </contour>
    <contour>
      <point x="613.333" y="844.667" type="curve" smooth="yes" name="n34"/>
      <point x="613.333" y="809.333"/>
      <point x="585.333" y="780"/>
      <point x="550" y="780" type="curve" smooth="yes" name="n37"/>
      <point x="514.667" y="780"/>
      <point x="486.333" y="809.333"/>
      <point x="486.333" y="844.667" type="curve" smooth="yes" name="n40"/>
      <point x="486.333" y="879.333"/>
      <point x="515.333" y="909"/>
      <point x="550" y="909" type="curve" smooth="yes" name="n43"/>
      <point x="585.333" y="909"/>
      <point x="613.333" y="880"/>
    </contour>
    <contour>
      <point x="405" y="844.667" type="curve" smooth="yes" name="n46"/>
      <point x="405" y="809.333"/>
      <point x="376" y="780"/>
      <point x="340.667" y="780" type="curve" smooth="yes"/>
      <point x="305.667" y="780"/>
      <point x="276.667" y="809.333"/>
      <point x="276.667" y="844.333" type="curve" smooth="yes" name="n52"/>
      <point x="276.667" y="879.333"/>
      <point x="305.667" y="909"/>
      <point x="340.667" y="909" type="curve" smooth="yes"/>
      <point x="376" y="909"/>
      <point x="405" y="880"/>
    </contour>
    <contour>
      <point x="632.333" y="1052" type="line" name="n58"/>
      <point x="618" y="977" type="line" name="n59"/>
      <point x="290" y="977" type="line"/>
      <point x="305.333" y="1052" type="line"/>
    </contour>
  </outline>
</glyph>
<glyph name="gcaron" format="2">
  <advance width="470"/>
  <unicode hex="01E7"/>
  <outline>
    <contour>
      <point x="517" y="418.333" type="line" name="n00"/>
      <point x="425" y="418.333" type="line"/>
      <point x="431" y="403.333"/>
      <point x="436.667" y="379.667"/>
      <point x="436.667" y="354.667" type="curve" smooth="yes" name="n04"/>
      <point x="436.667" y="246.333"/>
      <point x="351.667" y="161"/>
      <point x="216.333" y="160.333" type="curve" name="n07"/>
      <point x="208.667" y="141"/>
      <point x="204.333" y="117.333"/>
      <point x="206.667" y="106.333" type="curve"/>
      <point x="340" y="46" type="line" smooth="yes"/>
      <point x="403" y="18"/>
      <point x="444.667" y="-6.66667" name="hr01"/>
      <point x="444.667" y="-64.6667" type="curve" smooth="yes" name="n14"/>
      <point x="444.667" y="-149.333"/>
      <point x="319.333" y="-229"/>
      <point x="176.333" y="-229" type="curve" smooth="yes" name="n17"/>
      <point x="27.3333" y="-229"/>
      <point x="-31" y="-153.667"/>
      <point x="-31" y="-80.3333" type="curve" smooth="yes" name="n20"/>
      <point x="-31" y="-12.3333"/>
      <point x="28.3333" y="33.6667"/>
      <point x="102.667" y="59" type="curve"/>
      <point x="97.3333" y="90"/>
      <point x="114.667" y="145"/>
      <point x="141" y="172" type="curve"/>
      <point x="88" y="196.333"/>
      <point x="48.6667" y="233.333" name="hr02"/>
      <point x="48.6667" y="296.667" type="curve" smooth="yes" name="n29"/>
      <point x="48.6667" y="391"/>
      <point x="120.333" y="498"/>
      <point x="266" y="498" type="curve" smooth="yes" name="n32"/>
      <point x="315.333" y="498"/>
      <point x="357.667" y="480.333"/>
      <point x="374.333" y="472.667" type="curve" name="hr03"/>
      <point x="517" y="472.667" type="line" name="n36"/>
    </contour>
    <contour>
      <point x="312.667" y="359.667" type="curve" smooth="yes" name="n37"/>
      <point x="312.667" y="407.333"/>
      <point x="306.667" y="449.333" name="hr04"/>
      <point x="268" y="449.333" type="curve" smooth="yes" name="n40"/>
      <point x="237.333" y="449.333"/>
      <point x="172.667" y="381"/>
      <point x="172.667" y="284.333" type="curve" smooth="yes" name="n43"/>
      <point x="172.667" y="237.667"/>
      <point x="182.667" y="204"/>
      <point x="216.333" y="204" type="curve" smooth="yes" name="n46"/>
      <point x="282.667" y="204"/>
      <point x="312.667" y="298"/>
    </contour>
    <contour>
      <point x="323.667" y="-84.6667" type="curve" smooth="yes" name="n49"/>
      <point x="323.667" y="-61.3333" name="hr05"/>
      <point x="311.667" y="-41.3333"/>
      <point x="274" y="-24" type="curve" smooth="yes"/>
      <point x="157.667" y="27.6667" type="line"/>
      <point x="107" y="11"/>
      <point x="91" y="-25.3333"/>
      <point x="91" y="-63.3333" type="curve" smooth="yes" name="n56"/>
      <point x="91" y="-107.333"/>
      <point x="119.333" y="-176.333"/>
      <point x="202.333" y="-176.333" type="curve" smooth="yes" name="n59"/>
      <point x="295" y="-176.333"/>
      <point x="323.667" y="-116.333"/>
    </contour>
    <contour>
      <point x="496.667" y="721.333" type="line" name="n62"/>
      <point x="344.667" y="551" type="line"/>
      <point x="239.667" y="551" type="line"/>
      <point x="155.333" y="721.333" type="line"/>
      <point x="234.333" y="721.333" type="line"/>
      <point x="308" y="628" type="line"/>
      <point x="417.333" y="721.333" type="line"/>
    </contour>
  </outline>
</glyph>
<glyph name="jcaron" format="2">
  <advance width="302"/>
  <unicode hex="01F0"/>
  <outline>
    <contour>
      <point x="260.333" y="498" type="line" name="n00"/>
      <point x="189.333" y="82.6667" type="line" smooth="yes"/>
      <point x="171.618" y="-17.9917"/>
      <point x="88" y="-229" name="n03"/>
      <point x="-48.6667" y="-229" type="curve" smooth="yes"/>
      <point x="-94" y="-229"/>
      <point x="-129" y="-204.667"/>
      <point x="-129" y="-172.667" type="curve" smooth="yes"/>
      <point x="-129" y="-147.667"/>
      <point x="-111" y="-133.667"/>
      <point x="-92.3333" y="-121.667" type="curve"/>
      <point x="4.33333" y="-147.333" type="line"/>
      <point x="22.6667" y="-121.667"/>
      <point x="44.6667" y="-59"/>
      <point x="54" y="-8" type="curve" smooth="yes"/>
      <point x="128.333" y="423" type="line"/>
      <point x="43" y="432" type="line"/>
      <point x="43" y="465.667" type="line"/>
      <point x="204" y="498" type="line"/>
    </contour>
    <contour>
      <point x="441.333" y="721.333" type="line" name="n19"/>
      <point x="289.333" y="551" type="line"/>
      <point x="184.333" y="551" type="line"/>
      <point x="100.333" y="721.333" type="line"/>
      <point x="179" y="721.333" type="line"/>
      <point x="252.667" y="628" type="line"/>
      <point x="362.333" y="721.333" type="line"/>
    </contour>
  </outline>
</glyph>
<glyph name="uni01F2" format="2">
  <advance width="1174"/>
  <unicode hex="01F2"/>
  <outline>
    <contour>
      <point x="681" y="414.333" type="curve" smooth="yes" name="n00"/>
      <point x="681" y="173.667"/>
      <point x="507.333" y="0"/>
      <point x="234" y="0" type="curve" smooth="yes" name="n03"/>
      <point x="-15" y="0" type="line"/>
      <point x="-15" y="47.3333" type="line"/>
      <point x="9.34174" y="49.7372"/>
      <point x="45.6667" y="51.6667"/>
      <point x="45.6667" y="51.6667" type="curve"/>
      <point x="60.6667" y="52.6667"/>
      <point x="64" y="56"/>
      <point x="67" y="69.3333" type="curve"/>
      <point x="171" y="602" type="line" smooth="yes"/>
      <point x="173" y="613.667"/>
      <point x="166.333" y="617.667"/>
      <point x="152.333" y="618.667" type="curve"/>
      <point x="152.333" y="618.667"/>
      <point x="118.181" y="621.264"/>
      <point x="95" y="623.667" type="curve"/>
      <point x="95" y="671" type="line"/>
      <point x="348" y="671" type="line" smooth="yes" name="n20"/>
      <point x="546.667" y="671"/>
      <point x="681" y="600.333"/>
    </contour>
    <contour>
      <point x="545" y="423.333" type="curve" smooth="yes" name="n23"/>
      <point x="545" y="589"/>
      <point x="433.667" y="611"/>
      <point x="323.667" y="614.333" type="curve" name="n26"/>
      <point x="302.333" y="614.333" type="line"/>
      <point x="193.667" y="58.6667" type="line"/>
      <point x="252" y="58.6667" type="line" name="n29"/>
      <point x="436.667" y="60.6667"/>
      <point x="545" y="232.667"/>
    </contour>
    <contour>
      <point x="1181" y="469.333" type="line"/>
      <point x="848" y="85" type="line"/>
      <point x="918" y="101" type="line"/>
      <point x="951" y="85"/>
      <point x="980" y="68.3333"/>
      <point x="1004.33" y="68.3333" type="curve" smooth="yes" name="n37"/>
      <point x="1023" y="68.3333" name="hr01"/>
      <point x="1055" y="84"/>
      <point x="1064.67" y="98.6667" type="curve"/>
      <point x="1006.33" y="161.667" type="line"/>
      <point x="1015.33" y="176.333"/>
      <point x="1048.33" y="199.667"/>
      <point x="1076.33" y="199.667" type="curve" smooth="yes"/>
      <point x="1117" y="199.667"/>
      <point x="1136.67" y="157.333"/>
      <point x="1136.67" y="129.667" type="curve" smooth="yes"/>
      <point x="1136.67" y="60"/>
      <point x="1056.67" y="-11.3333"/>
      <point x="973" y="-11.3333" type="curve" smooth="yes" name="n50"/>
      <point x="907.333" y="-11.3333"/>
      <point x="854" y="31"/>
      <point x="829" y="31" type="curve" smooth="yes"/>
      <point x="821.333" y="31"/>
      <point x="812" y="30.6667"/>
      <point x="806.333" y="23.6667" type="curve"/>
      <point x="773.333" y="-34.6667" type="line"/>
      <point x="683" y="14.3333" type="line"/>
      <point x="1016" y="400" type="line"/>
      <point x="944.667" y="385" type="line"/>
      <point x="912.333" y="402.667"/>
      <point x="888.667" y="416"/>
      <point x="864.333" y="416" type="curve" smooth="yes" name="n63"/>
      <point x="849.333" y="416"/>
      <point x="813.333" y="403"/>
      <point x="803.667" y="387" type="curve"/>
      <point x="860.667" y="323.667" type="line"/>
      <point x="855" y="313.667"/>
      <point x="823" y="286.667"/>
      <point x="791.667" y="286.667" type="curve" smooth="yes" name="n70"/>
      <point x="750.333" y="286.667" name="hr02"/>
      <point x="732" y="329.333"/>
      <point x="732" y="355.667" type="curve" smooth="yes"/>
      <point x="732" y="418.667"/>
      <point x="803" y="498"/>
      <point x="894.333" y="498" type="curve" smooth="yes" name="n76"/>
      <point x="959.667" y="498"/>
      <point x="1013.67" y="452.667"/>
      <point x="1035.67" y="452.667" type="curve" smooth="yes"/>
      <point x="1043" y="452.667"/>
      <point x="1050" y="453.667"/>
      <point x="1057.33" y="459" type="curve"/>
      <point x="1082.67" y="519.667" type="line"/>
    </contour>
  </outline>
</glyph>
<glyph name="aeacute" format="2">
  <advance width="772"/>
  <unicode hex="01FD"/>
  <outline>
    <contour>
      <point x="754.333" y="395" type="curve" smooth="yes" name="n00"/>
      <point x="754.333" y="289.333"/>
      <point x="582.333" y="229.667"/>
      <point x="453.333" y="220" type="curve"/>
      <point x="447.333" y="197"/>
      <point x="444.333" y="179.333"/>
      <point x="444.333" y="158.667" type="curve" smooth="yes"/>
      <point x="444.333" y="100.667"/>
      <point x="455.667" y="53.3333"/>
      <point x="536.667" y="53.3333" type="curve" smooth="yes" name="n09"/>
      <point x="581" y="53.3333"/>
      <point x="621" y="85.6667"/>
      <point x="716.333" y="169.667" type="curve"/>
      <point x="716.333" y="84.6667" type="line"/>
      <point x="679" y="46.6667"/>
      <point x="595.333" y="-12"/>
      <point x="501" y="-12" type="curve" smooth="yes" name="n16"/>
      <point x="419" y="-12"/>
      <point x="373.667" y="0.333333"/>
      <point x="351" y="61.6667" type="curve"/>
      <point x="307.667" y="13.6667"/>
      <point x="247.667" y="-12"/>
      <point x="190.333" y="-12" type="curve" smooth="yes" name="n22"/>
      <point x="69.6667" y="-12"/>
      <point x="32" y="95.6667"/>
      <point x="32" y="169.667" type="curve" smooth="yes" name="n25"/>
      <point x="32" y="320.667"/>
      <point x="129.667" y="498"/>
      <point x="334" y="498" type="curve" smooth="yes" name="n28"/>
      <point x="364.333" y="498"/>
      <point x="385.667" y="480"/>
      <point x="401.667" y="464" type="curve"/>
      <point x="413.667" y="486" type="line"/>
      <point x="506" y="486" type="line"/>
      <point x="503.627" y="479.436"/>
      <point x="494.321" y="451.68"/>
      <point x="491.333" y="443.333" type="curve"/>
      <point x="535.667" y="480.333"/>
      <point x="595" y="497.667"/>
      <point x="637" y="497.667" type="curve" smooth="yes"/>
      <point x="732.333" y="497.667"/>
      <point x="754.333" y="424.667"/>
    </contour>
    <contour>
      <point x="640.333" y="395.333" type="curve" smooth="yes" name="n42"/>
      <point x="640.333" y="420"/>
      <point x="630" y="441.333"/>
      <point x="598" y="441.333" type="curve" smooth="yes" name="n45"/>
      <point x="541.667" y="441.333"/>
      <point x="470.333" y="350.667"/>
      <point x="459.333" y="266" type="curve"/>
      <point x="535.667" y="279.333"/>
      <point x="640.333" y="330.333"/>
    </contour>
    <contour>
      <point x="371.667" y="393" type="line"/>
      <point x="337.333" y="444.667" type="line" name="n52"/>
      <point x="208.333" y="436"/>
      <point x="157" y="285" name="hr01"/>
      <point x="157" y="175.667" type="curve" smooth="yes" name="n55"/>
      <point x="157" y="127"/>
      <point x="158.667" y="59.3333"/>
      <point x="222" y="59.3333" type="curve" smooth="yes" name="n58"/>
      <point x="259" y="59.3333"/>
      <point x="303.333" y="97"/>
      <point x="320.667" y="119.667" type="curve"/>
    </contour>
    <contour>
      <point x="641.333" y="683.667" type="curve" smooth="yes"/>
      <point x="641.333" y="668.667"/>
      <point x="631" y="650.667"/>
      <point x="616" y="642" type="curve" smooth="yes"/>
      <point x="458.667" y="551" type="line"/>
      <point x="388.333" y="551" type="line"/>
      <point x="525.333" y="703.667" type="line" smooth="yes"/>
      <point x="544.333" y="725.333"/>
      <point x="558.333" y="733.333" name="n70"/>
      <point x="586.333" y="733.333" type="curve" smooth="yes"/>
      <point x="626.667" y="733.333"/>
      <point x="641.333" y="706.333"/>
    </contour>
  </outline>
</glyph>
<glyph name="uni021D" format="2">
  <advance width="412"/>
  <unicode hex="021D"/>
  <outline>
    <contour>
      <point x="403" y="372.922" type="curve" smooth="yes" name="n00"/>
      <point x="403" y="303"/>
      <point x="342.667" y="239.667"/>
      <point x="260" y="189.333" type="curve"/>
      <point x="315.333" y="173.333"/>
      <point x="358.333" y="135.667" name="hr01"/>
      <point x="358.333" y="76.5485" type="curve" smooth="yes" name="n06"/>
      <point x="358.333" y="-52.6667"/>
      <point x="153.667" y="-167.667"/>
      <point x="-34.6667" y="-229" type="curve"/>
      <point x="-21.6667" y="-168.333" type="line"/>
      <point x="144.333" y="-102.667"/>
      <point x="224" y="-17.3333"/>
      <point x="224" y="64.3017" type="curve" smooth="yes" name="n13"/>
      <point x="224" y="106"/>
      <point x="207" y="138"/>
      <point x="181" y="148" type="curve"/>
      <point x="143.667" y="131.333"/>
      <point x="104.596" y="117"/>
      <point x="66.3333" y="105" type="curve"/>
      <point x="78" y="165.667" type="line"/>
      <point x="219.667" y="223.333"/>
      <point x="268.667" y="294" name="hr02"/>
      <point x="268.667" y="366.066" type="curve" smooth="yes" name="n23"/>
      <point x="268.667" y="423.667"/>
      <point x="238.333" y="440.667"/>
      <point x="207.105" y="440.667" type="curve" smooth="yes" name="n26"/>
      <point x="182.425" y="440.667"/>
      <point x="138.462" y="429.616"/>
      <point x="122.667" y="409" type="curve"/>
      <point x="99.6667" y="352.333" type="line"/>
      <point x="45.6667" y="352.333" type="line"/>
      <point x="67.6667" y="461.333" type="line"/>
      <point x="141.333" y="491.333"/>
      <point x="180" y="498"/>
      <point x="231" y="498" type="curve" smooth="yes" name="n35"/>
      <point x="308.333" y="498"/>
      <point x="403" y="459.333"/>
    </contour>
  </outline>
</glyph>
